G04 --- HEADER BEGIN --- *
G04 #@! TF.GenerationSoftware,LibrePCB,LibrePCB,2.1.1*
G04 #@! TF.CreationDate,2026-06-30T21:19:46*
G04 #@! TF.ProjectId,test_project,7c04f9d5-7366-4c4b-9e17-852ed57b3966,v1*
G04 #@! TF.Part,Single*
G04 #@! TF.SameCoordinates*
G04 #@! TF.FileFunction,Soldermask,Top*
G04 #@! TF.FilePolarity,Negative*
%FSLAX66Y66*%
%MOMM*%
G01*
G75*
G04 --- HEADER END --- *
G04 --- APERTURE LIST BEGIN --- *
%AMOUTLINE10*4,1,46,-0.712301,-0.698439,-0.823982,-0.562355,-0.834873,-0.546056,-0.917859,-0.3908,-0.925361,-0.372688,-0.976464,-0.204224,-0.980288,-0.184998,-0.997544,-0.009802,-0.997544,0.009802,-0.980288,0.184998,-0.976464,0.204224,-0.925361,0.372688,-0.917859,0.3908,-0.834873,0.546056,-0.823982,0.562355,-0.712301,0.698439,-0.635,0.735,0.635,0.735,0.647054,0.734271,0.799019,0.715819,0.822425,0.71005,0.965559,0.655767,0.986906,0.644563,1.11289,0.557602,1.130934,0.541616,1.232446,0.427033,1.246141,0.407193,1.317281,0.271646,1.325829,0.249106,1.362464,0.100473,1.36537,0.076541,1.36537,-0.076541,1.362464,-0.100473,1.325829,-0.249106,1.317281,-0.271646,1.246141,-0.407193,1.232446,-0.427033,1.130934,-0.541616,1.11289,-0.557602,0.986906,-0.644563,0.965559,-0.655767,0.822425,-0.71005,0.799019,-0.715819,0.647054,-0.734271,0.635,-0.735,-0.635,-0.735,-0.712301,-0.698439,100.0*%
%ADD10OUTLINE10*%
%AMROUNDEDRECT11*20,1,1.47,-1.27,0.0,1.27,0.0,120.0*20,1,1.27,-1.37,0.0,1.37,0.0,120.0*1,1,0.2,0.085074,-1.417352*1,1,0.2,-1.184926,0.782352*1,1,0.2,-0.085074,1.417352*1,1,0.2,1.184926,-0.782352*%
%ADD11ROUNDEDRECT11*%
%AMROUNDEDOCTAGON12*4,1,16,1.1,0.207107,1.070711,0.277818,0.777818,0.570711,0.707107,0.6,-0.707107,0.6,-0.777818,0.570711,-1.070711,0.277818,-1.1,0.207107,-1.1,-0.207107,-1.070711,-0.277818,-0.777818,-0.570711,-0.707107,-0.6,0.707107,-0.6,0.777818,-0.570711,1.070711,-0.277818,1.1,-0.207107,1.1,0.207107,100.0*1,1,0.2,-0.615192,0.60954*1,1,0.2,-0.369616,-0.783189*1,1,0.2,-0.030312,-1.020772*1,1,0.2,0.377609,-0.948844*1,1,0.2,0.615192,-0.60954*1,1,0.2,0.369616,0.783189*1,1,0.2,0.030312,1.020772*1,1,0.2,-0.377609,0.948844*%
%ADD12ROUNDEDOCTAGON12*%
%AMROTATEDOBROUND13*1,1,1.87,0.3175,-0.549926*1,1,1.87,-0.3175,0.549926*20,1,1.87,0.3175,-0.549926,-0.3175,0.549926,0*%
%ADD13ROTATEDOBROUND13*%
%AMROUNDEDOCTAGON14*4,1,16,1.6,0.414214,1.570711,0.484925,0.984925,1.070711,0.914214,1.1,-0.914214,1.1,-0.984925,1.070711,-1.570711,0.484925,-1.6,0.414214,-1.6,-0.414214,-1.570711,-0.484925,-0.984925,-1.070711,-0.914214,-1.1,0.914214,-1.1,0.984925,-1.070711,1.570711,-0.484925,1.6,-0.414214,1.6,0.414214,50.0*1,1,0.2,-0.178399,1.343116*1,1,0.2,-1.35369,-0.057541*1,1,0.2,-1.281488,-0.882815*1,1,0.2,-0.646875,-1.415318*1,1,0.2,0.178399,-1.343116*1,1,0.2,1.35369,0.057541*1,1,0.2,1.281488,0.882815*1,1,0.2,0.646875,1.415318*%
%ADD14ROUNDEDOCTAGON14*%
%ADD15C,3.2*%
%ADD16C,1.8*%
%AMOUTLINE17*4,1,46,0.712301,-0.698439,0.823982,-0.562355,0.834873,-0.546056,0.917859,-0.3908,0.925361,-0.372688,0.976464,-0.204224,0.980288,-0.184998,0.997544,-0.009802,0.997544,0.009802,0.980288,0.184998,0.976464,0.204224,0.925361,0.372688,0.917859,0.3908,0.834873,0.546056,0.823982,0.562355,0.712301,0.698439,0.635,0.735,-0.635,0.735,-0.647054,0.734271,-0.799019,0.715819,-0.822425,0.71005,-0.965559,0.655767,-0.986906,0.644563,-1.11289,0.557602,-1.130934,0.541616,-1.232446,0.427033,-1.246141,0.407193,-1.317281,0.271646,-1.325829,0.249106,-1.362464,0.100473,-1.36537,0.076541,-1.36537,-0.076541,-1.362464,-0.100473,-1.325829,-0.249106,-1.317281,-0.271646,-1.246141,-0.407193,-1.232446,-0.427033,-1.130934,-0.541616,-1.11289,-0.557602,-0.986906,-0.644563,-0.965559,-0.655767,-0.822425,-0.71005,-0.799019,-0.715819,-0.647054,-0.734271,-0.635,-0.735,0.635,-0.735,0.712301,-0.698439,200.0*%
%ADD17OUTLINE17*%
%AMROUNDEDRECT18*20,1,1.47,-1.27,0.0,1.27,0.0,0.0*20,1,1.27,-1.37,0.0,1.37,0.0,0.0*1,1,0.2,-1.27,0.635*1,1,0.2,1.27,0.635*1,1,0.2,1.27,-0.635*1,1,0.2,-1.27,-0.635*%
%ADD18ROUNDEDRECT18*%
%AMROUNDEDOCTAGON19*4,1,16,1.2,0.207107,1.141421,0.348528,0.848528,0.641421,0.707107,0.7,-0.707107,0.7,-0.848528,0.641421,-1.141421,0.348528,-1.2,0.207107,-1.2,-0.207107,-1.141421,-0.348528,-0.848528,-0.641421,-0.707107,-0.7,0.707107,-0.7,0.848528,-0.641421,1.141421,-0.348528,1.2,-0.207107,1.2,0.207107,20.0*1,1,0.4,0.493453,0.711691*1,1,0.4,-0.835473,0.228001*1,1,0.4,-1.010527,-0.147403*1,1,0.4,-0.868858,-0.536637*1,1,0.4,-0.493453,-0.711691*1,1,0.4,0.835473,-0.228001*1,1,0.4,1.010527,0.147403*1,1,0.4,0.868858,0.536637*%
%ADD19ROUNDEDOCTAGON19*%
%AMROUNDEDRECT20*20,1,1.2,-0.75,0.0,0.75,0.0,0.0*20,1,0.5,-1.1,0.0,1.1,0.0,0.0*1,1,0.7,-0.75,0.25*1,1,0.7,0.75,0.25*1,1,0.7,0.75,-0.25*1,1,0.7,-0.75,-0.25*%
%ADD20ROUNDEDRECT20*%
%ADD21O,3.14X1.87*%
%AMROUNDEDOCTAGON22*4,1,16,1.6,0.414214,1.570711,0.484925,0.984925,1.070711,0.914214,1.1,-0.914214,1.1,-0.984925,1.070711,-1.570711,0.484925,-1.6,0.414214,-1.6,-0.414214,-1.570711,-0.484925,-0.984925,-1.070711,-0.914214,-1.1,0.914214,-1.1,0.984925,-1.070711,1.570711,-0.484925,1.6,-0.414214,1.6,0.414214,70.0*1,1,0.2,-0.627013,1.2011*1,1,0.2,-1.252372,-0.51706*1,1,0.2,-0.902264,-1.267869*1,1,0.2,-0.123796,-1.551208*1,1,0.2,0.627013,-1.2011*1,1,0.2,1.252372,0.51706*1,1,0.2,0.902264,1.267869*1,1,0.2,0.123796,1.551208*%
%ADD22ROUNDEDOCTAGON22*%
%ADD23O,1.2X2.2*%
%ADD24C,2.0*%
%ADD25C,1.19*%
%AMROTATEDOBROUND26*1,1,1.5,-0.563816,-0.205212*1,1,1.5,0.563816,0.205212*20,1,1.5,-0.563816,-0.205212,0.563816,0.205212,0*%
%ADD26ROTATEDOBROUND26*%
%ADD27C,0.9*%
%ADD28C,2.4*%
%ADD29C,1.2*%
%ADD30C,1.1*%
%ADD31C,2.2*%
%AMROUNDEDOCTAGON32*4,1,16,1.45,0.134619,1.296231,0.50585,1.10585,0.696231,0.734619,0.85,-0.734619,0.85,-1.10585,0.696231,-1.296231,0.50585,-1.45,0.134619,-1.45,-0.134619,-1.296231,-0.50585,-1.10585,-0.696231,-0.734619,-0.85,0.734619,-0.85,1.10585,-0.696231,1.296231,-0.50585,1.45,-0.134619,1.45,0.134619,160.0*1,1,1.05,-0.801473,-0.054146*1,1,1.05,0.57916,-0.556655*1,1,1.05,0.823173,-0.442869*1,1,1.05,0.915258,-0.189868*1,1,1.05,0.801473,0.054146*1,1,1.05,-0.57916,0.556655*1,1,1.05,-0.823173,0.442869*1,1,1.05,-0.915258,0.189868*%
%ADD32ROUNDEDOCTAGON32*%
%AMROUNDEDRECT33*20,1,0.9,-0.75,0.0,0.75,0.0,20.0*20,1,0.7,-0.85,0.0,0.85,0.0,20.0*1,1,0.2,-0.824477,0.072377*1,1,0.2,0.585062,0.585408*1,1,0.2,0.824477,-0.072377*1,1,0.2,-0.585062,-0.585408*%
%ADD33ROUNDEDRECT33*%
%ADD34C,3.0*%
G04 --- APERTURE LIST END --- *
G04 --- BOARD BEGIN --- *
D10*
G04 #@! TO.C,D2*
X60012659Y41970886D03*
D11*
X55613250Y39430886D03*
D12*
X65092659Y33172068D03*
D13*
X53413546Y38160886D03*
D14*
X57812955Y40700886D03*
D15*
G04 #@! TD*
X75070295Y56530295D03*
X58833841Y23692659D03*
D16*
X62130556Y48022582D02*
X64400473Y51407022D01*
X72290556Y30424946D02*
G03*
X72890754Y32845373I513492J1157298D01*
G01*
X84923996Y41259238D02*
G02*
X84022582Y39228428I-1466112J-564698D01*
G01*
X83169873Y37581416D01*
G03*
X81071797Y35215390I133975J-2232051D01*
G01*
D17*
G04 #@! TO.C,D1*
X-620000Y39140000D03*
D18*
X-620000Y34060000D03*
D19*
X-10780000Y36600000D03*
D20*
X-10780000Y31520000D03*
D21*
X-620000Y31520000D03*
D22*
X-620000Y36600000D03*
D23*
X-10780000Y34060000D03*
D15*
G04 #@! TD*
X4460000Y59460000D03*
X-15860000Y28980000D03*
D16*
X3561974Y44000000D02*
X5358026Y47658026D01*
X-16758026Y44000000D02*
G02*
X-14961974Y45730000I745503J1023346D01*
G01*
X-13691974Y60358026D02*
G03*
X-15000000Y58561974I244013J-1552039D01*
G01*
X-16000000Y57000000D01*
G02*
X-17000000Y54000000I-2000000J-1000000D01*
G01*
D24*
X90000000Y25000000D03*
D25*
X20000000Y42000000D03*
D26*
X88000000Y37000000D03*
D27*
X12000000Y42000000D03*
D28*
X16000000Y46000000D03*
D27*
X90000000Y28000000D03*
D29*
X16000000Y42000000D03*
D30*
X18000000Y32000000D03*
D31*
X20000000Y46000000D03*
D32*
X88000000Y32000000D03*
D29*
X14000000Y44000000D03*
X12000000Y46000000D03*
D27*
X18000000Y44000000D03*
D33*
X85000000Y29000000D03*
D27*
X14000000Y32000000D03*
D34*
X48000000Y20000000D03*
D16*
X-15561974Y22000000D02*
X-17358026Y18341974D01*
D29*
X92000000Y70000000D03*
D16*
X-12241974Y21000000D02*
G02*
X-14038026Y19270000I-745503J-1023346D01*
G01*
D31*
X56000000Y73000000D03*
D16*
X-22308026Y16641974D02*
G03*
X-21000000Y18438026I-244013J1552039D01*
G01*
X-20000000Y20000000D01*
G02*
X-19000000Y23000000I2000000J1000000D01*
G01*
G04 --- BOARD END --- *
G04 #@! TF.MD5,2e0395ce1c4801afcccfec417c7809d7*
M02*
