G04 --- HEADER BEGIN --- *
G04 #@! TF.GenerationSoftware,LibrePCB,LibrePCB,2.1.1*
G04 #@! TF.CreationDate,2026-06-30T21:16:53*
G04 #@! TF.ProjectId,test_project,7c04f9d5-7366-4c4b-9e17-852ed57b3966,v1*
G04 #@! TF.Part,Single*
G04 #@! TF.SameCoordinates*
G04 #@! TF.FileFunction,Copper,L1,Top*
G04 #@! TF.FilePolarity,Positive*
%FSLAX66Y66*%
%MOMM*%
G01*
G75*
G04 --- HEADER END --- *
G04 --- APERTURE LIST BEGIN --- *
G04 #@! TA.AperFunction,ComponentPad*
%AMOUTLINE10*4,1,23,-0.746681,-0.498916,-0.829667,-0.34366,-0.88077,-0.175196,-0.898026,0.0,-0.88077,0.175196,-0.829667,0.34366,-0.746681,0.498916,-0.635,0.635,0.635,0.635,0.786965,0.616548,0.930099,0.562265,1.056083,0.475304,1.157595,0.360721,1.228735,0.225174,1.26537,0.076541,1.26537,-0.076541,1.228735,-0.225174,1.157595,-0.360721,1.056083,-0.475304,0.930099,-0.562265,0.786965,-0.616548,0.635,-0.635,-0.635,-0.635,-0.746681,-0.498916,100.0*%
%ADD10OUTLINE10*%
G04 #@! TA.AperFunction,FiducialPad,Local*
%AMROTATEDRECT11*20,1,1.27,-1.27,0.0,1.27,0.0,120.0*%
%ADD11ROTATEDRECT11*%
G04 #@! TA.AperFunction,SMDPad,CuDef*
%AMROTATEDOCTAGON12*4,1,8,1.0,0.207107,0.707107,0.5,-0.707107,0.5,-1.0,0.207107,-1.0,-0.207107,-0.707107,-0.5,0.707107,-0.5,1.0,-0.207107,1.0,0.207107,100.0*%
%ADD12ROTATEDOCTAGON12*%
G04 #@! TA.AperFunction,ComponentPad*
%AMROTATEDOBROUND13*1,1,1.27,0.3175,-0.549926*1,1,1.27,-0.3175,0.549926*20,1,1.27,0.3175,-0.549926,-0.3175,0.549926,0*%
%ADD13ROTATEDOBROUND13*%
%AMROTATEDOCTAGON14*4,1,8,1.5,0.414214,0.914214,1.0,-0.914214,1.0,-1.5,0.414214,-1.5,-0.414214,-0.914214,-1.0,0.914214,-1.0,1.5,-0.414214,1.5,0.414214,50.0*%
%ADD14ROTATEDOCTAGON14*%
G04 #@! TA.AperFunction,Conductor*
%ADD15C,0.01*%
G04 #@! TA.AperFunction,ComponentPad*
%AMOUTLINE16*4,1,23,0.746681,-0.498916,0.829667,-0.34366,0.88077,-0.175196,0.898026,0.0,0.88077,0.175196,0.829667,0.34366,0.746681,0.498916,0.635,0.635,-0.635,0.635,-0.786965,0.616548,-0.930099,0.562265,-1.056083,0.475304,-1.157595,0.360721,-1.228735,0.225174,-1.26537,0.076541,-1.26537,-0.076541,-1.228735,-0.225174,-1.157595,-0.360721,-1.056083,-0.475304,-0.930099,-0.562265,-0.786965,-0.616548,-0.635,-0.635,0.635,-0.635,0.746681,-0.498916,200.0*%
%ADD16OUTLINE16*%
G04 #@! TA.AperFunction,FiducialPad,Local*
%ADD17R,2.54X1.27*%
G04 #@! TA.AperFunction,FiducialPad,Global*
%AMROTATEDOCTAGON18*4,1,8,1.0,0.207107,0.707107,0.5,-0.707107,0.5,-1.0,0.207107,-1.0,-0.207107,-0.707107,-0.5,0.707107,-0.5,1.0,-0.207107,1.0,0.207107,20.0*%
%ADD18ROTATEDOCTAGON18*%
G04 #@! TA.AperFunction,SMDPad,CuDef*
%AMROUNDEDRECT19*20,1,1.0,-0.75,0.0,0.75,0.0,0.0*20,1,0.5,-1.0,0.0,1.0,0.0,0.0*1,1,0.5,-0.75,0.25*1,1,0.5,0.75,0.25*1,1,0.5,0.75,-0.25*1,1,0.5,-0.75,-0.25*%
%ADD19ROUNDEDRECT19*%
G04 #@! TA.AperFunction,ComponentPad*
%ADD20O,2.54X1.27*%
%AMROTATEDOCTAGON21*4,1,8,1.5,0.414214,0.914214,1.0,-0.914214,1.0,-1.5,0.414214,-1.5,-0.414214,-0.914214,-1.0,0.914214,-1.0,1.5,-0.414214,1.5,0.414214,70.0*%
%ADD21ROTATEDOCTAGON21*%
G04 #@! TA.AperFunction,SMDPad,CuDef*
%ADD22O,1.0X2.0*%
G04 #@! TA.AperFunction,Conductor*
%ADD23C,0.2*%
G04 #@! TA.AperFunction,NonConductor*
%ADD24C,0.2*%
G04 #@! TA.AperFunction,FiducialPad,Global*
%ADD25C,1.0*%
G04 #@! TA.AperFunction,ViaPad*
%ADD26C,1.485*%
G04 #@! TA.AperFunction,ComponentPad*
%AMROTATEDOBROUND27*1,1,1.3,-0.563816,-0.205212*1,1,1.3,0.563816,0.205212*20,1,1.3,-0.563816,-0.205212,0.563816,0.205212,0*%
%ADD27ROTATEDOBROUND27*%
G04 #@! TA.AperFunction,ViaPad*
%ADD28C,0.7*%
%ADD29C,2.0*%
G04 #@! TA.AperFunction,TestPad*
%ADD30C,0.7*%
G04 #@! TA.AperFunction,ViaPad*
%ADD31C,0.8*%
G04 #@! TA.AperFunction,Conductor*
%ADD32C,0.5*%
G04 #@! TA.AperFunction,ComponentPad*
%AMROUNDEDOCTAGON33*4,1,16,1.25,0.134619,1.15481,0.364429,0.964429,0.55481,0.734619,0.65,-0.734619,0.65,-0.964429,0.55481,-1.15481,0.364429,-1.25,0.134619,-1.25,-0.134619,-1.15481,-0.364429,-0.964429,-0.55481,-0.734619,-0.65,0.734619,-0.65,0.964429,-0.55481,1.15481,-0.364429,1.25,-0.134619,1.25,0.134619,160.0*1,1,0.65,-0.801473,-0.054146*1,1,0.65,0.57916,-0.556655*1,1,0.65,0.823173,-0.442869*1,1,0.65,0.915258,-0.189868*1,1,0.65,0.801473,0.054146*1,1,0.65,-0.57916,0.556655*1,1,0.65,-0.823173,0.442869*1,1,0.65,-0.915258,0.189868*%
%ADD33ROUNDEDOCTAGON33*%
G04 #@! TA.AperFunction,SMDPad,CuDef*
%AMROTATEDRECT34*20,1,0.7,-0.75,0.0,0.75,0.0,20.0*%
%ADD34ROTATEDRECT34*%
G04 #@! TD*
G04 --- APERTURE LIST END --- *
G04 --- BOARD BEGIN --- *
D10*
G04 #@! TO.N,N/C*
G04 #@! TO.C,D2*
G04 #@! TO.P,D2,4,4*
X60012659Y41970886D03*
D11*
G04 #@! TO.N,N3*
G04 #@! TO.P,D2,2,2*
X55613250Y39430886D03*
D12*
G04 #@! TO.N,N/C*
G04 #@! TO.P,D2,8,!8*
X65092659Y33172068D03*
D13*
G04 #@! TO.N,N3*
G04 #@! TO.P,D2,1,1*
X53413546Y38160886D03*
D14*
G04 #@! TO.N,GND*
G04 #@! TO.P,D2,3,3*
X57812955Y40700886D03*
D15*
G04 #@! TD.P*
G04 #@! TA.AperFunction,Conductor*
G04 #@! TO.N,*
G36*
X59082955Y38501182D02*
X61622955Y34101773D01*
X58153250Y35031477D01*
X59082955Y38501182D01*
G37*
D16*
G04 #@! TD.AperFunction*
G04 #@! TO.N,N3*
G04 #@! TO.C,D1*
G04 #@! TO.P,D1,4,4*
X-620000Y39140000D03*
D17*
G04 #@! TO.N,N/C*
G04 #@! TO.P,D1,2,2*
X-620000Y34060000D03*
D18*
G04 #@! TO.N,FOO*
G04 #@! TO.P,D1,7,6*
X-10780000Y36600000D03*
D19*
G04 #@! TO.N,N/C*
G04 #@! TO.P,D1,5,5*
X-10780000Y31520000D03*
D20*
G04 #@! TO.N,FOO*
G04 #@! TO.P,D1,1,1*
X-620000Y31520000D03*
D21*
G04 #@! TO.N,VCC*
G04 #@! TO.P,D1,3,3*
X-620000Y36600000D03*
D22*
G04 #@! TO.N,FOO*
G04 #@! TO.P,D1,6,6*
X-10780000Y34060000D03*
D23*
G04 #@! TD.P*
G04 #@! TO.N,*
X-3160000Y31520000D02*
X-8240000Y31520000D01*
X-5700000Y34060000D01*
X-3160000Y31520000D01*
D24*
X-7683333Y38663333D02*
X-8016666Y38663333D01*
X-8016666Y38140000D02*
X-8016666Y39140000D01*
X-7539999Y39140000D01*
X-6949999Y38140000D02*
X-7044443Y38187778D01*
X-7092221Y38235556D01*
X-7139999Y38330000D01*
X-7139999Y38616667D01*
X-7092221Y38711111D01*
X-7044443Y38758889D01*
X-6949999Y38806667D01*
X-6806666Y38806667D01*
X-6711110Y38758889D01*
X-6663332Y38711111D01*
X-6616666Y38616667D01*
X-6616666Y38330000D01*
X-6663332Y38235556D01*
X-6711110Y38187778D01*
X-6806666Y38140000D01*
X-6949999Y38140000D01*
X-6026666Y38140000D02*
X-6121110Y38187778D01*
X-6168888Y38235556D01*
X-6216666Y38330000D01*
X-6216666Y38616667D01*
X-6168888Y38711111D01*
X-6121110Y38758889D01*
X-6026666Y38806667D01*
X-5883333Y38806667D01*
X-5787777Y38758889D01*
X-5739999Y38711111D01*
X-5693333Y38616667D01*
X-5693333Y38330000D01*
X-5739999Y38235556D01*
X-5787777Y38187778D01*
X-5883333Y38140000D01*
X-6026666Y38140000D01*
X-4960000Y38663333D02*
X-4816666Y38616667D01*
X-4770000Y38568889D01*
X-4722222Y38473333D01*
X-4722222Y38330000D01*
X-4770000Y38235556D01*
X-4816666Y38187778D01*
X-4912222Y38140000D01*
X-5293333Y38140000D01*
X-5293333Y39140000D01*
X-4960000Y39140000D01*
X-4864444Y39092222D01*
X-4816666Y39044444D01*
X-4770000Y38950000D01*
X-4770000Y38854444D01*
X-4816666Y38758889D01*
X-4864444Y38711111D01*
X-4960000Y38663333D01*
X-5293333Y38663333D01*
X-3845555Y38140000D02*
X-3845555Y38663333D01*
X-3893333Y38758889D01*
X-3988889Y38806667D01*
X-4178889Y38806667D01*
X-4274444Y38758889D01*
X-3845555Y38187778D02*
X-3941111Y38140000D01*
X-4178889Y38140000D01*
X-4274444Y38187778D01*
X-4322222Y38283333D01*
X-4322222Y38377778D01*
X-4274444Y38473333D01*
X-4178889Y38521111D01*
X-3941111Y38521111D01*
X-3845555Y38568889D01*
X-3445555Y38140000D02*
X-3445555Y38806667D01*
X-3445555Y38616667D02*
X-3397777Y38711111D01*
X-3349999Y38758889D01*
X-3255555Y38806667D01*
X-3159999Y38806667D01*
D25*
G04 #@! TD.C*
G04 #@! TO.N,N/C*
X90000000Y25000000D03*
D26*
G04 #@! TO.N,Special*
X20000000Y42000000D03*
D27*
G04 #@! TO.N,N/C*
X88000000Y37000000D03*
D28*
G04 #@! TO.N,Special*
X12000000Y42000000D03*
D29*
G04 #@! TO.N,GND*
X16000000Y46000000D03*
D30*
G04 #@! TO.N,N/C*
X90000000Y28000000D03*
D31*
G04 #@! TO.N,Special*
X16000000Y42000000D03*
D28*
G04 #@! TO.N,GND*
X10000000Y44000000D03*
G04 #@! TO.N,N/C*
X18000000Y32000000D03*
D32*
G04 #@! TO.N,N3*
X23000000Y39000000D02*
X23839114Y38160886D01*
X19140000Y39140000D02*
X22860000Y39140000D01*
X-620000Y39140000D02*
X19140000Y39140000D01*
X53413546Y38160886D02*
X23839114Y38160886D01*
X23000000Y39000000D02*
X22860000Y39140000D01*
D29*
G04 #@! TO.N,GND*
X20000000Y46000000D03*
D33*
G04 #@! TO.N,FOO*
X88000000Y32000000D03*
D31*
G04 #@! TO.N,GND*
X14000000Y44000000D03*
D29*
X12000000Y46000000D03*
D28*
X18000000Y44000000D03*
D34*
G04 #@! TO.N,N/C*
X85000000Y29000000D03*
D28*
X14000000Y32000000D03*
X10000000Y32000000D03*
D15*
G04 #@! TA.AperFunction,Conductor*
G04 #@! TO.N,FOO*
G36*
X-56595993Y38430523D02*
X-56595991Y38427424D01*
X-56575628Y37155731D01*
X-56575531Y37152634D01*
X-56515771Y35882139D01*
X-56515577Y35879046D01*
X-56416483Y34611084D01*
X-56416194Y34607998D01*
X-56277853Y33343678D01*
X-56277468Y33340603D01*
X-56100015Y32081173D01*
X-56099535Y32078111D01*
X-55883143Y30824797D01*
X-55882569Y30821752D01*
X-55627448Y29575759D01*
X-55626779Y29572733D01*
X-55333160Y28335195D01*
X-55332398Y28332191D01*
X-55000589Y27104406D01*
X-54999734Y27101427D01*
X-54630025Y25884471D01*
X-54629078Y25881520D01*
X-54221848Y24676636D01*
X-54220811Y24673716D01*
X-53776425Y23481983D01*
X-53775297Y23479097D01*
X-53294232Y22301795D01*
X-53293016Y22298944D01*
X-52775646Y21136992D01*
X-52774341Y21134181D01*
X-52221251Y19988893D01*
X-52219861Y19986124D01*
X-51631553Y18858537D01*
X-51630077Y18855812D01*
X-51007083Y17746947D01*
X-51005523Y17744269D01*
X-50348489Y16655272D01*
X-50346847Y16652643D01*
X-49656384Y15584531D01*
X-49654662Y15581955D01*
X-48931422Y14535733D01*
X-48929620Y14533212D01*
X-48174312Y13509912D01*
X-48172433Y13507447D01*
X-47385778Y12508039D01*
X-47383824Y12505634D01*
X-46566611Y11531124D01*
X-46564583Y11528781D01*
X-45717498Y10579984D01*
X-45715399Y10577704D01*
X-44839358Y9655651D01*
X-44837189Y9653438D01*
X-43933017Y8758994D01*
X-43930780Y8756849D01*
X-42999308Y7890834D01*
X-42997006Y7888759D01*
X-42039141Y7052018D01*
X-42036776Y7050015D01*
X-41053428Y6243346D01*
X-41051001Y6241418D01*
X-40043194Y5465657D01*
X-40040710Y5463805D01*
X-39009252Y4719575D01*
X-39006711Y4717801D01*
X-37952744Y4005931D01*
X-37950149Y4004237D01*
X-36874644Y3325375D01*
X-36871998Y3323761D01*
X-35775929Y2678524D01*
X-35773234Y2676994D01*
X-34657751Y2066063D01*
X-34655011Y2064616D01*
X-33521051Y1488500D01*
X-33518266Y1487140D01*
X-32367074Y946474D01*
X-32364249Y945200D01*
X-31196865Y440471D01*
X-31194002Y439285D01*
X-30011465Y-29059D01*
X-30008566Y-30155D01*
X-28812140Y-461610D01*
X-28809209Y-462616D01*
X-27600011Y-856784D01*
X-27597050Y-857699D01*
X-26376112Y-1214238D01*
X-26373124Y-1215060D01*
X-25141854Y-1533562D01*
X-25138842Y-1534292D01*
X-23898198Y-1814509D01*
X-23895165Y-1815145D01*
X-22646473Y-2056778D01*
X-22643422Y-2057319D01*
X-22335153Y-2107115D01*
X-22335153Y15542726D01*
X-22344346Y15542991D01*
X-22536677Y15566427D01*
X-22545669Y15568378D01*
X-22730416Y15626755D01*
X-22738896Y15630325D01*
X-22909762Y15721650D01*
X-22917454Y15726726D01*
X-23068627Y15847890D01*
X-23075253Y15854291D01*
X-23201594Y16001176D01*
X-23206924Y16008675D01*
X-23304122Y16176273D01*
X-23307989Y16184634D01*
X-23372735Y16367238D01*
X-23374998Y16376161D01*
X-23405090Y16567562D01*
X-23405674Y16576740D01*
X-23400085Y16770401D01*
X-23398970Y16779551D01*
X-23357890Y16968884D01*
X-23355116Y16977665D01*
X-23279945Y17156230D01*
X-23275606Y17164348D01*
X-23168898Y17326070D01*
X-23163148Y17333244D01*
X-23028542Y17472602D01*
X-23021564Y17478605D01*
X-22863646Y17590853D01*
X-22855683Y17595471D01*
X-22679832Y17676791D01*
X-22671153Y17679869D01*
X-22480730Y17728156D01*
X-22477018Y17729174D01*
X-22373541Y17759697D01*
X-22349680Y17770288D01*
X-22267212Y17820696D01*
X-22246906Y17837101D01*
X-22180296Y17907134D01*
X-22164929Y17928235D01*
X-22118714Y18013121D01*
X-22109330Y18037483D01*
X-22086661Y18131437D01*
X-22083903Y18157395D01*
X-22086605Y18265270D01*
X-22086776Y18269116D01*
X-22092580Y18360335D01*
X-22092677Y18361711D01*
X-22099518Y18449988D01*
X-22099341Y18461725D01*
X-22099345Y18461915D01*
X-22099334Y18462452D01*
X-22099323Y18462607D01*
X-22098985Y18474344D01*
X-22088256Y18562390D01*
X-22088099Y18563761D01*
X-22078599Y18651822D01*
X-22076266Y18663341D01*
X-22076239Y18663506D01*
X-22076130Y18664024D01*
X-22076088Y18664187D01*
X-22073597Y18675671D01*
X-22046874Y18760239D01*
X-22046468Y18761557D01*
X-22020950Y18846368D01*
X-22016541Y18857260D01*
X-22016480Y18857429D01*
X-22016281Y18857912D01*
X-22016213Y18858057D01*
X-22011649Y18868898D01*
X-21969841Y18947119D01*
X-21969199Y18948339D01*
X-21927462Y19029086D01*
X-21925165Y19033068D01*
X-21244486Y20096270D01*
X-21230735Y20170236D01*
X-21298335Y20500582D01*
X-21299115Y20505762D01*
X-21332471Y20848096D01*
X-21332705Y20853316D01*
X-21330094Y21197269D01*
X-21329781Y21202475D01*
X-21291231Y21544273D01*
X-21290374Y21549429D01*
X-21216309Y21885319D01*
X-21214917Y21890360D01*
X-21106153Y22216655D01*
X-21104237Y22221534D01*
X-20961959Y22534678D01*
X-20959549Y22539321D01*
X-20785313Y22835885D01*
X-20782432Y22840247D01*
X-20578152Y23116971D01*
X-20574837Y23121002D01*
X-20342750Y23374860D01*
X-20339021Y23378533D01*
X-20081662Y23606747D01*
X-20077596Y23609988D01*
X-20004355Y23662355D01*
X-20004355Y42700381D01*
X-20221387Y42719369D01*
X-20229962Y42720880D01*
X-20440418Y42777272D01*
X-20448577Y42780243D01*
X-20646040Y42872320D01*
X-20653581Y42876674D01*
X-20832049Y43001638D01*
X-20838709Y43007227D01*
X-20992773Y43161291D01*
X-20998362Y43167951D01*
X-21123326Y43346419D01*
X-21127680Y43353960D01*
X-21219757Y43551423D01*
X-21222728Y43559582D01*
X-21279120Y43770038D01*
X-21280631Y43778613D01*
X-21299619Y43995645D01*
X-21299619Y44004355D01*
X-21280631Y44221387D01*
X-21279120Y44229962D01*
X-21222728Y44440418D01*
X-21219757Y44448577D01*
X-21127680Y44646040D01*
X-21123326Y44653581D01*
X-20998362Y44832049D01*
X-20992773Y44838709D01*
X-20838709Y44992773D01*
X-20832049Y44998362D01*
X-20653581Y45123326D01*
X-20646040Y45127680D01*
X-20448577Y45219757D01*
X-20440418Y45222728D01*
X-20229962Y45279120D01*
X-20221387Y45280631D01*
X-20004355Y45299619D01*
X-19995645Y45299619D01*
X-19778613Y45280631D01*
X-19770038Y45279120D01*
X-19559582Y45222728D01*
X-19551423Y45219757D01*
X-19353960Y45127680D01*
X-19346419Y45123326D01*
X-19167951Y44998362D01*
X-19161291Y44992773D01*
X-19007227Y44838709D01*
X-19001638Y44832049D01*
X-18876674Y44653581D01*
X-18872320Y44646040D01*
X-18780243Y44448577D01*
X-18777272Y44440418D01*
X-18720880Y44229962D01*
X-18719369Y44221387D01*
X-18700381Y44004355D01*
X-18700381Y43995645D01*
X-18719369Y43778613D01*
X-18720880Y43770038D01*
X-18777272Y43559582D01*
X-18780243Y43551423D01*
X-18872320Y43353960D01*
X-18876674Y43346419D01*
X-19001638Y43167951D01*
X-19007227Y43161291D01*
X-19161291Y43007227D01*
X-19167951Y43001638D01*
X-19346419Y42876674D01*
X-19353960Y42872320D01*
X-19551423Y42780243D01*
X-19559582Y42777272D01*
X-19770038Y42720880D01*
X-19778613Y42719369D01*
X-19995645Y42700381D01*
X-20004355Y42700381D01*
X-20004355Y23662355D01*
X-19797787Y23810053D01*
X-19793390Y23812861D01*
X-19495085Y23982082D01*
X-19488561Y23985182D01*
X-19307079Y24055834D01*
X-19298231Y24058367D01*
X-19107842Y24094281D01*
X-19098680Y24095146D01*
X-18904932Y24095465D01*
X-18895764Y24094631D01*
X-18705268Y24059345D01*
X-18696398Y24056838D01*
X-18515626Y23987149D01*
X-18507377Y23983058D01*
X-18342487Y23881339D01*
X-18335125Y23875798D01*
X-18191731Y23745509D01*
X-18185524Y23738723D01*
X-18068508Y23584299D01*
X-18063651Y23576484D01*
X-17977003Y23403188D01*
X-17973665Y23394611D01*
X-17920338Y23208356D01*
X-17918629Y23199299D01*
X-17900435Y23006419D01*
X-17900421Y22997203D01*
X-17917979Y22804260D01*
X-17919654Y22795215D01*
X-17972371Y22608769D01*
X-17975679Y22600186D01*
X-18061755Y22426607D01*
X-18066589Y22418771D01*
X-18183088Y22263971D01*
X-18189280Y22257155D01*
X-18332244Y22126394D01*
X-18339582Y22120834D01*
X-18508065Y22016129D01*
X-18669340Y21917047D01*
X-18683340Y21906663D01*
X-18818415Y21786886D01*
X-18830400Y21774228D01*
X-18942624Y21632814D01*
X-18952228Y21618267D01*
X-19038192Y21459511D01*
X-19045124Y21443518D01*
X-19102211Y21272255D01*
X-19106261Y21255301D01*
X-19132742Y21076725D01*
X-19133787Y21059326D01*
X-19128856Y20878857D01*
X-19126863Y20861540D01*
X-19090669Y20684671D01*
X-19085699Y20667964D01*
X-19016129Y20491935D01*
X-19016125Y20491925D01*
X-18995711Y20439486D01*
X-18992701Y20432544D01*
X-18970411Y20386036D01*
X-18967213Y20377398D01*
X-18959034Y20346914D01*
X-18955637Y20336550D01*
X-18944167Y20307087D01*
X-18941631Y20298228D01*
X-18932056Y20247468D01*
X-18930373Y20240089D01*
X-18917008Y20190280D01*
X-18915451Y20181193D01*
X-18913014Y20149737D01*
X-18911580Y20138925D01*
X-18905717Y20107843D01*
X-18904852Y20098680D01*
X-18904767Y20047012D01*
X-18904468Y20039452D01*
X-18900485Y19988042D01*
X-18900623Y19978827D01*
X-18904008Y19947456D01*
X-18904585Y19936563D01*
X-18904533Y19904932D01*
X-18905367Y19895766D01*
X-18914777Y19844967D01*
X-18915873Y19837478D01*
X-18921404Y19786202D01*
X-18923231Y19777184D01*
X-18932328Y19746947D01*
X-18934895Y19736350D01*
X-18940653Y19705267D01*
X-18943159Y19696402D01*
X-18961742Y19648199D01*
X-18964195Y19641039D01*
X-18979055Y19591649D01*
X-18982509Y19583119D01*
X-18997005Y19555072D01*
X-19001477Y19545126D01*
X-19012850Y19515624D01*
X-19016942Y19507372D01*
X-19044058Y19463417D01*
X-19047785Y19456830D01*
X-19072534Y19408947D01*
X-19074834Y19404960D01*
X-19871347Y18160827D01*
X-19887096Y18109439D01*
X-19890666Y17968361D01*
X-19891184Y17962338D01*
X-19937272Y17649204D01*
X-19938506Y17643312D01*
X-20022005Y17338002D01*
X-20023943Y17332295D01*
X-20143632Y17039282D01*
X-20146244Y17033851D01*
X-20300382Y16757396D01*
X-20303626Y16752325D01*
X-20489961Y16496467D01*
X-20493798Y16491817D01*
X-20709611Y16260290D01*
X-20713984Y16256133D01*
X-20956132Y16052307D01*
X-20960970Y16048711D01*
X-21225917Y15875560D01*
X-21231161Y15872568D01*
X-21515048Y15732616D01*
X-21520607Y15730281D01*
X-21819294Y15625569D01*
X-21825100Y15623919D01*
X-22133449Y15556144D01*
X-22141000Y15555080D01*
X-22335153Y15542726D01*
X-22335153Y-2107115D01*
X-21387842Y-2260141D01*
X-21384775Y-2260588D01*
X-20123541Y-2424402D01*
X-20120462Y-2424754D01*
X-18854639Y-2549421D01*
X-18851551Y-2549676D01*
X-17582665Y-2635045D01*
X-17579570Y-2635206D01*
X-17356487Y-2643282D01*
X-17356487Y17242393D01*
X-17549499Y17259191D01*
X-17558561Y17260832D01*
X-17745209Y17312813D01*
X-17753802Y17316087D01*
X-17927722Y17401480D01*
X-17935573Y17406281D01*
X-18090834Y17522173D01*
X-18097671Y17528336D01*
X-18228998Y17670788D01*
X-18234583Y17678098D01*
X-18337496Y17842253D01*
X-18341648Y17850477D01*
X-18412640Y18030733D01*
X-18415213Y18039588D01*
X-18451875Y18229826D01*
X-18452776Y18238987D01*
X-18453858Y18432728D01*
X-18453060Y18441900D01*
X-18418524Y18632535D01*
X-18416052Y18641413D01*
X-18346248Y18824629D01*
X-18344414Y18828845D01*
X-16550393Y22482734D01*
X-16548176Y22486769D01*
X-16445892Y22654043D01*
X-16440387Y22661418D01*
X-16310662Y22805324D01*
X-16303897Y22811561D01*
X-16149942Y22929180D01*
X-16142134Y22934075D01*
X-15969186Y23021402D01*
X-15960627Y23024773D01*
X-15863565Y23052976D01*
X-15863565Y27180255D01*
X-16112601Y27198066D01*
X-16119656Y27199080D01*
X-16363636Y27252155D01*
X-16370462Y27254160D01*
X-16604404Y27341415D01*
X-16610877Y27344371D01*
X-16830023Y27464035D01*
X-16836012Y27467884D01*
X-17035890Y27617510D01*
X-17041273Y27622175D01*
X-17217825Y27798727D01*
X-17222490Y27804110D01*
X-17372116Y28003988D01*
X-17375965Y28009977D01*
X-17495629Y28229123D01*
X-17498585Y28235596D01*
X-17585840Y28469538D01*
X-17587845Y28476364D01*
X-17640920Y28720344D01*
X-17641934Y28727399D01*
X-17659745Y28976435D01*
X-17659745Y28983565D01*
X-17641934Y29232601D01*
X-17640920Y29239656D01*
X-17587845Y29483636D01*
X-17585840Y29490462D01*
X-17498585Y29724404D01*
X-17495629Y29730877D01*
X-17375965Y29950023D01*
X-17372116Y29956012D01*
X-17222490Y30155890D01*
X-17217825Y30161273D01*
X-17041273Y30337825D01*
X-17035890Y30342490D01*
X-16836036Y30492098D01*
X-16836036Y42903189D01*
X-16845228Y42903881D01*
X-17036257Y42936199D01*
X-17045146Y42938564D01*
X-17226990Y43005437D01*
X-17235299Y43009398D01*
X-17402346Y43108895D01*
X-17408752Y43113427D01*
X-17638169Y43304413D01*
X-17642853Y43308854D01*
X-17846223Y43528354D01*
X-17850283Y43533348D01*
X-18023660Y43777237D01*
X-18027043Y43782714D01*
X-18167526Y44046913D01*
X-18170180Y44052792D01*
X-18275422Y44332881D01*
X-18277304Y44339080D01*
X-18345556Y44630389D01*
X-18346621Y44636764D01*
X-18376748Y44934468D01*
X-18376981Y44940897D01*
X-18368477Y45240011D01*
X-18367878Y45246429D01*
X-18320881Y45541941D01*
X-18319460Y45548225D01*
X-18234760Y45835210D01*
X-18232536Y45841271D01*
X-18111543Y46114937D01*
X-18108561Y46120652D01*
X-17953297Y46376435D01*
X-17949597Y46381727D01*
X-17762651Y46615361D01*
X-17758305Y46620124D01*
X-17542799Y46827706D01*
X-17537875Y46831870D01*
X-17297394Y47009943D01*
X-17291986Y47013430D01*
X-17095068Y47123087D01*
X-17095068Y52904535D01*
X-17104236Y52905369D01*
X-17294732Y52940655D01*
X-17303602Y52943162D01*
X-17484374Y53012851D01*
X-17492623Y53016942D01*
X-17657513Y53118661D01*
X-17664875Y53124202D01*
X-17808269Y53254491D01*
X-17814476Y53261277D01*
X-17931492Y53415701D01*
X-17936349Y53423516D01*
X-18022997Y53596812D01*
X-18026335Y53605389D01*
X-18079662Y53791644D01*
X-18081371Y53800701D01*
X-18099565Y53993581D01*
X-18099579Y54002797D01*
X-18082021Y54195740D01*
X-18080346Y54204785D01*
X-18027629Y54391231D01*
X-18024321Y54399814D01*
X-17938245Y54573393D01*
X-17933411Y54581229D01*
X-17816912Y54736029D01*
X-17810720Y54742845D01*
X-17667756Y54873606D01*
X-17660418Y54879166D01*
X-17491935Y54983871D01*
X-17330660Y55082953D01*
X-17316660Y55093337D01*
X-17181585Y55213114D01*
X-17169600Y55225772D01*
X-17057376Y55367186D01*
X-17047772Y55381733D01*
X-16961808Y55540489D01*
X-16954876Y55556482D01*
X-16897789Y55727745D01*
X-16893739Y55744699D01*
X-16867258Y55923275D01*
X-16866213Y55940674D01*
X-16871144Y56121143D01*
X-16873137Y56138460D01*
X-16909331Y56315329D01*
X-16914301Y56332036D01*
X-16983871Y56508065D01*
X-16983957Y56508285D01*
X-17004281Y56560491D01*
X-17007290Y56567432D01*
X-17029589Y56613961D01*
X-17032789Y56622605D01*
X-17040972Y56653102D01*
X-17044368Y56663465D01*
X-17055835Y56692920D01*
X-17058369Y56701773D01*
X-17067941Y56752514D01*
X-17069624Y56759892D01*
X-17082995Y56809727D01*
X-17084550Y56818800D01*
X-17086990Y56850285D01*
X-17088424Y56861095D01*
X-17094283Y56892156D01*
X-17095148Y56901321D01*
X-17095233Y56952963D01*
X-17095532Y56960523D01*
X-17099517Y57011959D01*
X-17099379Y57021176D01*
X-17095992Y57052567D01*
X-17095415Y57063459D01*
X-17095467Y57095068D01*
X-17094633Y57104234D01*
X-17085230Y57154997D01*
X-17084134Y57162486D01*
X-17078599Y57213800D01*
X-17076772Y57222818D01*
X-17067670Y57253068D01*
X-17065101Y57263668D01*
X-17059346Y57294738D01*
X-17056839Y57303605D01*
X-17038271Y57351768D01*
X-17035818Y57358927D01*
X-17020949Y57408346D01*
X-17017491Y57416888D01*
X-17002988Y57444947D01*
X-16998517Y57454892D01*
X-16987153Y57484370D01*
X-16983059Y57492625D01*
X-16955947Y57536575D01*
X-16952222Y57543159D01*
X-16927466Y57591051D01*
X-16925165Y57595042D01*
X-16128653Y58839173D01*
X-16112904Y58890561D01*
X-16109334Y59031639D01*
X-16108816Y59037662D01*
X-16062728Y59350796D01*
X-16061494Y59356688D01*
X-15977995Y59661998D01*
X-15976057Y59667705D01*
X-15856368Y59960718D01*
X-15853756Y59966149D01*
X-15699618Y60242604D01*
X-15696374Y60247675D01*
X-15510039Y60503533D01*
X-15506202Y60508183D01*
X-15290389Y60739710D01*
X-15286016Y60743867D01*
X-15043868Y60947693D01*
X-15039030Y60951289D01*
X-14774083Y61124440D01*
X-14768839Y61127432D01*
X-14484952Y61267384D01*
X-14479393Y61269719D01*
X-14180706Y61374431D01*
X-14174900Y61376081D01*
X-13866551Y61443856D01*
X-13859000Y61444920D01*
X-13664847Y61457274D01*
X-13655654Y61457009D01*
X-13463323Y61433573D01*
X-13454331Y61431622D01*
X-13269585Y61373245D01*
X-13261106Y61369675D01*
X-13090235Y61278347D01*
X-13082548Y61273274D01*
X-12931374Y61152109D01*
X-12924748Y61145709D01*
X-12798407Y60998823D01*
X-12793077Y60991324D01*
X-12695879Y60823726D01*
X-12692012Y60815365D01*
X-12627266Y60632761D01*
X-12625003Y60623838D01*
X-12594911Y60432437D01*
X-12594327Y60423259D01*
X-12599917Y60229598D01*
X-12601032Y60220448D01*
X-12642111Y60031115D01*
X-12644885Y60022334D01*
X-12720056Y59843769D01*
X-12724395Y59835651D01*
X-12831101Y59673934D01*
X-12836860Y59666748D01*
X-12971457Y59527400D01*
X-12978439Y59521395D01*
X-13136352Y59409148D01*
X-13144323Y59404526D01*
X-13320170Y59323209D01*
X-13328848Y59320132D01*
X-13519270Y59271844D01*
X-13522982Y59270826D01*
X-13626459Y59240303D01*
X-13650320Y59229712D01*
X-13732788Y59179304D01*
X-13753094Y59162899D01*
X-13819704Y59092866D01*
X-13835071Y59071765D01*
X-13881286Y58986879D01*
X-13890670Y58962517D01*
X-13913339Y58868563D01*
X-13916097Y58842605D01*
X-13913395Y58734730D01*
X-13913224Y58730884D01*
X-13907411Y58639525D01*
X-13907314Y58638149D01*
X-13900484Y58550010D01*
X-13900660Y58538291D01*
X-13900655Y58538081D01*
X-13900666Y58537567D01*
X-13900675Y58537441D01*
X-13901015Y58525655D01*
X-13911768Y58437411D01*
X-13911925Y58436042D01*
X-13921404Y58348177D01*
X-13923728Y58336704D01*
X-13923763Y58336492D01*
X-13923869Y58335987D01*
X-13923904Y58335850D01*
X-13926404Y58324327D01*
X-13953190Y58239558D01*
X-13953597Y58238239D01*
X-13979056Y58153621D01*
X-13983445Y58142781D01*
X-13983516Y58142584D01*
X-13983722Y58142085D01*
X-13983775Y58141972D01*
X-13988351Y58131103D01*
X-14030197Y58052811D01*
X-14030839Y58051589D01*
X-14072534Y57970921D01*
X-14074834Y57966934D01*
X-14755514Y56903730D01*
X-14769265Y56829764D01*
X-14701665Y56499418D01*
X-14700885Y56494238D01*
X-14667529Y56151904D01*
X-14667295Y56146684D01*
X-14669906Y55802731D01*
X-14670219Y55797525D01*
X-14708769Y55455727D01*
X-14709626Y55450571D01*
X-14783691Y55114681D01*
X-14785083Y55109640D01*
X-14893847Y54783345D01*
X-14895763Y54778466D01*
X-15038041Y54465322D01*
X-15040451Y54460679D01*
X-15214687Y54164115D01*
X-15217568Y54159753D01*
X-15421848Y53883029D01*
X-15425163Y53878998D01*
X-15657250Y53625140D01*
X-15660979Y53621467D01*
X-15918338Y53393253D01*
X-15922404Y53390012D01*
X-16202213Y53189947D01*
X-16206610Y53187139D01*
X-16504915Y53017918D01*
X-16511439Y53014818D01*
X-16692921Y52944166D01*
X-16701769Y52941633D01*
X-16892158Y52905719D01*
X-16901320Y52904854D01*
X-17095068Y52904535D01*
X-17095068Y47123087D01*
X-17030565Y47159007D01*
X-17024730Y47161779D01*
X-16746727Y47272436D01*
X-16740595Y47274428D01*
X-16450640Y47348321D01*
X-16444296Y47349508D01*
X-16147231Y47385403D01*
X-16140804Y47385761D01*
X-15841593Y47383058D01*
X-15835150Y47382583D01*
X-15538796Y47341328D01*
X-15532469Y47340026D01*
X-15243895Y47260906D01*
X-15237808Y47258805D01*
X-14961850Y47143144D01*
X-14956060Y47140264D01*
X-14697315Y46989990D01*
X-14691960Y46986397D01*
X-14454751Y46804021D01*
X-14449898Y46799764D01*
X-14238170Y46588317D01*
X-14233921Y46583487D01*
X-14051649Y46347061D01*
X-14047364Y46340495D01*
X-13954194Y46169841D01*
X-13950544Y46161382D01*
X-13890532Y45977171D01*
X-13888500Y45968186D01*
X-13863359Y45776090D01*
X-13863011Y45766882D01*
X-13873596Y45573429D01*
X-13874945Y45564322D01*
X-13920898Y45376105D01*
X-13923898Y45367400D01*
X-14003651Y45190836D01*
X-14008201Y45182828D01*
X-14119042Y45023922D01*
X-14124982Y45016891D01*
X-14263135Y44881055D01*
X-14270266Y44875235D01*
X-14431029Y44767099D01*
X-14439107Y44762689D01*
X-14616996Y44685935D01*
X-14625757Y44683081D01*
X-14814721Y44640321D01*
X-14823846Y44639127D01*
X-15017454Y44631817D01*
X-15026648Y44632320D01*
X-15218307Y44660711D01*
X-15227240Y44662892D01*
X-15410416Y44726016D01*
X-15418813Y44729809D01*
X-15587261Y44825512D01*
X-15594816Y44830782D01*
X-15742817Y44955811D01*
X-15749269Y44962373D01*
X-15870723Y45111179D01*
X-15879267Y45120397D01*
X-15910732Y45150332D01*
X-15947807Y45172674D01*
X-15973936Y45181454D01*
X-16016981Y45186034D01*
X-16044369Y45182949D01*
X-16085320Y45168906D01*
X-16108840Y45154533D01*
X-16140011Y45124508D01*
X-16155254Y45101544D01*
X-16170821Y45061148D01*
X-16174930Y45033892D01*
X-16171965Y44990705D01*
X-16164170Y44964267D01*
X-16143232Y44926381D01*
X-16114493Y44893814D01*
X-16105602Y44884932D01*
X-15961450Y44757991D01*
X-15955137Y44751301D01*
X-15835733Y44598713D01*
X-15830757Y44590979D01*
X-15741426Y44419054D01*
X-15737953Y44410528D01*
X-15681734Y44225115D01*
X-15679887Y44216100D01*
X-15658695Y44023516D01*
X-15658536Y44014311D01*
X-15673091Y43821118D01*
X-15674628Y43812035D01*
X-15724432Y43624812D01*
X-15727615Y43616158D01*
X-15810975Y43441270D01*
X-15815685Y43433363D01*
X-15929766Y43276766D01*
X-15935854Y43269853D01*
X-16076763Y43136887D01*
X-16084011Y43131215D01*
X-16246965Y43026398D01*
X-16255128Y43022157D01*
X-16434558Y42949072D01*
X-16443371Y42946399D01*
X-16633181Y42907526D01*
X-16642325Y42906521D01*
X-16836036Y42903189D01*
X-16836036Y30492098D01*
X-16836012Y30492116D01*
X-16830023Y30495965D01*
X-16610877Y30615629D01*
X-16604404Y30618585D01*
X-16370462Y30705840D01*
X-16363636Y30707845D01*
X-16119656Y30760920D01*
X-16112601Y30761934D01*
X-15863565Y30779745D01*
X-15856435Y30779745D01*
X-15607399Y30761934D01*
X-15600344Y30760920D01*
X-15356364Y30707845D01*
X-15349538Y30705840D01*
X-15115596Y30618585D01*
X-15109123Y30615629D01*
X-14889977Y30495965D01*
X-14883988Y30492116D01*
X-14684110Y30342490D01*
X-14678727Y30337825D01*
X-14502175Y30161273D01*
X-14497510Y30155890D01*
X-14347884Y29956012D01*
X-14344035Y29950023D01*
X-14224371Y29730877D01*
X-14221415Y29724404D01*
X-14134160Y29490462D01*
X-14132155Y29483636D01*
X-14079080Y29239656D01*
X-14078066Y29232601D01*
X-14060255Y28983565D01*
X-14060255Y28976435D01*
X-14078066Y28727399D01*
X-14079080Y28720344D01*
X-14132155Y28476364D01*
X-14134160Y28469538D01*
X-14221415Y28235596D01*
X-14224371Y28229123D01*
X-14344035Y28009977D01*
X-14347884Y28003988D01*
X-14497510Y27804110D01*
X-14502175Y27798727D01*
X-14678727Y27622175D01*
X-14684110Y27617510D01*
X-14883988Y27467884D01*
X-14889977Y27464035D01*
X-15109123Y27344371D01*
X-15115596Y27341415D01*
X-15349538Y27254160D01*
X-15356364Y27252155D01*
X-15600344Y27199080D01*
X-15607399Y27198066D01*
X-15856435Y27180255D01*
X-15863565Y27180255D01*
X-15863565Y23052976D01*
X-15774574Y23078834D01*
X-15765534Y23080576D01*
X-15572719Y23099531D01*
X-15563514Y23099582D01*
X-15370505Y23082783D01*
X-15361435Y23081140D01*
X-15174797Y23029163D01*
X-15166196Y23025886D01*
X-14992279Y22940495D01*
X-14984428Y22935694D01*
X-14829173Y22819808D01*
X-14822322Y22813632D01*
X-14691004Y22671188D01*
X-14685418Y22663876D01*
X-14582504Y22499721D01*
X-14578356Y22491505D01*
X-14507361Y22311243D01*
X-14504788Y22302388D01*
X-14468126Y22112150D01*
X-14467225Y22102989D01*
X-14466143Y21909248D01*
X-14466941Y21900075D01*
X-14501477Y21709437D01*
X-14503946Y21700568D01*
X-14573752Y21517345D01*
X-14575586Y21513129D01*
X-16369607Y17859240D01*
X-16371824Y17855205D01*
X-16474108Y17687931D01*
X-16479613Y17680556D01*
X-16609338Y17536650D01*
X-16616102Y17530413D01*
X-16770058Y17412795D01*
X-16777867Y17407899D01*
X-16950814Y17320573D01*
X-16959373Y17317202D01*
X-17145426Y17263140D01*
X-17154466Y17261398D01*
X-17347282Y17242444D01*
X-17356487Y17242393D01*
X-17356487Y-2643282D01*
X-16308477Y-2681222D01*
X-16305378Y-2681286D01*
X-15033539Y-2687893D01*
X-15030441Y-2687861D01*
X-13759008Y-2655054D01*
X-13755911Y-2654926D01*
X-12859196Y-2603947D01*
X-12859196Y17614239D01*
X-13158407Y17616942D01*
X-13164850Y17617417D01*
X-13461204Y17658672D01*
X-13467531Y17659974D01*
X-13756105Y17739094D01*
X-13762192Y17741195D01*
X-14038150Y17856856D01*
X-14043940Y17859736D01*
X-14302685Y18010010D01*
X-14308040Y18013603D01*
X-14545249Y18195979D01*
X-14550102Y18200236D01*
X-14761830Y18411683D01*
X-14766079Y18416513D01*
X-14948351Y18652939D01*
X-14952637Y18659505D01*
X-15045808Y18830160D01*
X-15049458Y18838618D01*
X-15109470Y19022830D01*
X-15111502Y19031815D01*
X-15136643Y19223911D01*
X-15136991Y19233119D01*
X-15126406Y19426572D01*
X-15125057Y19435679D01*
X-15079103Y19623895D01*
X-15076103Y19632601D01*
X-14996350Y19809165D01*
X-14991800Y19817173D01*
X-14880960Y19976079D01*
X-14875020Y19983110D01*
X-14736866Y20118946D01*
X-14729735Y20124766D01*
X-14568972Y20232902D01*
X-14560894Y20237312D01*
X-14383004Y20314066D01*
X-14374243Y20316920D01*
X-14185279Y20359679D01*
X-14176154Y20360873D01*
X-13982545Y20368184D01*
X-13973352Y20367681D01*
X-13781693Y20339290D01*
X-13772761Y20337109D01*
X-13589585Y20273984D01*
X-13581187Y20270191D01*
X-13412739Y20174489D01*
X-13405184Y20169219D01*
X-13257185Y20044192D01*
X-13250727Y20037624D01*
X-13129281Y19888826D01*
X-13120737Y19879607D01*
X-13089268Y19849668D01*
X-13052193Y19827326D01*
X-13026064Y19818546D01*
X-12983019Y19813966D01*
X-12955631Y19817051D01*
X-12914680Y19831094D01*
X-12891160Y19845467D01*
X-12859989Y19875492D01*
X-12844746Y19898456D01*
X-12829179Y19938852D01*
X-12825070Y19966108D01*
X-12828035Y20009295D01*
X-12835830Y20035733D01*
X-12856768Y20073619D01*
X-12885507Y20106186D01*
X-12894398Y20115068D01*
X-13038550Y20242009D01*
X-13044863Y20248699D01*
X-13164267Y20401287D01*
X-13169243Y20409021D01*
X-13258574Y20580946D01*
X-13262047Y20589472D01*
X-13318266Y20774885D01*
X-13320113Y20783900D01*
X-13341305Y20976484D01*
X-13341464Y20985689D01*
X-13326909Y21178882D01*
X-13325372Y21187965D01*
X-13275568Y21375188D01*
X-13272385Y21383842D01*
X-13189025Y21558730D01*
X-13184315Y21566637D01*
X-13070234Y21723234D01*
X-13064146Y21730147D01*
X-12923237Y21863113D01*
X-12915989Y21868785D01*
X-12753035Y21973602D01*
X-12744872Y21977843D01*
X-12565442Y22050928D01*
X-12556629Y22053601D01*
X-12366819Y22092474D01*
X-12357675Y22093479D01*
X-12163964Y22096811D01*
X-12154772Y22096119D01*
X-11963743Y22063801D01*
X-11954854Y22061436D01*
X-11773010Y21994563D01*
X-11764701Y21990602D01*
X-11597654Y21891105D01*
X-11591248Y21886573D01*
X-11361831Y21695587D01*
X-11357147Y21691146D01*
X-11153777Y21471646D01*
X-11149717Y21466652D01*
X-10976340Y21222763D01*
X-10972957Y21217286D01*
X-10832474Y20953087D01*
X-10829820Y20947208D01*
X-10773298Y20796781D01*
X-10773298Y21701606D01*
X-10791324Y21701745D01*
X-10881634Y21719168D01*
X-10896381Y21724537D01*
X-10956763Y21758140D01*
X-10962388Y21761786D01*
X-13496037Y23657035D01*
X-13502799Y23663132D01*
X-13567494Y23733174D01*
X-13577115Y23748421D01*
X-13610782Y23832697D01*
X-13614315Y23850377D01*
X-13615623Y23941123D01*
X-13612602Y23958891D01*
X-13581376Y24044106D01*
X-13572199Y24059623D01*
X-13513895Y24126516D01*
X-13496279Y24139389D01*
X-13369521Y24194219D01*
X-13356966Y24197786D01*
X-13303987Y24205546D01*
X-13303987Y49300000D01*
X-13312534Y49302809D01*
X-13311350Y49317299D01*
X-10787161Y54365678D01*
X-10774466Y54378480D01*
X-10768144Y54380000D01*
X-636013Y54380000D01*
X-618885Y54374370D01*
X-614698Y54369395D01*
X1912839Y49314322D01*
X1914149Y49305420D01*
X1900660Y49300000D01*
X-13303987Y49300000D01*
X-13303987Y24205546D01*
X-13065042Y24240547D01*
X-13053653Y24242898D01*
X-12784785Y24314942D01*
X-12773747Y24318600D01*
X-12515070Y24421364D01*
X-12504530Y24426279D01*
X-12259549Y24558372D01*
X-12249652Y24564477D01*
X-12136840Y24643468D01*
X-12136840Y36267449D01*
X-12155024Y36284522D01*
X-12165284Y36312711D01*
X-12167111Y36318980D01*
X-12187586Y36411335D01*
X-12188719Y36424285D01*
X-12184737Y36515508D01*
X-12182480Y36528306D01*
X-12154034Y36618527D01*
X-12151669Y36624608D01*
X-11979381Y36994081D01*
X-11976238Y36999810D01*
X-11925413Y37079589D01*
X-11917059Y37089545D01*
X-11849736Y37151235D01*
X-11839088Y37158690D01*
X-11755196Y37202362D01*
X-11749195Y37205002D01*
X-11243824Y37388942D01*
X-11238810Y37389100D01*
X-11220628Y37372029D01*
X-11091968Y37018541D01*
X-11615473Y36828001D01*
X-11790527Y36452597D01*
X-11770997Y36398939D01*
X-12131827Y36267607D01*
X-12136840Y36267449D01*
X-12136840Y24643468D01*
X-12021647Y24724128D01*
X-12012525Y24731340D01*
X-11804600Y24916377D01*
X-11796377Y24924600D01*
X-11611340Y25132525D01*
X-11604128Y25141647D01*
X-11526719Y25252198D01*
X-11526719Y30720000D01*
X-11533256Y30720429D01*
X-11665850Y30737885D01*
X-11678406Y30741249D01*
X-11798945Y30791178D01*
X-11810200Y30797676D01*
X-11913709Y30877101D01*
X-11922899Y30886291D01*
X-12002324Y30989800D01*
X-12008822Y31001055D01*
X-12058751Y31121594D01*
X-12062115Y31134150D01*
X-12079571Y31266744D01*
X-12080000Y31273281D01*
X-12080000Y31766719D01*
X-12079571Y31773256D01*
X-12062115Y31905850D01*
X-12058751Y31918406D01*
X-12008822Y32038945D01*
X-12002324Y32050200D01*
X-11922899Y32153709D01*
X-11913709Y32162899D01*
X-11810200Y32242324D01*
X-11798945Y32248822D01*
X-11678406Y32298751D01*
X-11665850Y32302115D01*
X-11533256Y32319571D01*
X-11526719Y32320000D01*
X-10942543Y32320000D01*
X-10942543Y32679483D01*
X-11052989Y32702959D01*
X-11062902Y32706180D01*
X-11225209Y32778444D01*
X-11234243Y32783660D01*
X-11377980Y32888091D01*
X-11385724Y32895064D01*
X-11504611Y33027101D01*
X-11510732Y33035526D01*
X-11599573Y33189403D01*
X-11603809Y33198918D01*
X-11658714Y33367898D01*
X-11660881Y33378090D01*
X-11679726Y33557391D01*
X-11680000Y33562622D01*
X-11680000Y33893982D01*
X-11678434Y33898747D01*
X-11663987Y33906046D01*
X-11663987Y34210005D01*
X-11668752Y34211571D01*
X-11680000Y34233833D01*
X-11680000Y34557378D01*
X-11679726Y34562609D01*
X-11660881Y34741910D01*
X-11658714Y34752102D01*
X-11603809Y34921082D01*
X-11599573Y34930597D01*
X-11510732Y35084474D01*
X-11504611Y35092899D01*
X-11385724Y35224936D01*
X-11377980Y35231909D01*
X-11266869Y35312636D01*
X-11230334Y35363284D01*
X-11230972Y35425730D01*
X-11268533Y35475621D01*
X-11321286Y35493441D01*
X-11336365Y35494099D01*
X-11349163Y35496356D01*
X-11439384Y35524802D01*
X-11445464Y35527167D01*
X-11814937Y35699455D01*
X-11820666Y35702598D01*
X-11900445Y35753423D01*
X-11910401Y35761777D01*
X-11972091Y35829100D01*
X-11979546Y35839748D01*
X-12023218Y35923640D01*
X-12025858Y35929641D01*
X-12038788Y35965166D01*
X-12038946Y35970180D01*
X-12021875Y35988362D01*
X-11668388Y36117021D01*
X-11648858Y36063363D01*
X-11273453Y35888309D01*
X-10749949Y36078849D01*
X-10618617Y35718019D01*
X-10618459Y35713005D01*
X-10635530Y35694823D01*
X-10893295Y35601004D01*
X-10942375Y35562389D01*
X-10958974Y35502186D01*
X-10935867Y35452851D01*
X-10930005Y35430364D01*
X-10930005Y35034432D01*
X-11030000Y34993013D01*
X-11133553Y34913553D01*
X-11213013Y34810000D01*
X-11262963Y34689410D01*
X-11280000Y34560000D01*
X-11280000Y34210005D01*
X-11663987Y34210005D01*
X-11663987Y33906046D01*
X-11656172Y33909995D01*
X-11280000Y33909995D01*
X-11280000Y33560000D01*
X-11262963Y33430590D01*
X-11213013Y33310000D01*
X-11133553Y33206447D01*
X-11030000Y33126987D01*
X-10930005Y33085568D01*
X-10930005Y32692831D01*
X-10934242Y32679941D01*
X-10934361Y32679856D01*
X-10942543Y32679483D01*
X-10942543Y32320000D01*
X-10614333Y32320000D01*
X-10614333Y32680147D01*
X-10627822Y32681611D01*
X-10627929Y32681710D01*
X-10629995Y32689636D01*
X-10629995Y33085568D01*
X-10530000Y33126987D01*
X-10426447Y33206447D01*
X-10346987Y33310000D01*
X-10297037Y33430590D01*
X-10280000Y33560000D01*
X-10280000Y33909995D01*
X-10280000Y34210005D01*
X-10280000Y34560000D01*
X-10297037Y34689410D01*
X-10346987Y34810000D01*
X-10426447Y34913553D01*
X-10530000Y34993013D01*
X-10629995Y35034432D01*
X-10629995Y35427169D01*
X-10625758Y35440059D01*
X-10625639Y35440144D01*
X-10617457Y35440517D01*
X-10507011Y35417041D01*
X-10497098Y35413820D01*
X-10334791Y35341556D01*
X-10325757Y35336340D01*
X-10321190Y35333021D01*
X-10321190Y35810900D01*
X-10339372Y35827971D01*
X-10468032Y36181459D01*
X-9944527Y36371999D01*
X-9891612Y36485475D01*
X-9891612Y37082979D01*
X-9911142Y37136637D01*
X-10286547Y37311691D01*
X-10810051Y37121151D01*
X-10941383Y37481981D01*
X-10941541Y37486995D01*
X-10924470Y37505177D01*
X-10426435Y37686447D01*
X-10420159Y37688276D01*
X-10327809Y37708750D01*
X-10314859Y37709883D01*
X-10223635Y37705901D01*
X-10210837Y37703644D01*
X-10120616Y37675198D01*
X-10114536Y37672833D01*
X-9745063Y37500545D01*
X-9739334Y37497402D01*
X-9659555Y37446577D01*
X-9649599Y37438223D01*
X-9587909Y37370900D01*
X-9580454Y37360252D01*
X-9536782Y37276360D01*
X-9534142Y37270359D01*
X-9521212Y37234834D01*
X-9521054Y37229820D01*
X-9538125Y37211638D01*
X-9891612Y37082979D01*
X-9891612Y36485475D01*
X-9769473Y36747403D01*
X-9789003Y36801061D01*
X-9428173Y36932393D01*
X-9423160Y36932551D01*
X-9404976Y36915478D01*
X-9394716Y36887289D01*
X-9392889Y36881020D01*
X-9372414Y36788665D01*
X-9371281Y36775715D01*
X-9375263Y36684492D01*
X-9377520Y36671694D01*
X-9405966Y36581473D01*
X-9408331Y36575392D01*
X-9580619Y36205919D01*
X-9583762Y36200190D01*
X-9634587Y36120411D01*
X-9642941Y36110455D01*
X-9710264Y36048765D01*
X-9720912Y36041310D01*
X-9804804Y35997638D01*
X-9810805Y35994998D01*
X-10316176Y35811058D01*
X-10321190Y35810900D01*
X-10321190Y35333021D01*
X-10182020Y35231909D01*
X-10174276Y35224936D01*
X-10055389Y35092899D01*
X-10049268Y35084474D01*
X-9960427Y34930597D01*
X-9956191Y34921082D01*
X-9901286Y34752102D01*
X-9899119Y34741910D01*
X-9880274Y34562609D01*
X-9880000Y34557378D01*
X-9880000Y34226018D01*
X-9881566Y34221253D01*
X-9903828Y34210005D01*
X-10280000Y34210005D01*
X-10280000Y33909995D01*
X-9896013Y33909995D01*
X-9891248Y33908429D01*
X-9880000Y33886167D01*
X-9880000Y33562622D01*
X-9880274Y33557391D01*
X-9899119Y33378090D01*
X-9901286Y33367898D01*
X-9956191Y33198918D01*
X-9960427Y33189403D01*
X-10049268Y33035526D01*
X-10055389Y33027101D01*
X-10174276Y32895064D01*
X-10182020Y32888091D01*
X-10325757Y32783660D01*
X-10334791Y32778444D01*
X-10497098Y32706180D01*
X-10507011Y32702959D01*
X-10614333Y32680147D01*
X-10614333Y32320000D01*
X-10033281Y32320000D01*
X-10026744Y32319571D01*
X-9894150Y32302115D01*
X-9881594Y32298751D01*
X-9761055Y32248822D01*
X-9749800Y32242324D01*
X-9646291Y32162899D01*
X-9637101Y32153709D01*
X-9557676Y32050200D01*
X-9551178Y32038945D01*
X-9501249Y31918406D01*
X-9497885Y31905850D01*
X-9480429Y31773256D01*
X-9480000Y31766719D01*
X-9480000Y31273281D01*
X-9480429Y31266744D01*
X-9497885Y31134150D01*
X-9501249Y31121594D01*
X-9551178Y31001055D01*
X-9557676Y30989800D01*
X-9637101Y30886291D01*
X-9646291Y30877101D01*
X-9749800Y30797676D01*
X-9761055Y30791178D01*
X-9881594Y30741249D01*
X-9894150Y30737885D01*
X-10026744Y30720429D01*
X-10033281Y30720000D01*
X-11526719Y30720000D01*
X-11526719Y25252198D01*
X-11444477Y25369652D01*
X-11438372Y25379549D01*
X-11306279Y25624530D01*
X-11301364Y25635070D01*
X-11198600Y25893747D01*
X-11194942Y25904785D01*
X-11122898Y26173653D01*
X-11120547Y26185042D01*
X-11077495Y26478952D01*
X-11075356Y26487813D01*
X-11044617Y26578066D01*
X-11035801Y26593787D01*
X-10977521Y26663837D01*
X-10964282Y26675019D01*
X-10888674Y26718899D01*
X-10881089Y26722487D01*
X-10529889Y26853751D01*
X-10527453Y26854591D01*
X-10500548Y26863102D01*
X-10498090Y26863810D01*
X-10132452Y26959130D01*
X-10129939Y26959716D01*
X-10102310Y26965423D01*
X-10099790Y26965876D01*
X-9726280Y27023225D01*
X-9723769Y27023545D01*
X-9695695Y27026391D01*
X-9693114Y27026586D01*
X-9315703Y27045353D01*
X-9313180Y27045414D01*
X-9284941Y27045367D01*
X-9282378Y27045297D01*
X-8905041Y27025286D01*
X-8902478Y27025083D01*
X-8874444Y27022148D01*
X-8871857Y27021810D01*
X-8498574Y26963235D01*
X-8496067Y26962776D01*
X-8468455Y26956978D01*
X-8465935Y26956381D01*
X-8236069Y26895646D01*
X-8236069Y31120000D01*
X-8243882Y31120615D01*
X-8263317Y31123693D01*
X-8278960Y31124924D01*
X-8294700Y31124924D01*
X-8310064Y31127358D01*
X-8325028Y31132220D01*
X-8340288Y31135884D01*
X-8355835Y31138346D01*
X-8370614Y31143148D01*
X-8384640Y31150295D01*
X-8399138Y31156300D01*
X-8414111Y31161165D01*
X-8427961Y31168222D01*
X-8440698Y31177476D01*
X-8454077Y31185675D01*
X-8468103Y31192821D01*
X-8480681Y31201960D01*
X-8491808Y31213087D01*
X-8503740Y31223278D01*
X-8516477Y31232532D01*
X-8527468Y31243523D01*
X-8536722Y31256260D01*
X-8546913Y31268192D01*
X-8558040Y31279319D01*
X-8567179Y31291897D01*
X-8574325Y31305923D01*
X-8582524Y31319302D01*
X-8591778Y31332039D01*
X-8598835Y31345889D01*
X-8603700Y31360862D01*
X-8609705Y31375360D01*
X-8616852Y31389386D01*
X-8621654Y31404165D01*
X-8624116Y31419712D01*
X-8627780Y31434972D01*
X-8632642Y31449936D01*
X-8635076Y31465300D01*
X-8635076Y31481040D01*
X-8636307Y31496683D01*
X-8638769Y31512228D01*
X-8638769Y31527774D01*
X-8636307Y31543319D01*
X-8635076Y31558961D01*
X-8635076Y31574700D01*
X-8632642Y31590064D01*
X-8627780Y31605028D01*
X-8624116Y31620288D01*
X-8621654Y31635835D01*
X-8616852Y31650614D01*
X-8609705Y31664640D01*
X-8603700Y31679138D01*
X-8598835Y31694111D01*
X-8591778Y31707961D01*
X-8582524Y31720698D01*
X-8574325Y31734077D01*
X-8567179Y31748103D01*
X-8558040Y31760681D01*
X-8546913Y31771808D01*
X-8536722Y31783740D01*
X-8525151Y31799667D01*
X-8520066Y31805620D01*
X-6946066Y33379620D01*
X-6946066Y37740000D01*
X-6953880Y37740615D01*
X-6972614Y37743582D01*
X-6988545Y37744813D01*
X-7003562Y37744770D01*
X-7018922Y37747157D01*
X-7034587Y37752197D01*
X-7049573Y37755771D01*
X-7065832Y37758346D01*
X-7080619Y37763150D01*
X-7093999Y37769968D01*
X-7108773Y37776063D01*
X-7126822Y37781870D01*
X-7134069Y37784847D01*
X-7221506Y37829080D01*
X-7229984Y37834241D01*
X-7276107Y37867752D01*
X-7276341Y37867922D01*
X-7322511Y37901263D01*
X-7330063Y37907712D01*
X-7372288Y37949937D01*
X-7378733Y37957482D01*
X-7411996Y38003544D01*
X-7412165Y38003778D01*
X-7445758Y38050015D01*
X-7451103Y38058795D01*
X-7498610Y38099330D01*
X-7560901Y38103776D01*
X-7613683Y38070399D01*
X-7631319Y38031240D01*
X-7632580Y38031650D01*
X-7639815Y38009383D01*
X-7689487Y37911896D01*
X-7698623Y37899322D01*
X-7775988Y37821957D01*
X-7788562Y37812821D01*
X-7886049Y37763149D01*
X-7900830Y37758346D01*
X-8008894Y37741231D01*
X-8024438Y37741231D01*
X-8132502Y37758346D01*
X-8147283Y37763149D01*
X-8244770Y37812821D01*
X-8257344Y37821957D01*
X-8334709Y37899322D01*
X-8343845Y37911896D01*
X-8393517Y38009383D01*
X-8398320Y38024164D01*
X-8416051Y38136118D01*
X-8416666Y38143931D01*
X-8416666Y39136069D01*
X-8416051Y39143882D01*
X-8398320Y39255836D01*
X-8393517Y39270617D01*
X-8343845Y39368104D01*
X-8334709Y39380678D01*
X-8257344Y39458043D01*
X-8244770Y39467179D01*
X-8147283Y39516851D01*
X-8132502Y39521654D01*
X-8020548Y39539385D01*
X-8012735Y39540000D01*
X-7543930Y39540000D01*
X-7536117Y39539385D01*
X-7424163Y39521654D01*
X-7409382Y39516851D01*
X-7311895Y39467179D01*
X-7299321Y39458043D01*
X-7221956Y39380678D01*
X-7212820Y39368104D01*
X-7163149Y39270620D01*
X-7159395Y39259064D01*
X-7122518Y39208665D01*
X-7033662Y39194768D01*
X-7018921Y39199511D01*
X-7003559Y39201898D01*
X-6988539Y39201855D01*
X-6972609Y39203086D01*
X-6953882Y39206052D01*
X-6946066Y39206667D01*
X-6810597Y39206667D01*
X-6802783Y39206052D01*
X-6785211Y39203269D01*
X-6768808Y39202041D01*
X-6754964Y39202146D01*
X-6739591Y39199831D01*
X-6722785Y39194511D01*
X-6708246Y39191079D01*
X-6690834Y39188322D01*
X-6676049Y39183518D01*
X-6663705Y39177228D01*
X-6648484Y39170991D01*
X-6631517Y39165620D01*
X-6624270Y39162683D01*
X-6535743Y39118419D01*
X-6525667Y39112349D01*
X-6525605Y39112452D01*
X-6480310Y39079543D01*
X-6479699Y39079103D01*
X-6474248Y39075205D01*
X-6414647Y39056557D01*
X-6357535Y39075477D01*
X-6352719Y39078955D01*
X-6352487Y39079123D01*
X-6306643Y39112431D01*
X-6298173Y39117587D01*
X-6210739Y39161818D01*
X-6203482Y39164800D01*
X-6185442Y39170604D01*
X-6170671Y39176697D01*
X-6157285Y39183517D01*
X-6142500Y39188321D01*
X-6126240Y39190896D01*
X-6111253Y39194471D01*
X-6095591Y39199510D01*
X-6080226Y39201898D01*
X-6065206Y39201855D01*
X-6049276Y39203086D01*
X-6030549Y39206052D01*
X-6022733Y39206667D01*
X-5887264Y39206667D01*
X-5879450Y39206052D01*
X-5861878Y39203269D01*
X-5845475Y39202041D01*
X-5831631Y39202146D01*
X-5816258Y39199831D01*
X-5799452Y39194511D01*
X-5784478Y39191011D01*
X-5784296Y39190983D01*
X-5722693Y39201235D01*
X-5673985Y39258919D01*
X-5670184Y39270617D01*
X-5620512Y39368104D01*
X-5611376Y39380678D01*
X-5534011Y39458043D01*
X-5521437Y39467179D01*
X-5423950Y39516851D01*
X-5409169Y39521654D01*
X-5297215Y39539385D01*
X-5289402Y39540000D01*
X-4963931Y39540000D01*
X-4956117Y39539385D01*
X-4938545Y39536602D01*
X-4922142Y39535374D01*
X-4908298Y39535479D01*
X-4892925Y39533164D01*
X-4876119Y39527844D01*
X-4861580Y39524412D01*
X-4844168Y39521655D01*
X-4829383Y39516851D01*
X-4817039Y39510561D01*
X-4801818Y39504324D01*
X-4784851Y39498953D01*
X-4777604Y39496016D01*
X-4689077Y39451752D01*
X-4679001Y39445682D01*
X-4678939Y39445785D01*
X-4633644Y39412876D01*
X-4633028Y39412432D01*
X-4587686Y39380013D01*
X-4587763Y39379923D01*
X-4578822Y39372286D01*
X-4536606Y39330070D01*
X-4528961Y39321117D01*
X-4528821Y39321237D01*
X-4527198Y39319312D01*
X-4496042Y39275300D01*
X-4495325Y39274299D01*
X-4463497Y39230491D01*
X-4462174Y39228301D01*
X-4462328Y39228209D01*
X-4454321Y39214771D01*
X-4407202Y39173787D01*
X-4338225Y39170626D01*
X-4337063Y39170994D01*
X-4321855Y39177226D01*
X-4309506Y39183518D01*
X-4294723Y39188321D01*
X-4277313Y39191078D01*
X-4262771Y39194511D01*
X-4245971Y39199830D01*
X-4230591Y39202146D01*
X-4216747Y39202041D01*
X-4200344Y39203269D01*
X-4182772Y39206052D01*
X-4174958Y39206667D01*
X-3992820Y39206667D01*
X-3985006Y39206052D01*
X-3967434Y39203269D01*
X-3951031Y39202041D01*
X-3937187Y39202146D01*
X-3921814Y39199831D01*
X-3905008Y39194511D01*
X-3890469Y39191079D01*
X-3873057Y39188322D01*
X-3858272Y39183518D01*
X-3845928Y39177228D01*
X-3830707Y39170991D01*
X-3813740Y39165620D01*
X-3806488Y39162681D01*
X-3756031Y39137452D01*
X-3665910Y39137793D01*
X-3576172Y39183517D01*
X-3561391Y39188320D01*
X-3453327Y39205435D01*
X-3437783Y39205435D01*
X-3373078Y39195187D01*
X-3332261Y39198340D01*
X-3332255Y39198302D01*
X-3331765Y39198378D01*
X-3326809Y39198761D01*
X-3324479Y39199511D01*
X-3309117Y39201898D01*
X-3294096Y39201855D01*
X-3278166Y39203086D01*
X-3259439Y39206052D01*
X-3251623Y39206667D01*
X-3163930Y39206667D01*
X-3156117Y39206052D01*
X-3044163Y39188321D01*
X-3029382Y39183518D01*
X-2931895Y39133846D01*
X-2919321Y39124710D01*
X-2841956Y39047345D01*
X-2832820Y39034771D01*
X-2783148Y38937284D01*
X-2778345Y38922503D01*
X-2761230Y38814439D01*
X-2761230Y38798895D01*
X-2778345Y38690831D01*
X-2783148Y38676050D01*
X-2832820Y38578563D01*
X-2841956Y38565989D01*
X-2919321Y38488624D01*
X-2931900Y38479485D01*
X-2990955Y38449394D01*
X-3034963Y38405085D01*
X-3045555Y38360295D01*
X-3045555Y38143931D01*
X-3046170Y38136118D01*
X-3063901Y38024164D01*
X-3068704Y38009383D01*
X-3118376Y37911896D01*
X-3127512Y37899322D01*
X-3204877Y37821957D01*
X-3217451Y37812821D01*
X-3314938Y37763149D01*
X-3329719Y37758346D01*
X-3437783Y37741231D01*
X-3453327Y37741231D01*
X-3561388Y37758346D01*
X-3576177Y37763151D01*
X-3600156Y37775369D01*
X-3690954Y37775369D01*
X-3714933Y37763151D01*
X-3729722Y37758346D01*
X-3837783Y37741231D01*
X-3853328Y37741231D01*
X-3866303Y37743286D01*
X-3881547Y37743347D01*
X-3881539Y37744461D01*
X-3903253Y37744626D01*
X-3919656Y37743398D01*
X-3937228Y37740615D01*
X-3945042Y37740000D01*
X-4174956Y37740000D01*
X-4182767Y37740615D01*
X-4200346Y37743399D01*
X-4216750Y37744627D01*
X-4230598Y37744522D01*
X-4245962Y37746836D01*
X-4262768Y37752156D01*
X-4277303Y37755587D01*
X-4294719Y37758345D01*
X-4309509Y37763151D01*
X-4321849Y37769439D01*
X-4337073Y37775677D01*
X-4354029Y37781044D01*
X-4361290Y37783987D01*
X-4449816Y37828250D01*
X-4459890Y37834319D01*
X-4459972Y37834182D01*
X-4464040Y37836675D01*
X-4486061Y37852931D01*
X-4545373Y37872478D01*
X-4605179Y37852682D01*
X-4624574Y37838239D01*
X-4624823Y37838108D01*
X-4631150Y37834213D01*
X-4631216Y37834322D01*
X-4641292Y37828251D01*
X-4729821Y37783987D01*
X-4737083Y37781043D01*
X-4754041Y37775675D01*
X-4769262Y37769437D01*
X-4781599Y37763151D01*
X-4796387Y37758346D01*
X-4813806Y37755587D01*
X-4828340Y37752156D01*
X-4845148Y37746836D01*
X-4860520Y37744521D01*
X-4874364Y37744626D01*
X-4890767Y37743398D01*
X-4908339Y37740615D01*
X-4916153Y37740000D01*
X-5289402Y37740000D01*
X-5297215Y37740615D01*
X-5409169Y37758346D01*
X-5423950Y37763149D01*
X-5521438Y37812822D01*
X-5521942Y37813188D01*
X-5522523Y37813375D01*
X-5528447Y37816393D01*
X-5528935Y37815434D01*
X-5581400Y37832286D01*
X-5625443Y37821731D01*
X-5700932Y37783987D01*
X-5708194Y37781043D01*
X-5725152Y37775675D01*
X-5740373Y37769437D01*
X-5752710Y37763151D01*
X-5767498Y37758346D01*
X-5784917Y37755587D01*
X-5799451Y37752156D01*
X-5816259Y37746836D01*
X-5831631Y37744521D01*
X-5845475Y37744626D01*
X-5861878Y37743398D01*
X-5879450Y37740615D01*
X-5887264Y37740000D01*
X-6022733Y37740000D01*
X-6030547Y37740615D01*
X-6049281Y37743582D01*
X-6065212Y37744813D01*
X-6080229Y37744770D01*
X-6095589Y37747157D01*
X-6111254Y37752197D01*
X-6126240Y37755771D01*
X-6142499Y37758346D01*
X-6157286Y37763150D01*
X-6170666Y37769968D01*
X-6185440Y37776063D01*
X-6203489Y37781870D01*
X-6210736Y37784847D01*
X-6298173Y37829080D01*
X-6306651Y37834241D01*
X-6352774Y37867752D01*
X-6353006Y37867920D01*
X-6357534Y37871190D01*
X-6417047Y37890115D01*
X-6474245Y37871463D01*
X-6479727Y37867543D01*
X-6480340Y37867102D01*
X-6525605Y37834215D01*
X-6525667Y37834318D01*
X-6535743Y37828248D01*
X-6624265Y37783987D01*
X-6631527Y37781043D01*
X-6648485Y37775675D01*
X-6663706Y37769437D01*
X-6676043Y37763151D01*
X-6690831Y37758346D01*
X-6708250Y37755587D01*
X-6722784Y37752156D01*
X-6739592Y37746836D01*
X-6754964Y37744521D01*
X-6768808Y37744626D01*
X-6785211Y37743398D01*
X-6802783Y37740615D01*
X-6810597Y37740000D01*
X-6946066Y37740000D01*
X-6946066Y33379620D01*
X-5985620Y34340066D01*
X-5979666Y34345151D01*
X-5887962Y34411778D01*
X-5874114Y34418834D01*
X-5770057Y34452645D01*
X-5754705Y34455076D01*
X-5645295Y34455076D01*
X-5629943Y34452645D01*
X-5525886Y34418834D01*
X-5512038Y34411778D01*
X-5420334Y34345151D01*
X-5414380Y34340066D01*
X-2879934Y31805620D01*
X-2874849Y31799667D01*
X-2863278Y31783740D01*
X-2853087Y31771808D01*
X-2841960Y31760681D01*
X-2832821Y31748103D01*
X-2825675Y31734077D01*
X-2817476Y31720698D01*
X-2808222Y31707961D01*
X-2801165Y31694111D01*
X-2796300Y31679138D01*
X-2790295Y31664640D01*
X-2783148Y31650614D01*
X-2778346Y31635835D01*
X-2775884Y31620288D01*
X-2772220Y31605028D01*
X-2767358Y31590064D01*
X-2764924Y31574700D01*
X-2764924Y31558961D01*
X-2763693Y31543319D01*
X-2761231Y31527774D01*
X-2761231Y31512226D01*
X-2763693Y31496681D01*
X-2764924Y31481039D01*
X-2764924Y31465300D01*
X-2767358Y31449936D01*
X-2772220Y31434972D01*
X-2775884Y31419712D01*
X-2778346Y31404165D01*
X-2783148Y31389386D01*
X-2790295Y31375360D01*
X-2796300Y31360862D01*
X-2801165Y31345889D01*
X-2808222Y31332039D01*
X-2817476Y31319302D01*
X-2825675Y31305923D01*
X-2832821Y31291897D01*
X-2841960Y31279319D01*
X-2853087Y31268192D01*
X-2863278Y31256260D01*
X-2872532Y31243523D01*
X-2883523Y31232532D01*
X-2896260Y31223278D01*
X-2908192Y31213087D01*
X-2919319Y31201960D01*
X-2931897Y31192821D01*
X-2945923Y31185675D01*
X-2959302Y31177476D01*
X-2972039Y31168222D01*
X-2985889Y31161165D01*
X-3000862Y31156300D01*
X-3015360Y31150295D01*
X-3029386Y31143148D01*
X-3044165Y31138346D01*
X-3059712Y31135884D01*
X-3074972Y31132220D01*
X-3089936Y31127358D01*
X-3105300Y31124924D01*
X-3121040Y31124924D01*
X-3136683Y31123693D01*
X-3156118Y31120615D01*
X-3163931Y31120000D01*
X-8236069Y31120000D01*
X-8236069Y26895646D01*
X-8100613Y26859857D01*
X-8098165Y26859142D01*
X-8071292Y26850544D01*
X-8068849Y26849692D01*
X-7715358Y26716241D01*
X-7712967Y26715268D01*
X-7687136Y26703970D01*
X-7684779Y26702867D01*
X-7346829Y26533891D01*
X-7344560Y26532683D01*
X-7319973Y26518769D01*
X-7317825Y26517480D01*
X-6998919Y26314725D01*
X-6996812Y26313308D01*
X-6973794Y26296958D01*
X-6971738Y26295417D01*
X-6675314Y26061066D01*
X-6673365Y26059441D01*
X-6652147Y26040819D01*
X-6650249Y26039065D01*
X-6379433Y25775595D01*
X-6377628Y25773747D01*
X-6358436Y25753056D01*
X-6356756Y25751149D01*
X-6114318Y25461253D01*
X-6112754Y25459282D01*
X-6095773Y25436717D01*
X-6094281Y25434626D01*
X-5882859Y25121452D01*
X-5881489Y25119307D01*
X-5866897Y25095101D01*
X-5865651Y25092907D01*
X-5687427Y24759695D01*
X-5686277Y24757407D01*
X-5674267Y24731883D01*
X-5673220Y24729501D01*
X-5530110Y24379841D01*
X-5529182Y24377398D01*
X-5519858Y24350799D01*
X-5519066Y24348339D01*
X-5413461Y23988971D01*
X-5411701Y23980034D01*
X-5401898Y23885191D01*
X-5403336Y23867223D01*
X-5426901Y23779580D01*
X-5434668Y23763314D01*
X-5487744Y23690261D01*
X-5501561Y23677373D01*
X-5590642Y23621676D01*
X-5599617Y23617248D01*
X-10670620Y21720612D01*
X-10679410Y21718213D01*
X-10773298Y21701606D01*
X-10773298Y20796781D01*
X-10724578Y20667119D01*
X-10722696Y20660920D01*
X-10654444Y20369611D01*
X-10653379Y20363236D01*
X-10623252Y20065532D01*
X-10623019Y20059103D01*
X-10631523Y19759989D01*
X-10632122Y19753571D01*
X-10679119Y19458059D01*
X-10680540Y19451775D01*
X-10765240Y19164790D01*
X-10767464Y19158729D01*
X-10888457Y18885063D01*
X-10891439Y18879348D01*
X-11046703Y18623565D01*
X-11050403Y18618273D01*
X-11237349Y18384639D01*
X-11241695Y18379876D01*
X-11457201Y18172294D01*
X-11462125Y18168130D01*
X-11702606Y17990057D01*
X-11708014Y17986570D01*
X-11969435Y17840993D01*
X-11975270Y17838221D01*
X-12253273Y17727564D01*
X-12259405Y17725572D01*
X-12549360Y17651679D01*
X-12555704Y17650492D01*
X-12852769Y17614597D01*
X-12859196Y17614239D01*
X-12859196Y-2603947D01*
X-12486118Y-2582738D01*
X-12483027Y-2582514D01*
X-11216017Y-2471007D01*
X-11212935Y-2470687D01*
X-9950118Y-2319989D01*
X-9947047Y-2319575D01*
X-8689354Y-2129797D01*
X-8686297Y-2129287D01*
X-7435192Y-1900646D01*
X-7432152Y-1900042D01*
X-6188678Y-1632731D01*
X-6185659Y-1632032D01*
X-4951116Y-1326330D01*
X-4948120Y-1325539D01*
X-3723586Y-981714D01*
X-3720615Y-980830D01*
X-2507347Y-599233D01*
X-2504406Y-598258D01*
X-1303554Y-179253D01*
X-1300644Y-178186D01*
X-1252550Y-159714D01*
X-1252550Y30485000D01*
X-1257443Y30485241D01*
X-1452025Y30504405D01*
X-1461622Y30506314D01*
X-1646370Y30562357D01*
X-1655415Y30566104D01*
X-1825679Y30657111D01*
X-1833813Y30662546D01*
X-1983058Y30785027D01*
X-1989973Y30791942D01*
X-2112454Y30941187D01*
X-2117889Y30949321D01*
X-2208896Y31119585D01*
X-2212643Y31128630D01*
X-2268686Y31313378D01*
X-2270595Y31322975D01*
X-2273656Y31354058D01*
X-2270703Y31367302D01*
X-2268330Y31369368D01*
X-2265227Y31369995D01*
X-2259213Y31369995D01*
X-2259213Y31670005D01*
X-2272103Y31674242D01*
X-2273924Y31676804D01*
X-2274245Y31679963D01*
X-2270595Y31717025D01*
X-2268686Y31726622D01*
X-2212643Y31911370D01*
X-2208896Y31920415D01*
X-2117889Y32090679D01*
X-2112454Y32098813D01*
X-1989973Y32248058D01*
X-1983058Y32254973D01*
X-1833813Y32377454D01*
X-1825679Y32382889D01*
X-1655415Y32473896D01*
X-1646370Y32477643D01*
X-1461622Y32533686D01*
X-1452025Y32535595D01*
X-1257443Y32554759D01*
X-1252550Y32555000D01*
X-786018Y32555000D01*
X-781253Y32553434D01*
X-770005Y32531172D01*
X-770005Y32155000D01*
X-1255000Y32155000D01*
X-1406965Y32136548D01*
X-1550099Y32082265D01*
X-1676083Y31995304D01*
X-1777595Y31880721D01*
X-1848735Y31745174D01*
X-1867263Y31670005D01*
X-2259213Y31670005D01*
X-2259213Y31369995D01*
X-1867263Y31369995D01*
X-1848735Y31294826D01*
X-1777595Y31159279D01*
X-1676083Y31044696D01*
X-1550099Y30957735D01*
X-1406965Y30903452D01*
X-1255000Y30885000D01*
X-770005Y30885000D01*
X-770005Y30501013D01*
X-771571Y30496248D01*
X-793833Y30485000D01*
X-1252550Y30485000D01*
X-1252550Y-159714D01*
X-453982Y147000D01*
X-453982Y30485000D01*
X-458747Y30486566D01*
X-469995Y30508828D01*
X-469995Y30885000D01*
X15000Y30885000D01*
X166965Y30903452D01*
X310099Y30957735D01*
X436083Y31044696D01*
X537595Y31159279D01*
X608735Y31294826D01*
X627263Y31369995D01*
X627263Y31670005D01*
X608735Y31745174D01*
X537595Y31880721D01*
X436083Y31995304D01*
X310099Y32082265D01*
X166965Y32136548D01*
X15000Y32155000D01*
X-469995Y32155000D01*
X-469995Y32538987D01*
X-468429Y32543752D01*
X-446167Y32555000D01*
X12550Y32555000D01*
X17443Y32554759D01*
X212025Y32535595D01*
X221622Y32533686D01*
X406370Y32477643D01*
X415415Y32473896D01*
X585679Y32382889D01*
X593813Y32377454D01*
X743058Y32254973D01*
X749973Y32248058D01*
X872454Y32098813D01*
X877889Y32090679D01*
X968896Y31920415D01*
X972643Y31911370D01*
X1028686Y31726622D01*
X1030595Y31717025D01*
X1033656Y31685942D01*
X1030703Y31672698D01*
X1028330Y31670632D01*
X1025227Y31670005D01*
X627263Y31670005D01*
X627263Y31369995D01*
X1019213Y31369995D01*
X1032103Y31365758D01*
X1033924Y31363196D01*
X1034245Y31360037D01*
X1030595Y31322975D01*
X1028686Y31313378D01*
X972643Y31128630D01*
X968896Y31119585D01*
X877889Y30949321D01*
X872454Y30941187D01*
X749973Y30791942D01*
X743058Y30785027D01*
X593813Y30662546D01*
X585679Y30657111D01*
X415415Y30566104D01*
X406370Y30562357D01*
X221622Y30506314D01*
X212025Y30504405D01*
X17443Y30485241D01*
X12550Y30485000D01*
X-453982Y30485000D01*
X-453982Y147000D01*
X-110471Y278937D01*
X-104542Y280800D01*
X-38266Y297175D01*
X-32142Y298289D01*
X9927703Y1476334D01*
X9927703Y31354739D01*
X9915774Y31356188D01*
X9775385Y31390790D01*
X9764149Y31395051D01*
X9636113Y31462249D01*
X9626230Y31469072D01*
X9517994Y31564960D01*
X9510034Y31573945D01*
X9427888Y31692955D01*
X9422310Y31703583D01*
X9371031Y31838793D01*
X9368159Y31850446D01*
X9350729Y31993996D01*
X9350729Y32006004D01*
X9368159Y32149554D01*
X9371031Y32161207D01*
X9422310Y32296417D01*
X9427888Y32307045D01*
X9510034Y32426055D01*
X9517994Y32435040D01*
X9626230Y32530928D01*
X9636113Y32537751D01*
X9764149Y32604949D01*
X9775385Y32609210D01*
X9915774Y32643812D01*
X9927703Y32645261D01*
X10072297Y32645261D01*
X10084226Y32643812D01*
X10224615Y32609210D01*
X10235851Y32604949D01*
X10363887Y32537751D01*
X10373770Y32530928D01*
X10482006Y32435040D01*
X10489966Y32426055D01*
X10572112Y32307045D01*
X10577690Y32296417D01*
X10628969Y32161207D01*
X10631841Y32149554D01*
X10649271Y32006004D01*
X10649271Y31993996D01*
X10631841Y31850446D01*
X10628969Y31838793D01*
X10577690Y31703583D01*
X10572112Y31692955D01*
X10489966Y31573945D01*
X10482006Y31564960D01*
X10373770Y31469072D01*
X10363887Y31462249D01*
X10235851Y31395051D01*
X10224615Y31390790D01*
X10084226Y31356188D01*
X10072297Y31354739D01*
X9927703Y31354739D01*
X9927703Y1476334D01*
X13927703Y1949452D01*
X13927703Y31354739D01*
X13915774Y31356188D01*
X13775385Y31390790D01*
X13764149Y31395051D01*
X13636113Y31462249D01*
X13626230Y31469072D01*
X13517994Y31564960D01*
X13510034Y31573945D01*
X13427888Y31692955D01*
X13422310Y31703583D01*
X13371031Y31838793D01*
X13368159Y31850446D01*
X13350729Y31993996D01*
X13350729Y32006004D01*
X13368159Y32149554D01*
X13371031Y32161207D01*
X13422310Y32296417D01*
X13427888Y32307045D01*
X13510034Y32426055D01*
X13517994Y32435040D01*
X13626230Y32530928D01*
X13636113Y32537751D01*
X13764149Y32604949D01*
X13775385Y32609210D01*
X13915774Y32643812D01*
X13927703Y32645261D01*
X14072297Y32645261D01*
X14084226Y32643812D01*
X14224615Y32609210D01*
X14235851Y32604949D01*
X14363887Y32537751D01*
X14373770Y32530928D01*
X14482006Y32435040D01*
X14489966Y32426055D01*
X14572112Y32307045D01*
X14577690Y32296417D01*
X14628969Y32161207D01*
X14631841Y32149554D01*
X14649271Y32006004D01*
X14649271Y31993996D01*
X14631841Y31850446D01*
X14628969Y31838793D01*
X14577690Y31703583D01*
X14572112Y31692955D01*
X14489966Y31573945D01*
X14482006Y31564960D01*
X14373770Y31469072D01*
X14363887Y31462249D01*
X14235851Y31395051D01*
X14224615Y31390790D01*
X14084226Y31356188D01*
X14072297Y31354739D01*
X13927703Y31354739D01*
X13927703Y1949452D01*
X17927703Y2422570D01*
X17927703Y31354739D01*
X17915774Y31356188D01*
X17775385Y31390790D01*
X17764149Y31395051D01*
X17636113Y31462249D01*
X17626230Y31469072D01*
X17517994Y31564960D01*
X17510034Y31573945D01*
X17427888Y31692955D01*
X17422310Y31703583D01*
X17371031Y31838793D01*
X17368159Y31850446D01*
X17350729Y31993996D01*
X17350729Y32006004D01*
X17368159Y32149554D01*
X17371031Y32161207D01*
X17422310Y32296417D01*
X17427888Y32307045D01*
X17510034Y32426055D01*
X17517994Y32435040D01*
X17626230Y32530928D01*
X17636113Y32537751D01*
X17764149Y32604949D01*
X17775385Y32609210D01*
X17915774Y32643812D01*
X17927703Y32645261D01*
X18072297Y32645261D01*
X18084226Y32643812D01*
X18224615Y32609210D01*
X18235851Y32604949D01*
X18363887Y32537751D01*
X18373770Y32530928D01*
X18482006Y32435040D01*
X18489966Y32426055D01*
X18572112Y32307045D01*
X18577690Y32296417D01*
X18628969Y32161207D01*
X18631841Y32149554D01*
X18649271Y32006004D01*
X18649271Y31993996D01*
X18631841Y31850446D01*
X18628969Y31838793D01*
X18577690Y31703583D01*
X18572112Y31692955D01*
X18489966Y31573945D01*
X18482006Y31564960D01*
X18373770Y31469072D01*
X18363887Y31462249D01*
X18235851Y31395051D01*
X18224615Y31390790D01*
X18084226Y31356188D01*
X18072297Y31354739D01*
X17927703Y31354739D01*
X17927703Y2422570D01*
X28004572Y3614458D01*
X28004572Y20700000D01*
X27995502Y20700832D01*
X27901747Y20718166D01*
X27884908Y20724613D01*
X27807466Y20771932D01*
X27794049Y20783972D01*
X27739481Y20854769D01*
X27730579Y20873350D01*
X27701391Y20994240D01*
X27700000Y21005926D01*
X27700000Y32995428D01*
X27700832Y33004498D01*
X27717947Y33097070D01*
X27725656Y33115850D01*
X27793577Y33215944D01*
X27801061Y33224625D01*
X28140035Y33536673D01*
X28141584Y33538040D01*
X28158926Y33552729D01*
X28160528Y33554030D01*
X28527855Y33839933D01*
X28529506Y33841164D01*
X28547994Y33854364D01*
X28549731Y33855550D01*
X28939416Y34110144D01*
X28941112Y34111203D01*
X28960670Y34122856D01*
X28962486Y34123888D01*
X29371833Y34345415D01*
X29373652Y34346352D01*
X29394104Y34356351D01*
X29395977Y34357219D01*
X29822244Y34544197D01*
X29824107Y34544969D01*
X29845334Y34553252D01*
X29847242Y34553951D01*
X30287523Y34705100D01*
X30289459Y34705720D01*
X30311290Y34712220D01*
X30313231Y34712754D01*
X30764481Y34827026D01*
X30766487Y34827490D01*
X30788731Y34832154D01*
X30790779Y34832539D01*
X31249905Y34909153D01*
X31251917Y34909446D01*
X31274467Y34912257D01*
X31276583Y34912477D01*
X31384327Y34921404D01*
X31441842Y34945736D01*
X31473705Y34999445D01*
X31471852Y35049796D01*
X30724904Y37539622D01*
X30689179Y37590843D01*
X30629122Y37610886D01*
X23842384Y37610886D01*
X23835875Y37611312D01*
X23703255Y37628771D01*
X23690713Y37632132D01*
X23570168Y37682064D01*
X23558914Y37688562D01*
X23452801Y37769985D01*
X23447892Y37774290D01*
X22661471Y38560711D01*
X22590761Y38590000D01*
X537936Y38590000D01*
X482239Y38573053D01*
X468722Y38563989D01*
X463526Y38560942D01*
X331074Y38493677D01*
X328337Y38492390D01*
X297890Y38479176D01*
X295048Y38478043D01*
X147182Y38424225D01*
X98102Y38385610D01*
X81502Y38325407D01*
X103856Y38267096D01*
X147181Y38236289D01*
X381784Y38150900D01*
X387784Y38148260D01*
X448522Y38116642D01*
X459170Y38109186D01*
X507246Y38065133D01*
X515598Y38055178D01*
X552397Y37997417D01*
X555539Y37991690D01*
X902883Y37246808D01*
X905248Y37240728D01*
X925844Y37175405D01*
X928101Y37162605D01*
X930945Y37097463D01*
X929812Y37084513D01*
X914989Y37017650D01*
X913159Y37011374D01*
X290044Y35299380D01*
X287404Y35293380D01*
X255786Y35232642D01*
X248330Y35221994D01*
X204279Y35173921D01*
X201517Y35171603D01*
X200180Y35169448D01*
X199849Y35169086D01*
X199917Y35169023D01*
X168604Y35118530D01*
X173596Y35056280D01*
X214546Y35009131D01*
X265795Y34995000D01*
X646069Y34995000D01*
X653882Y34994385D01*
X734931Y34981548D01*
X749718Y34976744D01*
X819326Y34941277D01*
X831899Y34932142D01*
X887142Y34876899D01*
X896277Y34864326D01*
X931744Y34794718D01*
X936548Y34779931D01*
X949385Y34698882D01*
X950000Y34691069D01*
X950000Y33428931D01*
X949385Y33421118D01*
X936548Y33340069D01*
X931744Y33325282D01*
X896277Y33255674D01*
X887142Y33243101D01*
X831899Y33187858D01*
X819326Y33178723D01*
X749718Y33143256D01*
X734931Y33138452D01*
X653882Y33125615D01*
X646069Y33125000D01*
X-1886069Y33125000D01*
X-1893882Y33125615D01*
X-1974931Y33138452D01*
X-1989718Y33143256D01*
X-2059326Y33178723D01*
X-2071899Y33187858D01*
X-2127142Y33243101D01*
X-2136277Y33255674D01*
X-2171744Y33325282D01*
X-2176548Y33340069D01*
X-2189385Y33421118D01*
X-2190000Y33428931D01*
X-2190000Y34691069D01*
X-2189385Y34698882D01*
X-2176548Y34779931D01*
X-2171744Y34794718D01*
X-2136277Y34864326D01*
X-2127142Y34876899D01*
X-2071899Y34932142D01*
X-2059326Y34941277D01*
X-1989718Y34976744D01*
X-1974931Y34981548D01*
X-1893882Y34994385D01*
X-1886069Y34995000D01*
X-1842425Y34995000D01*
X-1783098Y35014500D01*
X-1746909Y35065395D01*
X-1758087Y35148728D01*
X-1792397Y35202583D01*
X-1795539Y35208310D01*
X-2142883Y35953192D01*
X-2145248Y35959272D01*
X-2165844Y36024595D01*
X-2168101Y36037395D01*
X-2170945Y36102537D01*
X-2169812Y36115487D01*
X-2154989Y36182350D01*
X-2153159Y36188626D01*
X-1530044Y37900620D01*
X-1527404Y37906620D01*
X-1495786Y37967358D01*
X-1488330Y37978006D01*
X-1444276Y38026082D01*
X-1434321Y38034435D01*
X-1393915Y38060177D01*
X-1354356Y38108499D01*
X-1351180Y38170868D01*
X-1380894Y38218975D01*
X-1480518Y38308284D01*
X-1484007Y38311735D01*
X-1520421Y38351474D01*
X-1523543Y38355236D01*
X-1626256Y38492160D01*
X-1628979Y38496187D01*
X-1656955Y38542292D01*
X-1659287Y38546599D01*
X-1733294Y38700889D01*
X-1735204Y38705430D01*
X-1753632Y38756058D01*
X-1755089Y38760770D01*
X-1797568Y38926518D01*
X-1798556Y38931349D01*
X-1806752Y38984597D01*
X-1807262Y38989499D01*
X-1816590Y39160361D01*
X-1816617Y39165259D01*
X-1814266Y39219123D01*
X-1813812Y39224002D01*
X-1789625Y39393421D01*
X-1788695Y39398230D01*
X-1775885Y39450581D01*
X-1774484Y39455294D01*
X-1719048Y39612933D01*
X-1713253Y39624408D01*
X-1636747Y39736932D01*
X-1620951Y39751730D01*
X-1540434Y39799111D01*
X-1532197Y39802994D01*
X-344519Y40235273D01*
X-341615Y40236231D01*
X-309804Y40245678D01*
X-306898Y40246447D01*
X-162178Y40280063D01*
X-156248Y40281067D01*
X-90347Y40288172D01*
X-84314Y40288455D01*
X62711Y40286481D01*
X68719Y40286037D01*
X134396Y40277167D01*
X140334Y40275996D01*
X282596Y40238899D01*
X288350Y40237020D01*
X349979Y40212696D01*
X355464Y40210139D01*
X484723Y40140069D01*
X489845Y40136878D01*
X543876Y40098502D01*
X548581Y40094713D01*
X657319Y39995741D01*
X661528Y39991417D01*
X704804Y39941226D01*
X708461Y39936428D01*
X790359Y39814303D01*
X793407Y39809104D01*
X824788Y39747313D01*
X825551Y39747700D01*
X864855Y39703525D01*
X915074Y39690000D01*
X3563513Y39690000D01*
X3563513Y42900419D01*
X3370501Y42917217D01*
X3361439Y42918858D01*
X3174791Y42970839D01*
X3166198Y42974113D01*
X2992278Y43059506D01*
X2984427Y43064307D01*
X2829166Y43180199D01*
X2822329Y43186362D01*
X2691002Y43328814D01*
X2685417Y43336124D01*
X2582504Y43500279D01*
X2578352Y43508503D01*
X2507360Y43688759D01*
X2504787Y43697614D01*
X2468125Y43887852D01*
X2467224Y43897013D01*
X2466142Y44090754D01*
X2466940Y44099926D01*
X2501476Y44290561D01*
X2503948Y44299439D01*
X2573752Y44482655D01*
X2575586Y44486871D01*
X4369607Y48140760D01*
X4371824Y48144795D01*
X4456435Y48283166D01*
X4456435Y57660255D01*
X4207399Y57678066D01*
X4200344Y57679080D01*
X3956364Y57732155D01*
X3949538Y57734160D01*
X3715596Y57821415D01*
X3709123Y57824371D01*
X3489977Y57944035D01*
X3483988Y57947884D01*
X3284110Y58097510D01*
X3278727Y58102175D01*
X3102175Y58278727D01*
X3097510Y58284110D01*
X2947884Y58483988D01*
X2944035Y58489977D01*
X2824371Y58709123D01*
X2821415Y58715596D01*
X2734160Y58949538D01*
X2732155Y58956364D01*
X2679080Y59200344D01*
X2678066Y59207399D01*
X2660255Y59456435D01*
X2660255Y59463565D01*
X2678066Y59712601D01*
X2679080Y59719656D01*
X2732155Y59963636D01*
X2734160Y59970462D01*
X2821415Y60204404D01*
X2824371Y60210877D01*
X2944035Y60430023D01*
X2947884Y60436012D01*
X3097510Y60635890D01*
X3102175Y60641273D01*
X3278727Y60817825D01*
X3284110Y60822490D01*
X3483988Y60972116D01*
X3489977Y60975965D01*
X3709123Y61095629D01*
X3715596Y61098585D01*
X3949538Y61185840D01*
X3956364Y61187845D01*
X4200344Y61240920D01*
X4207399Y61241934D01*
X4456435Y61259745D01*
X4463565Y61259745D01*
X4712601Y61241934D01*
X4719656Y61240920D01*
X4963636Y61187845D01*
X4970462Y61185840D01*
X5204404Y61098585D01*
X5210877Y61095629D01*
X5430023Y60975965D01*
X5436012Y60972116D01*
X5635890Y60822490D01*
X5641273Y60817825D01*
X5817825Y60641273D01*
X5822490Y60635890D01*
X5972116Y60436012D01*
X5975965Y60430023D01*
X6095629Y60210877D01*
X6098585Y60204404D01*
X6185840Y59970462D01*
X6187845Y59963636D01*
X6240920Y59719656D01*
X6241934Y59712601D01*
X6259745Y59463565D01*
X6259745Y59456435D01*
X6241934Y59207399D01*
X6240920Y59200344D01*
X6187845Y58956364D01*
X6185840Y58949538D01*
X6098585Y58715596D01*
X6095629Y58709123D01*
X5975965Y58489977D01*
X5972116Y58483988D01*
X5822490Y58284110D01*
X5817825Y58278727D01*
X5641273Y58102175D01*
X5635890Y58097510D01*
X5436012Y57947884D01*
X5430023Y57944035D01*
X5210877Y57824371D01*
X5204404Y57821415D01*
X4970462Y57734160D01*
X4963636Y57732155D01*
X4719656Y57679080D01*
X4712601Y57678066D01*
X4463565Y57660255D01*
X4456435Y57660255D01*
X4456435Y48283166D01*
X4474108Y48312069D01*
X4479613Y48319444D01*
X4609338Y48463350D01*
X4616103Y48469587D01*
X4770058Y48587206D01*
X4777866Y48592101D01*
X4950814Y48679428D01*
X4959373Y48682799D01*
X5145426Y48736860D01*
X5154466Y48738602D01*
X5347281Y48757557D01*
X5356486Y48757608D01*
X5549495Y48740809D01*
X5558565Y48739166D01*
X5745203Y48687189D01*
X5753804Y48683912D01*
X5927721Y48598521D01*
X5935572Y48593720D01*
X6090827Y48477834D01*
X6097678Y48471658D01*
X6228996Y48329214D01*
X6234582Y48321902D01*
X6337496Y48157747D01*
X6341644Y48149531D01*
X6412639Y47969269D01*
X6415212Y47960414D01*
X6451874Y47770176D01*
X6452775Y47761015D01*
X6453857Y47567274D01*
X6453059Y47558101D01*
X6418523Y47367463D01*
X6416054Y47358594D01*
X6346248Y47175371D01*
X6344414Y47171155D01*
X4550393Y43517266D01*
X4548176Y43513231D01*
X4445892Y43345957D01*
X4440387Y43338582D01*
X4310662Y43194676D01*
X4303898Y43188439D01*
X4149942Y43070821D01*
X4142133Y43065925D01*
X3969186Y42978599D01*
X3960627Y42975228D01*
X3774574Y42921166D01*
X3765534Y42919424D01*
X3572718Y42900470D01*
X3563513Y42900419D01*
X3563513Y39690000D01*
X9927703Y39690000D01*
X9927703Y43354739D01*
X9915774Y43356188D01*
X9775385Y43390790D01*
X9764149Y43395051D01*
X9636113Y43462249D01*
X9626230Y43469072D01*
X9517994Y43564960D01*
X9510034Y43573945D01*
X9427888Y43692955D01*
X9422310Y43703583D01*
X9371031Y43838793D01*
X9368159Y43850446D01*
X9350729Y43993996D01*
X9350729Y44006004D01*
X9368159Y44149554D01*
X9371031Y44161207D01*
X9422310Y44296417D01*
X9427888Y44307045D01*
X9510034Y44426055D01*
X9517994Y44435040D01*
X9626230Y44530928D01*
X9636113Y44537751D01*
X9764149Y44604949D01*
X9775385Y44609210D01*
X9915774Y44643812D01*
X9927703Y44645261D01*
X10072297Y44645261D01*
X10084226Y44643812D01*
X10224615Y44609210D01*
X10235851Y44604949D01*
X10363887Y44537751D01*
X10373770Y44530928D01*
X10482006Y44435040D01*
X10489966Y44426055D01*
X10572112Y44307045D01*
X10577690Y44296417D01*
X10628969Y44161207D01*
X10631841Y44149554D01*
X10649271Y44006004D01*
X10649271Y43993996D01*
X10631841Y43850446D01*
X10628969Y43838793D01*
X10577690Y43703583D01*
X10572112Y43692955D01*
X10489966Y43573945D01*
X10482006Y43564960D01*
X10373770Y43469072D01*
X10363887Y43462249D01*
X10235851Y43395051D01*
X10224615Y43390790D01*
X10084226Y43356188D01*
X10072297Y43354739D01*
X9927703Y43354739D01*
X9927703Y39690000D01*
X11927703Y39690000D01*
X11927703Y41354739D01*
X11915774Y41356188D01*
X11775385Y41390790D01*
X11764149Y41395051D01*
X11636113Y41462249D01*
X11626230Y41469072D01*
X11517994Y41564960D01*
X11510034Y41573945D01*
X11427888Y41692955D01*
X11422310Y41703583D01*
X11371031Y41838793D01*
X11368159Y41850446D01*
X11350729Y41993996D01*
X11350729Y42006004D01*
X11368159Y42149554D01*
X11371031Y42161207D01*
X11422310Y42296417D01*
X11427888Y42307045D01*
X11510034Y42426055D01*
X11517994Y42435040D01*
X11626230Y42530928D01*
X11636113Y42537751D01*
X11764149Y42604949D01*
X11775385Y42609210D01*
X11915774Y42643812D01*
X11927703Y42645261D01*
X11995645Y42645261D01*
X11995645Y44700381D01*
X11778613Y44719369D01*
X11770038Y44720880D01*
X11559582Y44777272D01*
X11551423Y44780243D01*
X11353960Y44872320D01*
X11346419Y44876674D01*
X11167951Y45001638D01*
X11161291Y45007227D01*
X11007227Y45161291D01*
X11001638Y45167951D01*
X10876674Y45346419D01*
X10872320Y45353960D01*
X10780243Y45551423D01*
X10777272Y45559582D01*
X10720880Y45770038D01*
X10719369Y45778613D01*
X10700381Y45995645D01*
X10700381Y46004355D01*
X10719369Y46221387D01*
X10720880Y46229962D01*
X10777272Y46440418D01*
X10780243Y46448577D01*
X10872320Y46646040D01*
X10876674Y46653581D01*
X11001638Y46832049D01*
X11007227Y46838709D01*
X11161291Y46992773D01*
X11167951Y46998362D01*
X11346419Y47123326D01*
X11353960Y47127680D01*
X11551423Y47219757D01*
X11559582Y47222728D01*
X11770038Y47279120D01*
X11778613Y47280631D01*
X11995645Y47299619D01*
X12004355Y47299619D01*
X12221387Y47280631D01*
X12229962Y47279120D01*
X12440418Y47222728D01*
X12448577Y47219757D01*
X12646040Y47127680D01*
X12653581Y47123326D01*
X12832049Y46998362D01*
X12838709Y46992773D01*
X12992773Y46838709D01*
X12998362Y46832049D01*
X13123326Y46653581D01*
X13127680Y46646040D01*
X13219757Y46448577D01*
X13222728Y46440418D01*
X13279120Y46229962D01*
X13280631Y46221387D01*
X13299619Y46004355D01*
X13299619Y45995645D01*
X13280631Y45778613D01*
X13279120Y45770038D01*
X13222728Y45559582D01*
X13219757Y45551423D01*
X13127680Y45353960D01*
X13123326Y45346419D01*
X12998362Y45167951D01*
X12992773Y45161291D01*
X12838709Y45007227D01*
X12832049Y45001638D01*
X12653581Y44876674D01*
X12646040Y44872320D01*
X12448577Y44780243D01*
X12440418Y44777272D01*
X12229962Y44720880D01*
X12221387Y44719369D01*
X12004355Y44700381D01*
X11995645Y44700381D01*
X11995645Y42645261D01*
X12072297Y42645261D01*
X12084226Y42643812D01*
X12224615Y42609210D01*
X12235851Y42604949D01*
X12363887Y42537751D01*
X12373770Y42530928D01*
X12482006Y42435040D01*
X12489966Y42426055D01*
X12572112Y42307045D01*
X12577690Y42296417D01*
X12628969Y42161207D01*
X12631841Y42149554D01*
X12649271Y42006004D01*
X12649271Y41993996D01*
X12631841Y41850446D01*
X12628969Y41838793D01*
X12577690Y41703583D01*
X12572112Y41692955D01*
X12489966Y41573945D01*
X12482006Y41564960D01*
X12373770Y41469072D01*
X12363887Y41462249D01*
X12235851Y41395051D01*
X12224615Y41390790D01*
X12084226Y41356188D01*
X12072297Y41354739D01*
X11927703Y41354739D01*
X11927703Y39690000D01*
X13994417Y39690000D01*
X13994417Y43300629D01*
X13849820Y43316921D01*
X13838930Y43319406D01*
X13701579Y43367468D01*
X13691531Y43372306D01*
X13568309Y43449732D01*
X13559587Y43456688D01*
X13456688Y43559587D01*
X13449732Y43568309D01*
X13372306Y43691531D01*
X13367468Y43701579D01*
X13319406Y43838930D01*
X13316921Y43849820D01*
X13300629Y43994417D01*
X13300629Y44005583D01*
X13316921Y44150180D01*
X13319406Y44161070D01*
X13367468Y44298421D01*
X13372306Y44308469D01*
X13449732Y44431691D01*
X13456688Y44440413D01*
X13559587Y44543312D01*
X13568309Y44550268D01*
X13691531Y44627694D01*
X13701579Y44632532D01*
X13838930Y44680594D01*
X13849820Y44683079D01*
X13994417Y44699371D01*
X14005583Y44699371D01*
X14150180Y44683079D01*
X14161070Y44680594D01*
X14298421Y44632532D01*
X14308469Y44627694D01*
X14431691Y44550268D01*
X14440413Y44543312D01*
X14543312Y44440413D01*
X14550268Y44431691D01*
X14627694Y44308469D01*
X14632532Y44298421D01*
X14680594Y44161070D01*
X14683079Y44150180D01*
X14699371Y44005583D01*
X14699371Y43994417D01*
X14683079Y43849820D01*
X14680594Y43838930D01*
X14632532Y43701579D01*
X14627694Y43691531D01*
X14550268Y43568309D01*
X14543312Y43559587D01*
X14440413Y43456688D01*
X14431691Y43449732D01*
X14308469Y43372306D01*
X14298421Y43367468D01*
X14161070Y43319406D01*
X14150180Y43316921D01*
X14005583Y43300629D01*
X13994417Y43300629D01*
X13994417Y39690000D01*
X15994417Y39690000D01*
X15994417Y41300629D01*
X15849820Y41316921D01*
X15838930Y41319406D01*
X15701579Y41367468D01*
X15691531Y41372306D01*
X15568309Y41449732D01*
X15559587Y41456688D01*
X15456688Y41559587D01*
X15449732Y41568309D01*
X15372306Y41691531D01*
X15367468Y41701579D01*
X15319406Y41838930D01*
X15316921Y41849820D01*
X15300629Y41994417D01*
X15300629Y42005583D01*
X15316921Y42150180D01*
X15319406Y42161070D01*
X15367468Y42298421D01*
X15372306Y42308469D01*
X15449732Y42431691D01*
X15456688Y42440413D01*
X15559587Y42543312D01*
X15568309Y42550268D01*
X15691531Y42627694D01*
X15701579Y42632532D01*
X15838930Y42680594D01*
X15849820Y42683079D01*
X15994417Y42699371D01*
X15995645Y42699371D01*
X15995645Y44700381D01*
X15778613Y44719369D01*
X15770038Y44720880D01*
X15559582Y44777272D01*
X15551423Y44780243D01*
X15353960Y44872320D01*
X15346419Y44876674D01*
X15167951Y45001638D01*
X15161291Y45007227D01*
X15007227Y45161291D01*
X15001638Y45167951D01*
X14876674Y45346419D01*
X14872320Y45353960D01*
X14780243Y45551423D01*
X14777272Y45559582D01*
X14720880Y45770038D01*
X14719369Y45778613D01*
X14700381Y45995645D01*
X14700381Y46004355D01*
X14719369Y46221387D01*
X14720880Y46229962D01*
X14777272Y46440418D01*
X14780243Y46448577D01*
X14872320Y46646040D01*
X14876674Y46653581D01*
X15001638Y46832049D01*
X15007227Y46838709D01*
X15161291Y46992773D01*
X15167951Y46998362D01*
X15346419Y47123326D01*
X15353960Y47127680D01*
X15551423Y47219757D01*
X15559582Y47222728D01*
X15770038Y47279120D01*
X15778613Y47280631D01*
X15995645Y47299619D01*
X16004355Y47299619D01*
X16221387Y47280631D01*
X16229962Y47279120D01*
X16440418Y47222728D01*
X16448577Y47219757D01*
X16646040Y47127680D01*
X16653581Y47123326D01*
X16832049Y46998362D01*
X16838709Y46992773D01*
X16992773Y46838709D01*
X16998362Y46832049D01*
X17123326Y46653581D01*
X17127680Y46646040D01*
X17219757Y46448577D01*
X17222728Y46440418D01*
X17279120Y46229962D01*
X17280631Y46221387D01*
X17299619Y46004355D01*
X17299619Y45995645D01*
X17280631Y45778613D01*
X17279120Y45770038D01*
X17222728Y45559582D01*
X17219757Y45551423D01*
X17127680Y45353960D01*
X17123326Y45346419D01*
X16998362Y45167951D01*
X16992773Y45161291D01*
X16838709Y45007227D01*
X16832049Y45001638D01*
X16653581Y44876674D01*
X16646040Y44872320D01*
X16448577Y44780243D01*
X16440418Y44777272D01*
X16229962Y44720880D01*
X16221387Y44719369D01*
X16004355Y44700381D01*
X15995645Y44700381D01*
X15995645Y42699371D01*
X16005583Y42699371D01*
X16150180Y42683079D01*
X16161070Y42680594D01*
X16298421Y42632532D01*
X16308469Y42627694D01*
X16431691Y42550268D01*
X16440413Y42543312D01*
X16543312Y42440413D01*
X16550268Y42431691D01*
X16627694Y42308469D01*
X16632532Y42298421D01*
X16680594Y42161070D01*
X16683079Y42150180D01*
X16699371Y42005583D01*
X16699371Y41994417D01*
X16683079Y41849820D01*
X16680594Y41838930D01*
X16632532Y41701579D01*
X16627694Y41691531D01*
X16550268Y41568309D01*
X16543312Y41559587D01*
X16440413Y41456688D01*
X16431691Y41449732D01*
X16308469Y41372306D01*
X16298421Y41367468D01*
X16161070Y41319406D01*
X16150180Y41316921D01*
X16005583Y41300629D01*
X15994417Y41300629D01*
X15994417Y39690000D01*
X17927703Y39690000D01*
X17927703Y43354739D01*
X17915774Y43356188D01*
X17775385Y43390790D01*
X17764149Y43395051D01*
X17636113Y43462249D01*
X17626230Y43469072D01*
X17517994Y43564960D01*
X17510034Y43573945D01*
X17427888Y43692955D01*
X17422310Y43703583D01*
X17371031Y43838793D01*
X17368159Y43850446D01*
X17350729Y43993996D01*
X17350729Y44006004D01*
X17368159Y44149554D01*
X17371031Y44161207D01*
X17422310Y44296417D01*
X17427888Y44307045D01*
X17510034Y44426055D01*
X17517994Y44435040D01*
X17626230Y44530928D01*
X17636113Y44537751D01*
X17764149Y44604949D01*
X17775385Y44609210D01*
X17915774Y44643812D01*
X17927703Y44645261D01*
X18072297Y44645261D01*
X18084226Y44643812D01*
X18224615Y44609210D01*
X18235851Y44604949D01*
X18363887Y44537751D01*
X18373770Y44530928D01*
X18482006Y44435040D01*
X18489966Y44426055D01*
X18572112Y44307045D01*
X18577690Y44296417D01*
X18628969Y44161207D01*
X18631841Y44149554D01*
X18649271Y44006004D01*
X18649271Y43993996D01*
X18631841Y43850446D01*
X18628969Y43838793D01*
X18577690Y43703583D01*
X18572112Y43692955D01*
X18489966Y43573945D01*
X18482006Y43564960D01*
X18373770Y43469072D01*
X18363887Y43462249D01*
X18235851Y43395051D01*
X18224615Y43390790D01*
X18084226Y43356188D01*
X18072297Y43354739D01*
X17927703Y43354739D01*
X17927703Y39690000D01*
X19908431Y39690000D01*
X19908431Y40961947D01*
X19899266Y40962796D01*
X19719257Y40996446D01*
X19710389Y40998970D01*
X19539624Y41065124D01*
X19531394Y41069222D01*
X19375681Y41165635D01*
X19368337Y41171181D01*
X19233005Y41294553D01*
X19226793Y41301366D01*
X19116430Y41447511D01*
X19111592Y41455325D01*
X19029956Y41619273D01*
X19026634Y41627847D01*
X18976516Y41803997D01*
X18974824Y41813046D01*
X18957927Y41995392D01*
X18957927Y42004608D01*
X18974824Y42186954D01*
X18976516Y42196003D01*
X19026634Y42372153D01*
X19029956Y42380727D01*
X19111592Y42544675D01*
X19116430Y42552489D01*
X19226793Y42698634D01*
X19233005Y42705447D01*
X19368337Y42828819D01*
X19375681Y42834365D01*
X19531394Y42930778D01*
X19539624Y42934876D01*
X19710389Y43001030D01*
X19719257Y43003554D01*
X19899266Y43037204D01*
X19908431Y43038053D01*
X19995645Y43038053D01*
X19995645Y44700381D01*
X19778613Y44719369D01*
X19770038Y44720880D01*
X19559582Y44777272D01*
X19551423Y44780243D01*
X19353960Y44872320D01*
X19346419Y44876674D01*
X19167951Y45001638D01*
X19161291Y45007227D01*
X19007227Y45161291D01*
X19001638Y45167951D01*
X18876674Y45346419D01*
X18872320Y45353960D01*
X18780243Y45551423D01*
X18777272Y45559582D01*
X18720880Y45770038D01*
X18719369Y45778613D01*
X18700381Y45995645D01*
X18700381Y46004355D01*
X18719369Y46221387D01*
X18720880Y46229962D01*
X18777272Y46440418D01*
X18780243Y46448577D01*
X18872320Y46646040D01*
X18876674Y46653581D01*
X19001638Y46832049D01*
X19007227Y46838709D01*
X19161291Y46992773D01*
X19167951Y46998362D01*
X19346419Y47123326D01*
X19353960Y47127680D01*
X19551423Y47219757D01*
X19559582Y47222728D01*
X19770038Y47279120D01*
X19778613Y47280631D01*
X19995645Y47299619D01*
X20004355Y47299619D01*
X20221387Y47280631D01*
X20229962Y47279120D01*
X20440418Y47222728D01*
X20448577Y47219757D01*
X20646040Y47127680D01*
X20653581Y47123326D01*
X20832049Y46998362D01*
X20838709Y46992773D01*
X20992773Y46838709D01*
X20998362Y46832049D01*
X21123326Y46653581D01*
X21127680Y46646040D01*
X21219757Y46448577D01*
X21222728Y46440418D01*
X21279120Y46229962D01*
X21280631Y46221387D01*
X21299619Y46004355D01*
X21299619Y45995645D01*
X21280631Y45778613D01*
X21279120Y45770038D01*
X21222728Y45559582D01*
X21219757Y45551423D01*
X21127680Y45353960D01*
X21123326Y45346419D01*
X20998362Y45167951D01*
X20992773Y45161291D01*
X20838709Y45007227D01*
X20832049Y45001638D01*
X20653581Y44876674D01*
X20646040Y44872320D01*
X20448577Y44780243D01*
X20440418Y44777272D01*
X20229962Y44720880D01*
X20221387Y44719369D01*
X20004355Y44700381D01*
X19995645Y44700381D01*
X19995645Y43038053D01*
X20091569Y43038053D01*
X20100734Y43037204D01*
X20280743Y43003554D01*
X20289611Y43001030D01*
X20460376Y42934876D01*
X20468606Y42930778D01*
X20624319Y42834365D01*
X20631663Y42828819D01*
X20766995Y42705447D01*
X20773207Y42698634D01*
X20883570Y42552489D01*
X20888408Y42544675D01*
X20970044Y42380727D01*
X20973366Y42372153D01*
X21023484Y42196003D01*
X21025176Y42186954D01*
X21042073Y42004608D01*
X21042073Y41995392D01*
X21025176Y41813046D01*
X21023484Y41803997D01*
X20973366Y41627847D01*
X20970044Y41619273D01*
X20888408Y41455325D01*
X20883570Y41447511D01*
X20773207Y41301366D01*
X20766995Y41294553D01*
X20631663Y41171181D01*
X20624319Y41165635D01*
X20468606Y41069222D01*
X20460376Y41065124D01*
X20289611Y40998970D01*
X20280743Y40996446D01*
X20100734Y40962796D01*
X20091569Y40961947D01*
X19908431Y40961947D01*
X19908431Y39690000D01*
X22856731Y39690000D01*
X22863240Y39689574D01*
X22995860Y39672115D01*
X23008402Y39668754D01*
X23128949Y39618821D01*
X23140200Y39612325D01*
X23184457Y39578365D01*
X23243490Y39533067D01*
X23247871Y39528638D01*
X23250552Y39527265D01*
X23388901Y39388916D01*
X23388917Y39388901D01*
X24037643Y38740175D01*
X24108353Y38710886D01*
X30239123Y38710886D01*
X30298450Y38730386D01*
X30334639Y38781281D01*
X30334905Y38839620D01*
X29729690Y40857003D01*
X29728500Y40861831D01*
X29718079Y40915458D01*
X29717372Y40920399D01*
X29714551Y40950843D01*
X29715023Y40963670D01*
X29738196Y41102070D01*
X29741925Y41114340D01*
X29763334Y41161744D01*
X29767154Y41168677D01*
X29815005Y41241238D01*
X29819883Y41247493D01*
X30058739Y41508158D01*
X30064346Y41514840D01*
X30305958Y41829714D01*
X30310962Y41836860D01*
X30524204Y42171582D01*
X30528566Y42179138D01*
X30711825Y42531175D01*
X30715512Y42539081D01*
X30867390Y42905749D01*
X30870374Y42913947D01*
X30989724Y43292475D01*
X30991982Y43300901D01*
X31077884Y43688382D01*
X31079398Y43696974D01*
X31131198Y44090434D01*
X31131959Y44099124D01*
X31149272Y44495638D01*
X31149272Y44504362D01*
X31131959Y44900876D01*
X31131198Y44909566D01*
X31079398Y45303026D01*
X31077884Y45311618D01*
X30991982Y45699099D01*
X30989724Y45707525D01*
X30870374Y46086053D01*
X30867390Y46094251D01*
X30715512Y46460919D01*
X30711825Y46468825D01*
X30528566Y46820862D01*
X30524204Y46828418D01*
X30310962Y47163140D01*
X30305958Y47170286D01*
X30064346Y47485160D01*
X30058739Y47491842D01*
X29810362Y47762898D01*
X29804456Y47770782D01*
X29748572Y47863158D01*
X29744336Y47872036D01*
X29721542Y47935195D01*
X29719129Y47944749D01*
X29703142Y48051514D01*
X29702652Y48061350D01*
X29719353Y48401309D01*
X29719424Y48402468D01*
X29720421Y48415974D01*
X29720526Y48417193D01*
X29721363Y48425692D01*
X29721505Y48426973D01*
X29723151Y48440319D01*
X29723320Y48441561D01*
X29779297Y48818926D01*
X29779495Y48820155D01*
X29781800Y48833435D01*
X29782022Y48834628D01*
X29783711Y48843121D01*
X29783945Y48844226D01*
X29786913Y48857439D01*
X29787193Y48858617D01*
X29879888Y49228676D01*
X29880200Y49229858D01*
X29883794Y49242847D01*
X29884145Y49244059D01*
X29886622Y49252225D01*
X29887007Y49253441D01*
X29891251Y49266286D01*
X29891619Y49267357D01*
X30020164Y49626617D01*
X30020575Y49627725D01*
X30025434Y49640321D01*
X30025911Y49641513D01*
X30029208Y49649473D01*
X30029647Y49650498D01*
X30035123Y49662851D01*
X30035663Y49664031D01*
X30198754Y50008855D01*
X30199282Y50009938D01*
X30205374Y50022039D01*
X30205917Y50023086D01*
X30209994Y50030713D01*
X30210538Y50031702D01*
X30217222Y50043503D01*
X30217835Y50044555D01*
X30413941Y50371736D01*
X30414644Y50372877D01*
X30421831Y50384226D01*
X30422486Y50385233D01*
X30427292Y50392425D01*
X30427961Y50393400D01*
X30435752Y50404463D01*
X30436436Y50405409D01*
X30663688Y50711822D01*
X30664457Y50712833D01*
X30672772Y50723488D01*
X30673503Y50724401D01*
X30679004Y50731104D01*
X30679737Y50731975D01*
X30688604Y50742254D01*
X30689369Y50743119D01*
X30945545Y51025765D01*
X30946439Y51026728D01*
X30955713Y51036469D01*
X30956574Y51037351D01*
X30962649Y51043426D01*
X30963531Y51044287D01*
X30973272Y51053561D01*
X30974235Y51054455D01*
X31256881Y51310631D01*
X31257746Y51311396D01*
X31268025Y51320263D01*
X31268896Y51320996D01*
X31275599Y51326497D01*
X31276512Y51327228D01*
X31287167Y51335543D01*
X31288178Y51336312D01*
X31594591Y51563564D01*
X31595537Y51564248D01*
X31606600Y51572039D01*
X31607575Y51572708D01*
X31614767Y51577514D01*
X31615774Y51578169D01*
X31627123Y51585356D01*
X31628264Y51586059D01*
X31955445Y51782165D01*
X31956497Y51782778D01*
X31968298Y51789462D01*
X31969287Y51790006D01*
X31976914Y51794083D01*
X31977961Y51794626D01*
X31990062Y51800718D01*
X31991145Y51801246D01*
X32335969Y51964337D01*
X32337149Y51964877D01*
X32349502Y51970353D01*
X32350527Y51970792D01*
X32358487Y51974089D01*
X32359679Y51974566D01*
X32372275Y51979425D01*
X32373383Y51979836D01*
X32732643Y52108381D01*
X32733714Y52108749D01*
X32746559Y52112993D01*
X32747775Y52113378D01*
X32755941Y52115855D01*
X32757153Y52116206D01*
X32770142Y52119800D01*
X32771324Y52120112D01*
X33141383Y52212807D01*
X33142561Y52213087D01*
X33155774Y52216055D01*
X33156879Y52216289D01*
X33165372Y52217978D01*
X33166565Y52218200D01*
X33179845Y52220505D01*
X33181074Y52220703D01*
X33558439Y52276680D01*
X33559681Y52276849D01*
X33573027Y52278495D01*
X33574308Y52278637D01*
X33582807Y52279474D01*
X33584026Y52279579D01*
X33597532Y52280576D01*
X33598691Y52280647D01*
X33979780Y52299369D01*
X33980982Y52299413D01*
X33994445Y52299743D01*
X33995744Y52299759D01*
X34004256Y52299759D01*
X34005555Y52299743D01*
X34019018Y52299413D01*
X34020220Y52299369D01*
X34401309Y52280647D01*
X34402468Y52280576D01*
X34415974Y52279579D01*
X34417193Y52279474D01*
X34425692Y52278637D01*
X34426973Y52278495D01*
X34440319Y52276849D01*
X34441561Y52276680D01*
X34818926Y52220703D01*
X34820155Y52220505D01*
X34833435Y52218200D01*
X34834628Y52217978D01*
X34843121Y52216289D01*
X34844226Y52216055D01*
X34857439Y52213087D01*
X34858617Y52212807D01*
X35228676Y52120112D01*
X35229858Y52119800D01*
X35242847Y52116206D01*
X35244059Y52115855D01*
X35252225Y52113378D01*
X35253441Y52112993D01*
X35266286Y52108749D01*
X35267357Y52108381D01*
X35626617Y51979836D01*
X35627725Y51979425D01*
X35640321Y51974566D01*
X35641513Y51974089D01*
X35649473Y51970792D01*
X35650498Y51970353D01*
X35662851Y51964877D01*
X35664031Y51964337D01*
X36008855Y51801246D01*
X36009938Y51800718D01*
X36022039Y51794626D01*
X36023086Y51794083D01*
X36030713Y51790006D01*
X36031702Y51789462D01*
X36043503Y51782778D01*
X36044555Y51782165D01*
X36371736Y51586059D01*
X36372877Y51585356D01*
X36384226Y51578169D01*
X36385233Y51577514D01*
X36392425Y51572708D01*
X36393400Y51572039D01*
X36404463Y51564248D01*
X36405409Y51563564D01*
X36711822Y51336312D01*
X36712833Y51335543D01*
X36723488Y51327228D01*
X36724401Y51326497D01*
X36731104Y51320996D01*
X36731975Y51320263D01*
X36742254Y51311396D01*
X36743119Y51310631D01*
X37025765Y51054455D01*
X37026728Y51053561D01*
X37036469Y51044287D01*
X37037351Y51043426D01*
X37043426Y51037351D01*
X37044287Y51036469D01*
X37053561Y51026728D01*
X37054455Y51025765D01*
X37310631Y50743119D01*
X37311396Y50742254D01*
X37320263Y50731975D01*
X37320996Y50731104D01*
X37326497Y50724401D01*
X37327228Y50723488D01*
X37335543Y50712833D01*
X37336312Y50711822D01*
X37563564Y50405409D01*
X37564248Y50404463D01*
X37572039Y50393400D01*
X37572708Y50392425D01*
X37577514Y50385233D01*
X37578169Y50384226D01*
X37585356Y50372877D01*
X37586059Y50371736D01*
X37782165Y50044555D01*
X37782778Y50043503D01*
X37789462Y50031702D01*
X37790006Y50030713D01*
X37794083Y50023086D01*
X37794626Y50022039D01*
X37800718Y50009938D01*
X37801246Y50008855D01*
X37964337Y49664031D01*
X37964877Y49662851D01*
X37970353Y49650498D01*
X37970792Y49649473D01*
X37974089Y49641513D01*
X37974566Y49640321D01*
X37979425Y49627725D01*
X37979836Y49626617D01*
X38108381Y49267357D01*
X38108749Y49266286D01*
X38112993Y49253441D01*
X38113378Y49252225D01*
X38115855Y49244059D01*
X38116206Y49242847D01*
X38119800Y49229858D01*
X38120112Y49228676D01*
X38212807Y48858617D01*
X38213087Y48857439D01*
X38216055Y48844226D01*
X38216289Y48843121D01*
X38217978Y48834628D01*
X38218200Y48833435D01*
X38220505Y48820155D01*
X38220703Y48818926D01*
X38276680Y48441561D01*
X38276849Y48440319D01*
X38278495Y48426973D01*
X38278637Y48425692D01*
X38279474Y48417193D01*
X38279579Y48415974D01*
X38280576Y48402468D01*
X38280647Y48401309D01*
X38299505Y48017441D01*
X38299530Y48016870D01*
X38299781Y48010025D01*
X38299797Y48009504D01*
X38299901Y48005255D01*
X38299915Y48004446D01*
X38299995Y47997927D01*
X38300000Y47997191D01*
X38300000Y38810885D01*
X38319500Y38751558D01*
X38399999Y38710886D01*
X43006846Y38710886D01*
X43006846Y44009061D01*
X42983151Y44016849D01*
X41011323Y45988677D01*
X41009061Y45993154D01*
X41016849Y46016849D01*
X42988677Y47988677D01*
X42993154Y47990939D01*
X43016849Y47983151D01*
X44988677Y46011323D01*
X44990939Y46006846D01*
X44983151Y45983151D01*
X43011323Y44011323D01*
X43006846Y44009061D01*
X43006846Y38710886D01*
X52068122Y38710886D01*
X52127449Y38730386D01*
X52166785Y38794596D01*
X52192104Y38947958D01*
X52194635Y38957405D01*
X52255741Y39119757D01*
X52260065Y39128525D01*
X52351662Y39275825D01*
X52357621Y39283592D01*
X52476202Y39410199D01*
X52483551Y39416643D01*
X52624553Y39517684D01*
X52633024Y39522575D01*
X52791021Y39594163D01*
X52800285Y39597308D01*
X52969220Y39636697D01*
X52978917Y39637974D01*
X53152283Y39643649D01*
X53162050Y39643009D01*
X53333192Y39614754D01*
X53342639Y39612223D01*
X53504991Y39551117D01*
X53513759Y39546793D01*
X53661059Y39455196D01*
X53668826Y39449237D01*
X53795433Y39330656D01*
X53801877Y39323307D01*
X53904354Y39180302D01*
X53907002Y39176196D01*
X54539553Y38080584D01*
X54541797Y38076216D01*
X54614397Y37915985D01*
X54617542Y37906721D01*
X54656931Y37737786D01*
X54658208Y37728089D01*
X54663883Y37554723D01*
X54663243Y37544956D01*
X54634988Y37373814D01*
X54632457Y37364367D01*
X54571351Y37202015D01*
X54567027Y37193247D01*
X54475430Y37045947D01*
X54469471Y37038180D01*
X54350890Y36911573D01*
X54343541Y36905129D01*
X54202539Y36804088D01*
X54194068Y36799197D01*
X54036071Y36727609D01*
X54026807Y36724464D01*
X53857872Y36685075D01*
X53848175Y36683798D01*
X53674809Y36678123D01*
X53665042Y36678763D01*
X53493900Y36707018D01*
X53484453Y36709549D01*
X53322101Y36770655D01*
X53313333Y36774979D01*
X53166033Y36866576D01*
X53158266Y36872535D01*
X53031659Y36991116D01*
X53025215Y36998465D01*
X52922738Y37141470D01*
X52920090Y37145576D01*
X52680310Y37560887D01*
X52633759Y37602515D01*
X52593708Y37610886D01*
X38399999Y37610886D01*
X38340672Y37591386D01*
X38300000Y37510887D01*
X38300000Y31105852D01*
X38298644Y31094307D01*
X38269121Y30970406D01*
X38265124Y30959487D01*
X38229461Y30888901D01*
X38223797Y30880119D01*
X38154891Y30794509D01*
X38140076Y30782112D01*
X38057020Y30736696D01*
X38048657Y30733071D01*
X37997445Y30716238D01*
X37989760Y30714373D01*
X37903924Y30700628D01*
X37896029Y30700000D01*
X37323114Y30700000D01*
X37263787Y30680500D01*
X37227598Y30629605D01*
X37228660Y30567164D01*
X37249020Y30532846D01*
X37380662Y30387601D01*
X37387601Y30380662D01*
X37649333Y30143442D01*
X37656919Y30137216D01*
X37940646Y29926790D01*
X37948805Y29921338D01*
X38251783Y29739739D01*
X38260438Y29735113D01*
X38579768Y29584081D01*
X38588835Y29580325D01*
X38921435Y29461320D01*
X38930825Y29458472D01*
X39273463Y29372645D01*
X39283088Y29370730D01*
X39632507Y29318898D01*
X39642273Y29317936D01*
X40010161Y29299863D01*
X40019164Y29298589D01*
X40111967Y29276673D01*
X40128466Y29269408D01*
X40203490Y29218348D01*
X40216304Y29205661D01*
X40267685Y29131763D01*
X40275433Y29113935D01*
X40298879Y29005201D01*
X40300000Y28994681D01*
X40300000Y21004572D01*
X40299168Y20995502D01*
X40281834Y20901747D01*
X40275387Y20884908D01*
X40228068Y20807466D01*
X40216028Y20794049D01*
X40145231Y20739481D01*
X40126650Y20730579D01*
X40005760Y20701391D01*
X39994074Y20700000D01*
X28004572Y20700000D01*
X28004572Y3614458D01*
X47995645Y5978994D01*
X47995645Y18700381D01*
X47778613Y18719369D01*
X47770038Y18720880D01*
X47559582Y18777272D01*
X47551423Y18780243D01*
X47353960Y18872320D01*
X47346419Y18876674D01*
X47167951Y19001638D01*
X47161291Y19007227D01*
X47007227Y19161291D01*
X47001638Y19167951D01*
X46876674Y19346419D01*
X46872320Y19353960D01*
X46780243Y19551423D01*
X46777272Y19559582D01*
X46720880Y19770038D01*
X46719369Y19778613D01*
X46700381Y19995645D01*
X46700381Y20004355D01*
X46719369Y20221387D01*
X46720880Y20229962D01*
X46777272Y20440418D01*
X46780243Y20448577D01*
X46872320Y20646040D01*
X46876674Y20653581D01*
X47001638Y20832049D01*
X47007227Y20838709D01*
X47161291Y20992773D01*
X47167951Y20998362D01*
X47346419Y21123326D01*
X47353960Y21127680D01*
X47551423Y21219757D01*
X47559582Y21222728D01*
X47770038Y21279120D01*
X47778613Y21280631D01*
X47995645Y21299619D01*
X48004355Y21299619D01*
X48221387Y21280631D01*
X48229962Y21279120D01*
X48440418Y21222728D01*
X48448577Y21219757D01*
X48646040Y21127680D01*
X48653581Y21123326D01*
X48832049Y20998362D01*
X48838709Y20992773D01*
X48992773Y20838709D01*
X48998362Y20832049D01*
X49123326Y20653581D01*
X49127680Y20646040D01*
X49219757Y20448577D01*
X49222728Y20440418D01*
X49279120Y20229962D01*
X49280631Y20221387D01*
X49299619Y20004355D01*
X49299619Y19995645D01*
X49280631Y19778613D01*
X49279120Y19770038D01*
X49222728Y19559582D01*
X49219757Y19551423D01*
X49127680Y19353960D01*
X49123326Y19346419D01*
X48998362Y19167951D01*
X48992773Y19161291D01*
X48838709Y19007227D01*
X48832049Y19001638D01*
X48653581Y18876674D01*
X48646040Y18872320D01*
X48448577Y18780243D01*
X48440418Y18777272D01*
X48229962Y18720880D01*
X48221387Y18719369D01*
X48004355Y18700381D01*
X47995645Y18700381D01*
X47995645Y5978994D01*
X53189467Y6593316D01*
X53189467Y23056130D01*
X53052750Y23075696D01*
X53040193Y23079219D01*
X50134991Y24324531D01*
X50126984Y24328868D01*
X50047643Y24381738D01*
X50034703Y24394300D01*
X49981461Y24469297D01*
X49974515Y24483362D01*
X49954087Y24549376D01*
X49952537Y24555911D01*
X49059296Y29897483D01*
X49058619Y29906572D01*
X49060253Y30001901D01*
X49063834Y30019573D01*
X49097731Y30103754D01*
X49107394Y30118977D01*
X49168845Y30185145D01*
X49184098Y30196278D01*
X49279218Y30240901D01*
X49288656Y30244221D01*
X49652218Y30332335D01*
X49654770Y30332885D01*
X49682475Y30338111D01*
X49685021Y30338524D01*
X50059445Y30389425D01*
X50061986Y30389703D01*
X50090105Y30392065D01*
X50092667Y30392214D01*
X50470304Y30404473D01*
X50472916Y30404490D01*
X50501121Y30403958D01*
X50503650Y30403846D01*
X50880593Y30377334D01*
X50883178Y30377085D01*
X50911157Y30373667D01*
X50913719Y30373287D01*
X51285936Y30308288D01*
X51288445Y30307783D01*
X51315981Y30301503D01*
X51318420Y30300881D01*
X51682081Y30198058D01*
X51684495Y30197308D01*
X51711227Y30188244D01*
X51713634Y30187358D01*
X52064803Y30047823D01*
X52067159Y30046816D01*
X52092815Y30035064D01*
X52095104Y30033944D01*
X52430132Y29859148D01*
X52432365Y29857909D01*
X52456674Y29843594D01*
X52458876Y29842219D01*
X52774179Y29634039D01*
X52776288Y29632568D01*
X52799024Y29615820D01*
X52801039Y29614254D01*
X53093379Y29374830D01*
X53095311Y29373163D01*
X53116201Y29354181D01*
X53118054Y29352408D01*
X53384318Y29084282D01*
X53386069Y29082426D01*
X53404881Y29061430D01*
X53406579Y29059434D01*
X53643946Y28765451D01*
X53645493Y28763432D01*
X53662093Y28740562D01*
X53663521Y28738485D01*
X53869535Y28421684D01*
X53870858Y28419531D01*
X53885024Y28395090D01*
X53886250Y28392843D01*
X54058693Y28056630D01*
X54059806Y28054317D01*
X54071394Y28028545D01*
X54072359Y28026242D01*
X54209462Y27674067D01*
X54210319Y27671685D01*
X54219198Y27644888D01*
X54219939Y27642442D01*
X54320216Y27278101D01*
X54320825Y27275645D01*
X54326915Y27248051D01*
X54327395Y27245576D01*
X54389261Y26876128D01*
X54389940Y26867040D01*
X54388327Y26771709D01*
X54384749Y26754037D01*
X54350735Y26669505D01*
X54341559Y26654806D01*
X54283022Y26589865D01*
X54276912Y26584137D01*
X54043598Y26399656D01*
X54034911Y26391925D01*
X53838103Y26195117D01*
X53830372Y26186430D01*
X53657732Y25968091D01*
X53651062Y25958565D01*
X53504943Y25721670D01*
X53499424Y25711435D01*
X53381794Y25459178D01*
X53377501Y25448370D01*
X53289949Y25184156D01*
X53286939Y25172923D01*
X53230655Y24900336D01*
X53228970Y24888830D01*
X53204713Y24611566D01*
X53204374Y24599943D01*
X53212470Y24321706D01*
X53213484Y24310121D01*
X53253821Y24034737D01*
X53256172Y24023348D01*
X53328214Y23754484D01*
X53331872Y23743446D01*
X53441547Y23467378D01*
X53444125Y23458635D01*
X53462630Y23365106D01*
X53462855Y23347080D01*
X53447471Y23257641D01*
X53441235Y23240722D01*
X53394887Y23162695D01*
X53383018Y23149129D01*
X53311836Y23092834D01*
X53295898Y23084408D01*
X53211219Y23057888D01*
X53189467Y23056130D01*
X53189467Y6593316D01*
X55674822Y6887282D01*
X55674822Y37715589D01*
X55659367Y37717213D01*
X55583903Y37737433D01*
X55569704Y37743755D01*
X55504186Y37786303D01*
X55492629Y37796709D01*
X55440990Y37860479D01*
X55436553Y37866934D01*
X54170481Y40059834D01*
X54167107Y40066909D01*
X54137700Y40143516D01*
X54134467Y40158726D01*
X54130379Y40236740D01*
X54132003Y40252195D01*
X54152223Y40327659D01*
X54158545Y40341858D01*
X54201093Y40407376D01*
X54211499Y40418933D01*
X54275269Y40470572D01*
X54281724Y40475009D01*
X55374772Y41106081D01*
X55381847Y41109455D01*
X55458454Y41138862D01*
X55473664Y41142095D01*
X55551678Y41146183D01*
X55567133Y41144559D01*
X55642597Y41124339D01*
X55656796Y41118017D01*
X55722314Y41075469D01*
X55733871Y41065063D01*
X55785510Y41001293D01*
X55789951Y40994832D01*
X55980086Y40665508D01*
X55995645Y40651594D01*
X55995645Y71700381D01*
X55778613Y71719369D01*
X55770038Y71720880D01*
X55559582Y71777272D01*
X55551423Y71780243D01*
X55353960Y71872320D01*
X55346419Y71876674D01*
X55167951Y72001638D01*
X55161291Y72007227D01*
X55007227Y72161291D01*
X55001638Y72167951D01*
X54876674Y72346419D01*
X54872320Y72353960D01*
X54780243Y72551423D01*
X54777272Y72559582D01*
X54720880Y72770038D01*
X54719369Y72778613D01*
X54700381Y72995645D01*
X54700381Y73004355D01*
X54719369Y73221387D01*
X54720880Y73229962D01*
X54777272Y73440418D01*
X54780243Y73448577D01*
X54872320Y73646040D01*
X54876674Y73653581D01*
X55001638Y73832049D01*
X55007227Y73838709D01*
X55161291Y73992773D01*
X55167951Y73998362D01*
X55346419Y74123326D01*
X55353960Y74127680D01*
X55551423Y74219757D01*
X55559582Y74222728D01*
X55770038Y74279120D01*
X55778613Y74280631D01*
X55995645Y74299619D01*
X56004355Y74299619D01*
X56221387Y74280631D01*
X56229962Y74279120D01*
X56440418Y74222728D01*
X56448577Y74219757D01*
X56646040Y74127680D01*
X56653581Y74123326D01*
X56832049Y73998362D01*
X56838709Y73992773D01*
X56992773Y73838709D01*
X56998362Y73832049D01*
X57123326Y73653581D01*
X57127680Y73646040D01*
X57219757Y73448577D01*
X57222728Y73440418D01*
X57279120Y73229962D01*
X57280631Y73221387D01*
X57299619Y73004355D01*
X57299619Y72995645D01*
X57280631Y72778613D01*
X57279120Y72770038D01*
X57222728Y72559582D01*
X57219757Y72551423D01*
X57127680Y72353960D01*
X57123326Y72346419D01*
X56998362Y72167951D01*
X56992773Y72161291D01*
X56838709Y72007227D01*
X56832049Y72001638D01*
X56653581Y71876674D01*
X56646040Y71872320D01*
X56448577Y71780243D01*
X56440418Y71777272D01*
X56229962Y71720880D01*
X56221387Y71719369D01*
X56004355Y71700381D01*
X55995645Y71700381D01*
X55995645Y40651594D01*
X56026637Y40623879D01*
X56088808Y40617985D01*
X56142352Y40650126D01*
X56165167Y40698139D01*
X56165792Y40701685D01*
X56185402Y40763880D01*
X56190895Y40775659D01*
X56227690Y40833414D01*
X56231557Y40838690D01*
X57402635Y42234326D01*
X57407163Y42239056D01*
X57457651Y42285320D01*
X57468297Y42292775D01*
X57526138Y42322885D01*
X57538344Y42327328D01*
X57605220Y42342154D01*
X57611671Y42343146D01*
X58430418Y42414777D01*
X58436952Y42414920D01*
X58505375Y42411933D01*
X58518175Y42409676D01*
X58580365Y42390068D01*
X58592144Y42384575D01*
X58649899Y42347780D01*
X58655175Y42343913D01*
X58846431Y42183430D01*
X58904413Y42160233D01*
X58964850Y42175959D01*
X59004172Y42224474D01*
X59009189Y42277399D01*
X58981858Y42432399D01*
X58981426Y42435367D01*
X58977644Y42468364D01*
X58977391Y42471385D01*
X58969417Y42619712D01*
X58969458Y42625745D01*
X58973904Y42691870D01*
X58974672Y42697859D01*
X59002147Y42842314D01*
X59003624Y42848140D01*
X59023773Y42911303D01*
X59025949Y42916926D01*
X59087193Y43050598D01*
X59090033Y43055923D01*
X59124697Y43112405D01*
X59128160Y43117352D01*
X59219618Y43232488D01*
X59223651Y43236979D01*
X59270821Y43283518D01*
X59275376Y43287500D01*
X59391723Y43377398D01*
X59396708Y43380790D01*
X59453661Y43414699D01*
X59459015Y43417463D01*
X59593499Y43476908D01*
X59599158Y43479011D01*
X59662576Y43498307D01*
X59668422Y43499706D01*
X59813238Y43525241D01*
X59819233Y43525928D01*
X59885413Y43529485D01*
X59891448Y43529444D01*
X60038152Y43519582D01*
X60044138Y43518814D01*
X60109255Y43506429D01*
X60115089Y43504949D01*
X60255169Y43460265D01*
X60260808Y43458083D01*
X60321052Y43430482D01*
X60326388Y43427636D01*
X60451704Y43350726D01*
X60456639Y43347271D01*
X60508550Y43306036D01*
X60513022Y43302019D01*
X60616304Y43197343D01*
X60620269Y43192806D01*
X60660796Y43140355D01*
X60664188Y43135369D01*
X60739410Y43009027D01*
X60742176Y43003671D01*
X60768977Y42943037D01*
X60771073Y42937397D01*
X60814309Y42795299D01*
X60815110Y42792351D01*
X60822836Y42760071D01*
X60823450Y42757114D01*
X61042927Y41512399D01*
X61043683Y41503321D01*
X61042908Y41409900D01*
X61037991Y41388824D01*
X60978797Y41266308D01*
X60971753Y41255547D01*
X60862954Y41128722D01*
X60859570Y41125148D01*
X60820646Y41087886D01*
X60816935Y41084667D01*
X60682309Y40979012D01*
X60678319Y40976186D01*
X60632855Y40947222D01*
X60628587Y40944789D01*
X60475932Y40867426D01*
X60471472Y40865435D01*
X60421216Y40845891D01*
X60416581Y40844346D01*
X60251762Y40798250D01*
X60246996Y40797166D01*
X60193893Y40787802D01*
X60189046Y40787191D01*
X60018397Y40774136D01*
X60013497Y40774003D01*
X59959618Y40775178D01*
X59954717Y40775526D01*
X59784819Y40796011D01*
X59779984Y40796836D01*
X59727354Y40808504D01*
X59722631Y40809797D01*
X59595476Y40851419D01*
X59533026Y40851343D01*
X59482799Y40814231D01*
X59464463Y40760745D01*
X59462373Y40712882D01*
X59460116Y40700082D01*
X59440508Y40637892D01*
X59435015Y40626113D01*
X59398220Y40568358D01*
X59394353Y40563082D01*
X58223275Y39167446D01*
X58218747Y39162716D01*
X58168259Y39116452D01*
X58157613Y39108997D01*
X58099772Y39078887D01*
X58087566Y39074444D01*
X58020690Y39059618D01*
X58014239Y39058626D01*
X57195492Y38986995D01*
X57188958Y38986852D01*
X57125162Y38989637D01*
X57065040Y38972743D01*
X57026666Y38923475D01*
X57034198Y38839734D01*
X57056016Y38801944D01*
X57059393Y38794863D01*
X57088800Y38718256D01*
X57092033Y38703046D01*
X57096121Y38625032D01*
X57094497Y38609577D01*
X57074277Y38534113D01*
X57067955Y38519914D01*
X57025407Y38454396D01*
X57015001Y38442839D01*
X56951231Y38391200D01*
X56944776Y38386763D01*
X55851728Y37755691D01*
X55844653Y37752317D01*
X55768046Y37722910D01*
X55752836Y37719677D01*
X55674822Y37715589D01*
X55674822Y6887282D01*
X58830276Y7260509D01*
X58830276Y21892914D01*
X58581240Y21910725D01*
X58574185Y21911739D01*
X58330205Y21964814D01*
X58323379Y21966819D01*
X58089437Y22054074D01*
X58082964Y22057030D01*
X57863818Y22176694D01*
X57857829Y22180543D01*
X57657951Y22330169D01*
X57652568Y22334834D01*
X57476016Y22511386D01*
X57471351Y22516769D01*
X57321725Y22716647D01*
X57317876Y22722636D01*
X57198212Y22941782D01*
X57195256Y22948255D01*
X57108001Y23182197D01*
X57105996Y23189023D01*
X57052921Y23433003D01*
X57051907Y23440058D01*
X57034096Y23689094D01*
X57034096Y23696224D01*
X57051907Y23945260D01*
X57052921Y23952315D01*
X57105996Y24196295D01*
X57108001Y24203121D01*
X57195256Y24437063D01*
X57198212Y24443536D01*
X57317876Y24662682D01*
X57321725Y24668671D01*
X57471351Y24868549D01*
X57476016Y24873932D01*
X57652568Y25050484D01*
X57657951Y25055149D01*
X57857829Y25204775D01*
X57863818Y25208624D01*
X58082964Y25328288D01*
X58089437Y25331244D01*
X58323379Y25418499D01*
X58330205Y25420504D01*
X58574185Y25473579D01*
X58581240Y25474593D01*
X58830276Y25492404D01*
X58837406Y25492404D01*
X59086442Y25474593D01*
X59093497Y25473579D01*
X59337477Y25420504D01*
X59344303Y25418499D01*
X59578245Y25331244D01*
X59584718Y25328288D01*
X59803864Y25208624D01*
X59809853Y25204775D01*
X60009731Y25055149D01*
X60015114Y25050484D01*
X60191666Y24873932D01*
X60196331Y24868549D01*
X60345957Y24668671D01*
X60349806Y24662682D01*
X60469470Y24443536D01*
X60472426Y24437063D01*
X60559681Y24203121D01*
X60561686Y24196295D01*
X60614761Y23952315D01*
X60615775Y23945260D01*
X60633586Y23696224D01*
X60633586Y23689094D01*
X60615775Y23440058D01*
X60614761Y23433003D01*
X60561686Y23189023D01*
X60559681Y23182197D01*
X60472426Y22948255D01*
X60469470Y22941782D01*
X60349806Y22722636D01*
X60345957Y22716647D01*
X60196331Y22516769D01*
X60191666Y22511386D01*
X60015114Y22334834D01*
X60009731Y22330169D01*
X59809853Y22180543D01*
X59803864Y22176694D01*
X59584718Y22057030D01*
X59578245Y22054074D01*
X59344303Y21966819D01*
X59337477Y21964814D01*
X59093497Y21911739D01*
X59086442Y21910725D01*
X58837406Y21892914D01*
X58830276Y21892914D01*
X58830276Y7260509D01*
X61644919Y7593423D01*
X61644919Y33804113D01*
X61549873Y33811634D01*
X61540891Y33813179D01*
X58081329Y34740165D01*
X58070397Y34744535D01*
X57961185Y34804015D01*
X57945541Y34817423D01*
X57891279Y34888457D01*
X57883122Y34904533D01*
X57857458Y34991586D01*
X57855590Y35009513D01*
X57863111Y35104559D01*
X57864656Y35113541D01*
X58791468Y38572452D01*
X58796490Y38584539D01*
X58866110Y38704525D01*
X58881007Y38720543D01*
X58954304Y38770502D01*
X58970799Y38777778D01*
X59059109Y38798697D01*
X59077115Y38799594D01*
X59167063Y38787555D01*
X59184204Y38781953D01*
X59263901Y38738548D01*
X59277902Y38727191D01*
X59339794Y38654662D01*
X59345050Y38647221D01*
X61879461Y34257493D01*
X61884459Y34245387D01*
X61920073Y34111320D01*
X61920865Y34089460D01*
X61904363Y34002306D01*
X61897843Y33985495D01*
X61850193Y33908261D01*
X61838093Y33894893D01*
X61765975Y33839802D01*
X61749899Y33831645D01*
X61662846Y33805981D01*
X61644919Y33804113D01*
X61644919Y7593423D01*
X62187523Y7657601D01*
X62187523Y46924476D01*
X61993903Y46931525D01*
X61984772Y46932707D01*
X61795752Y46975211D01*
X61786985Y46978054D01*
X61608997Y47054565D01*
X61600911Y47058965D01*
X61439999Y47166888D01*
X61432865Y47172695D01*
X61294529Y47308342D01*
X61288574Y47315371D01*
X61177520Y47474126D01*
X61172965Y47482118D01*
X61092968Y47658584D01*
X61089958Y47667282D01*
X61043750Y47855442D01*
X61042390Y47864541D01*
X61031543Y48057981D01*
X61031878Y48067185D01*
X61056761Y48259326D01*
X61058780Y48268306D01*
X61118545Y48452602D01*
X61122179Y48461057D01*
X61215896Y48633266D01*
X61218286Y48637212D01*
X63485637Y52017826D01*
X63488372Y52021521D01*
X63612142Y52173584D01*
X63618585Y52180155D01*
X63766424Y52305390D01*
X63773955Y52310659D01*
X63942287Y52406596D01*
X63950675Y52410399D01*
X64133769Y52473771D01*
X64142694Y52475962D01*
X64334322Y52504614D01*
X64343505Y52505129D01*
X64537126Y52498081D01*
X64546255Y52496899D01*
X64735280Y52454393D01*
X64744036Y52451554D01*
X64922036Y52375038D01*
X64930116Y52370641D01*
X65091029Y52262718D01*
X65098163Y52256911D01*
X65236499Y52121264D01*
X65242454Y52114235D01*
X65353507Y51955483D01*
X65358067Y51947482D01*
X65438058Y51771027D01*
X65441072Y51762316D01*
X65487277Y51574170D01*
X65488639Y51565066D01*
X65499486Y51371626D01*
X65499151Y51362422D01*
X65474268Y51170276D01*
X65472252Y51161309D01*
X65412485Y50977003D01*
X65408849Y50968545D01*
X65315132Y50796338D01*
X65312742Y50792392D01*
X63045391Y47411778D01*
X63042656Y47408083D01*
X62918886Y47256021D01*
X62912443Y47249450D01*
X62764604Y47124214D01*
X62757073Y47118945D01*
X62588741Y47023009D01*
X62580353Y47019206D01*
X62397259Y46955834D01*
X62388334Y46953643D01*
X62196706Y46924991D01*
X62187523Y46924476D01*
X62187523Y7657601D01*
X65042750Y7995317D01*
X65042750Y31852724D01*
X65029800Y31853857D01*
X64966135Y31867971D01*
X64953929Y31872414D01*
X64893180Y31904038D01*
X64887590Y31907430D01*
X64553653Y32141255D01*
X64548556Y32145346D01*
X64498061Y32191616D01*
X64489709Y32201571D01*
X64454673Y32256565D01*
X64449180Y32268344D01*
X64428584Y32333667D01*
X64427033Y32340004D01*
X64182594Y33726289D01*
X64181882Y33732786D01*
X64178895Y33801205D01*
X64180028Y33814155D01*
X64194142Y33877820D01*
X64198585Y33890026D01*
X64230209Y33950775D01*
X64233601Y33956365D01*
X64467426Y34290302D01*
X64471517Y34295399D01*
X64517787Y34345894D01*
X64527742Y34354246D01*
X64582736Y34389282D01*
X64594515Y34394775D01*
X64659838Y34415371D01*
X64666175Y34416922D01*
X65067652Y34487713D01*
X65074149Y34488425D01*
X65142568Y34491412D01*
X65155518Y34490279D01*
X65219183Y34476165D01*
X65231389Y34471722D01*
X65292138Y34440098D01*
X65297728Y34436706D01*
X65631665Y34202881D01*
X65636762Y34198790D01*
X65687257Y34152520D01*
X65695609Y34142565D01*
X65730645Y34087571D01*
X65736138Y34075792D01*
X65756734Y34010469D01*
X65758285Y34004132D01*
X66002724Y32617847D01*
X66003436Y32611350D01*
X66006423Y32542931D01*
X66005290Y32529981D01*
X65991176Y32466316D01*
X65986733Y32454110D01*
X65955109Y32393361D01*
X65951717Y32387771D01*
X65717892Y32053834D01*
X65713801Y32048737D01*
X65667531Y31998242D01*
X65657576Y31989890D01*
X65602582Y31954854D01*
X65590803Y31949361D01*
X65525480Y31928765D01*
X65519143Y31927214D01*
X65117666Y31856423D01*
X65111169Y31855711D01*
X65042750Y31852724D01*
X65042750Y7995317D01*
X72736901Y8905378D01*
X72736901Y29217303D01*
X72730446Y29217495D01*
X72432560Y29245697D01*
X72426190Y29246719D01*
X72134424Y29313091D01*
X72128233Y29314927D01*
X71848128Y29418114D01*
X71840990Y29421400D01*
X71671312Y29516311D01*
X71663716Y29521535D01*
X71514891Y29645572D01*
X71508390Y29652096D01*
X71384889Y29801369D01*
X71379695Y29808982D01*
X71285725Y29978409D01*
X71282024Y29986833D01*
X71220783Y30170648D01*
X71218692Y30179608D01*
X71192269Y30371554D01*
X71191862Y30380738D01*
X71201159Y30574271D01*
X71202447Y30583380D01*
X71247144Y30771894D01*
X71250089Y30780628D01*
X71328663Y30957715D01*
X71333159Y30965754D01*
X71442940Y31125397D01*
X71448831Y31132465D01*
X71586077Y31269218D01*
X71593171Y31275087D01*
X71753209Y31384292D01*
X71761256Y31388755D01*
X71938636Y31466694D01*
X71947368Y31469603D01*
X72136048Y31513621D01*
X72145170Y31514876D01*
X72338717Y31523475D01*
X72347920Y31523033D01*
X72539754Y31495921D01*
X72548716Y31493796D01*
X72730712Y31432430D01*
X72742852Y31429170D01*
X72785430Y31420564D01*
X72828711Y31421375D01*
X72855504Y31427844D01*
X72894385Y31446870D01*
X72915934Y31464056D01*
X72943132Y31497730D01*
X72955399Y31522412D01*
X72965818Y31564429D01*
X72966504Y31591985D01*
X72958191Y31634464D01*
X72947169Y31659726D01*
X72921679Y31694716D01*
X72901011Y31712954D01*
X72863126Y31733891D01*
X72821466Y31746174D01*
X72809210Y31748964D01*
X72619615Y31779743D01*
X72610711Y31782048D01*
X72428427Y31847707D01*
X72420090Y31851613D01*
X72252977Y31949647D01*
X72245500Y31955018D01*
X72099250Y32082087D01*
X72092883Y32088746D01*
X71972475Y32240520D01*
X71967438Y32248237D01*
X71876965Y32419560D01*
X71873437Y32428060D01*
X71815984Y32613094D01*
X71814078Y32622093D01*
X71791604Y32814529D01*
X71791384Y32823745D01*
X71804651Y33017025D01*
X71806127Y33026117D01*
X71854686Y33213673D01*
X71857806Y33222337D01*
X71940006Y33397788D01*
X71944660Y33405721D01*
X72057692Y33563071D01*
X72063736Y33570028D01*
X72203759Y33703931D01*
X72210970Y33709651D01*
X72373214Y33815546D01*
X72381355Y33819845D01*
X72560295Y33894125D01*
X72569090Y33896856D01*
X72758628Y33936989D01*
X72767773Y33938057D01*
X72962160Y33942696D01*
X72969976Y33942269D01*
X73265855Y33902630D01*
X73272194Y33901359D01*
X73561152Y33823727D01*
X73567267Y33821653D01*
X73843824Y33707408D01*
X73849610Y33704568D01*
X74109125Y33555625D01*
X74114506Y33552055D01*
X74352650Y33370900D01*
X74357528Y33366665D01*
X74570327Y33156321D01*
X74574613Y33151499D01*
X74758525Y32915466D01*
X74762151Y32910134D01*
X74914092Y32652371D01*
X74917009Y32646600D01*
X75034449Y32371403D01*
X75036596Y32365309D01*
X75117580Y32077255D01*
X75118919Y32070954D01*
X75162090Y31774855D01*
X75162606Y31768432D01*
X75163245Y31727202D01*
X75163245Y36060142D01*
X75151807Y36069113D01*
X67549483Y49236725D01*
X67547642Y49245531D01*
X67560783Y49251750D01*
X73194902Y49589927D01*
X73212337Y49585333D01*
X73216813Y49580620D01*
X75066730Y46376469D01*
X75066730Y54730550D01*
X74817694Y54748361D01*
X74810639Y54749375D01*
X74566659Y54802450D01*
X74559833Y54804455D01*
X74325891Y54891710D01*
X74319418Y54894666D01*
X74100272Y55014330D01*
X74094283Y55018179D01*
X73894405Y55167805D01*
X73889022Y55172470D01*
X73712470Y55349022D01*
X73707805Y55354405D01*
X73558179Y55554283D01*
X73554330Y55560272D01*
X73434666Y55779418D01*
X73431710Y55785891D01*
X73344455Y56019833D01*
X73342450Y56026659D01*
X73289375Y56270639D01*
X73288361Y56277694D01*
X73270550Y56526730D01*
X73270550Y56533860D01*
X73288361Y56782896D01*
X73289375Y56789951D01*
X73342450Y57033931D01*
X73344455Y57040757D01*
X73431710Y57274699D01*
X73434666Y57281172D01*
X73554330Y57500318D01*
X73558179Y57506307D01*
X73707805Y57706185D01*
X73712470Y57711568D01*
X73889022Y57888120D01*
X73894405Y57892785D01*
X74094283Y58042411D01*
X74100272Y58046260D01*
X74319418Y58165924D01*
X74325891Y58168880D01*
X74559833Y58256135D01*
X74566659Y58258140D01*
X74810639Y58311215D01*
X74817694Y58312229D01*
X75066730Y58330040D01*
X75073860Y58330040D01*
X75322896Y58312229D01*
X75329951Y58311215D01*
X75573931Y58258140D01*
X75580757Y58256135D01*
X75814699Y58168880D01*
X75821172Y58165924D01*
X76040318Y58046260D01*
X76046307Y58042411D01*
X76246185Y57892785D01*
X76251568Y57888120D01*
X76428120Y57711568D01*
X76432785Y57706185D01*
X76582411Y57506307D01*
X76586260Y57500318D01*
X76705924Y57281172D01*
X76708880Y57274699D01*
X76796135Y57040757D01*
X76798140Y57033931D01*
X76851215Y56789951D01*
X76852229Y56782896D01*
X76870040Y56533860D01*
X76870040Y56526730D01*
X76852229Y56277694D01*
X76851215Y56270639D01*
X76798140Y56026659D01*
X76796135Y56019833D01*
X76708880Y55785891D01*
X76705924Y55779418D01*
X76586260Y55560272D01*
X76582411Y55554283D01*
X76432785Y55354405D01*
X76428120Y55349022D01*
X76251568Y55172470D01*
X76246185Y55167805D01*
X76046307Y55018179D01*
X76040318Y55014330D01*
X75821172Y54894666D01*
X75814699Y54891710D01*
X75580757Y54804455D01*
X75573931Y54802450D01*
X75329951Y54749375D01*
X75322896Y54748361D01*
X75073860Y54730550D01*
X75066730Y54730550D01*
X75066730Y46376469D01*
X78282880Y40805934D01*
X78286568Y40788288D01*
X78284353Y40782174D01*
X75170302Y36065729D01*
X75163245Y36060142D01*
X75163245Y31727202D01*
X75167243Y31469245D01*
X75166926Y31462799D01*
X75132953Y31165518D01*
X75131807Y31159164D01*
X75059795Y30868757D01*
X75057831Y30862579D01*
X74948981Y30583886D01*
X74946247Y30578032D01*
X74802363Y30315675D01*
X74798903Y30310233D01*
X74622398Y30068619D01*
X74618261Y30063662D01*
X74412083Y29846824D01*
X74407336Y29842438D01*
X74174923Y29653991D01*
X74169660Y29650260D01*
X73914886Y29493345D01*
X73909187Y29490324D01*
X73636304Y29367564D01*
X73630262Y29365303D01*
X73343829Y29278747D01*
X73337553Y29277286D01*
X73042364Y29228384D01*
X73035927Y29227741D01*
X72736901Y29217303D01*
X72736901Y8905378D01*
X81040722Y9887551D01*
X81040722Y34116246D01*
X81031529Y34116544D01*
X80839285Y34140671D01*
X80830297Y34142655D01*
X80645766Y34201693D01*
X80637294Y34205296D01*
X80466755Y34297236D01*
X80459089Y34302334D01*
X80308348Y34424044D01*
X80301746Y34430467D01*
X80175934Y34577806D01*
X80170631Y34585325D01*
X80074033Y34753274D01*
X80070198Y34761647D01*
X80006107Y34944485D01*
X80003878Y34953408D01*
X79974323Y35145901D01*
X79973745Y35153109D01*
X79971142Y35496047D01*
X79971376Y35501269D01*
X80004731Y35843606D01*
X80005510Y35848777D01*
X80074468Y36185756D01*
X80075780Y36190804D01*
X80179584Y36518730D01*
X80181423Y36523633D01*
X80318929Y36838898D01*
X80321268Y36843576D01*
X80490985Y37142755D01*
X80493793Y37147152D01*
X80693859Y37426961D01*
X80697100Y37431027D01*
X80925316Y37688388D01*
X80928981Y37692109D01*
X81182843Y37924202D01*
X81186881Y37927523D01*
X81463607Y38131803D01*
X81467951Y38134672D01*
X81764532Y38308919D01*
X81769165Y38311323D01*
X82082312Y38453603D01*
X82087191Y38455519D01*
X82407075Y38562146D01*
X82464256Y38611037D01*
X83044672Y39732112D01*
X83046984Y39736114D01*
X83096110Y39812737D01*
X83096845Y39813902D01*
X83143613Y39889106D01*
X83150707Y39898463D01*
X83150807Y39898606D01*
X83151138Y39899037D01*
X83151235Y39899152D01*
X83158464Y39908418D01*
X83219294Y39973073D01*
X83220231Y39974083D01*
X83279978Y40039366D01*
X83288669Y40047258D01*
X83288798Y40047385D01*
X83289185Y40047732D01*
X83289314Y40047837D01*
X83298131Y40055624D01*
X83369736Y40107950D01*
X83370844Y40108771D01*
X83441632Y40162012D01*
X83451624Y40168172D01*
X83451777Y40168275D01*
X83452225Y40168547D01*
X83452362Y40168622D01*
X83462460Y40174656D01*
X83542457Y40212931D01*
X83543697Y40213535D01*
X83625479Y40254059D01*
X83628895Y40255834D01*
X83723664Y40307429D01*
X83744766Y40322797D01*
X83814797Y40389405D01*
X83831202Y40409711D01*
X83881611Y40492180D01*
X83892202Y40516040D01*
X83919547Y40608741D01*
X83923602Y40634530D01*
X83926022Y40731158D01*
X83923263Y40757117D01*
X83897962Y40861978D01*
X83896988Y40865702D01*
X83843590Y41054774D01*
X83841918Y41063818D01*
X83824416Y41256769D01*
X83824434Y41265984D01*
X83842686Y41458864D01*
X83844394Y41467907D01*
X83897779Y41654158D01*
X83901117Y41662724D01*
X83987819Y41836000D01*
X83992678Y41843814D01*
X84109736Y41998199D01*
X84115953Y42004993D01*
X84259386Y42135237D01*
X84266741Y42140769D01*
X84431658Y42242439D01*
X84439923Y42246534D01*
X84620703Y42316164D01*
X84629576Y42318671D01*
X84820089Y42353901D01*
X84829251Y42354732D01*
X85022998Y42354355D01*
X85032167Y42353487D01*
X85222534Y42317517D01*
X85231392Y42314979D01*
X85411912Y42244641D01*
X85420152Y42240518D01*
X85584674Y42138208D01*
X85592009Y42132646D01*
X85734938Y42001838D01*
X85741121Y41995028D01*
X85857580Y41840187D01*
X85862412Y41832349D01*
X85948787Y41658037D01*
X85951643Y41650960D01*
X86047124Y41350032D01*
X86048594Y41344200D01*
X86107255Y41033159D01*
X86108013Y41027174D01*
X86128753Y40711353D01*
X86128785Y40705303D01*
X86111306Y40389284D01*
X86110611Y40383300D01*
X86055164Y40071668D01*
X86053753Y40065815D01*
X85961153Y39763159D01*
X85959037Y39757492D01*
X85830632Y39468205D01*
X85827856Y39462848D01*
X85665515Y39191145D01*
X85662112Y39186161D01*
X85468203Y38936003D01*
X85464227Y38931469D01*
X85241577Y38706508D01*
X85237084Y38702486D01*
X84988936Y38505999D01*
X84984007Y38502559D01*
X84863597Y38428917D01*
X84826969Y38389584D01*
X84147778Y37077723D01*
X84145479Y37073744D01*
X84116371Y37028344D01*
X84112532Y37021826D01*
X84088028Y36976375D01*
X84082929Y36968709D01*
X84063081Y36944126D01*
X84056703Y36935280D01*
X84039650Y36908683D01*
X84033984Y36901421D01*
X83998621Y36863833D01*
X83993650Y36858132D01*
X83961220Y36817968D01*
X83954791Y36811360D01*
X83930761Y36790841D01*
X83922864Y36783317D01*
X83901221Y36760313D01*
X83894323Y36754220D01*
X83852660Y36723775D01*
X83846725Y36719083D01*
X83807465Y36685560D01*
X83799938Y36680250D01*
X83772542Y36664493D01*
X83763399Y36658548D01*
X83737897Y36639912D01*
X83729995Y36635190D01*
X83683442Y36612916D01*
X83676745Y36609394D01*
X83631991Y36583653D01*
X83623622Y36579820D01*
X83593792Y36569364D01*
X83583710Y36565199D01*
X83555217Y36551566D01*
X83546587Y36548378D01*
X83496736Y36535038D01*
X83489505Y36532807D01*
X83440781Y36515727D01*
X83431850Y36513496D01*
X83400605Y36508699D01*
X83389931Y36506458D01*
X83359424Y36498294D01*
X83350352Y36496746D01*
X83298909Y36492795D01*
X83291390Y36491931D01*
X83235964Y36483420D01*
X83235681Y36483378D01*
X83235681Y36483377D01*
X83048548Y36455628D01*
X83031593Y36451578D01*
X82860327Y36394488D01*
X82844335Y36387556D01*
X82685580Y36301593D01*
X82671033Y36291989D01*
X82529618Y36179765D01*
X82516960Y36167780D01*
X82397184Y36032706D01*
X82386800Y36018706D01*
X82292296Y35864882D01*
X82284501Y35849291D01*
X82218148Y35681401D01*
X82213178Y35664694D01*
X82176984Y35487825D01*
X82174991Y35470508D01*
X82169821Y35281297D01*
X82163385Y35083043D01*
X82162236Y35073889D01*
X82120481Y34884718D01*
X82117670Y34875932D01*
X82041862Y34697649D01*
X82037488Y34689535D01*
X81930211Y34528216D01*
X81924420Y34521044D01*
X81789326Y34382183D01*
X81782319Y34376200D01*
X81624002Y34264521D01*
X81616024Y34259932D01*
X81439879Y34179244D01*
X81431195Y34176200D01*
X81243219Y34129251D01*
X81234120Y34127854D01*
X81040722Y34116246D01*
X81040722Y9887551D01*
X84451966Y10291032D01*
X84451966Y27916781D01*
X84334663Y27921903D01*
X84321862Y27924160D01*
X84209878Y27959468D01*
X84198099Y27964961D01*
X84099072Y28028049D01*
X84089117Y28036401D01*
X84009791Y28122971D01*
X84002334Y28133620D01*
X83946604Y28240676D01*
X83943970Y28246662D01*
X83706798Y28898287D01*
X83704969Y28904563D01*
X83678845Y29022399D01*
X83677712Y29035349D01*
X83682833Y29152654D01*
X83685090Y29165452D01*
X83720398Y29277437D01*
X83725891Y29289216D01*
X83788979Y29388244D01*
X83797332Y29398199D01*
X83883902Y29477525D01*
X83894550Y29484981D01*
X84001599Y29540707D01*
X84007599Y29543347D01*
X85410972Y30054133D01*
X85417248Y30055962D01*
X85535084Y30082086D01*
X85548034Y30083219D01*
X85665338Y30078098D01*
X85678137Y30075841D01*
X85790125Y30040531D01*
X85801894Y30035044D01*
X85900930Y29971952D01*
X85910884Y29963598D01*
X85990208Y29877031D01*
X85997665Y29866382D01*
X86053396Y29759324D01*
X86056030Y29753338D01*
X86293202Y29101713D01*
X86295031Y29095437D01*
X86321155Y28977601D01*
X86322288Y28964651D01*
X86317167Y28847347D01*
X86314910Y28834548D01*
X86279602Y28722564D01*
X86274109Y28710785D01*
X86211021Y28611757D01*
X86202668Y28601802D01*
X86116099Y28522477D01*
X86105450Y28515020D01*
X85998393Y28459289D01*
X85992407Y28456655D01*
X84589028Y27945867D01*
X84582752Y27944038D01*
X84464916Y27917914D01*
X84451966Y27916781D01*
X84451966Y10291032D01*
X87409124Y10640803D01*
X87409124Y30884839D01*
X86884472Y31075797D01*
X86879944Y31077701D01*
X86723086Y31152939D01*
X86714736Y31158006D01*
X86577542Y31260921D01*
X86570324Y31267534D01*
X86455842Y31395239D01*
X86450066Y31403116D01*
X86361442Y31552821D01*
X86359154Y31557159D01*
X86247444Y31796721D01*
X86245594Y31801258D01*
X86187880Y31965374D01*
X86185555Y31974875D01*
X86161317Y32144652D01*
X86160890Y32154430D01*
X86170239Y32325677D01*
X86171726Y32335339D01*
X86207713Y32475750D01*
X86215017Y32487184D01*
X86217952Y32488313D01*
X86221085Y32487841D01*
X86775983Y32285874D01*
X86760979Y32218194D01*
X86764679Y32133432D01*
X86790192Y32052517D01*
X86878593Y31862939D01*
X86878593Y32567791D01*
X86329343Y32767702D01*
X86318681Y32776090D01*
X86317845Y32779123D01*
X86318622Y32782195D01*
X86383908Y32918305D01*
X86388981Y32926664D01*
X86491897Y33063860D01*
X86498504Y33071070D01*
X86626201Y33185546D01*
X86634099Y33191337D01*
X86783794Y33279954D01*
X86788123Y33282238D01*
X87027694Y33393953D01*
X87032236Y33395805D01*
X87196342Y33453515D01*
X87205850Y33455841D01*
X87375624Y33480079D01*
X87385402Y33480506D01*
X87399656Y33479727D01*
X87399656Y35845960D01*
X87389879Y35846387D01*
X87215249Y35871318D01*
X87205748Y35873643D01*
X87039334Y35932166D01*
X87030467Y35936300D01*
X86878666Y36026165D01*
X86870787Y36031942D01*
X86739432Y36149695D01*
X86732819Y36156912D01*
X86626967Y36298024D01*
X86621894Y36306383D01*
X86545601Y36465442D01*
X86542258Y36474626D01*
X86498462Y36645511D01*
X86496974Y36655177D01*
X86487357Y36831317D01*
X86487784Y36841094D01*
X86512715Y37015724D01*
X86515040Y37025225D01*
X86573563Y37191639D01*
X86577697Y37200506D01*
X86667562Y37352307D01*
X86673339Y37360186D01*
X86791092Y37491541D01*
X86798309Y37498154D01*
X86939421Y37604006D01*
X86947780Y37609079D01*
X87109041Y37686429D01*
X87113582Y37688339D01*
X88236585Y38097079D01*
X88241277Y38098530D01*
X88414541Y38142937D01*
X88424203Y38144424D01*
X88600344Y38154040D01*
X88610122Y38153613D01*
X88784748Y38128682D01*
X88794256Y38126356D01*
X88960664Y38067836D01*
X88969535Y38063700D01*
X89121326Y37973841D01*
X89129224Y37968050D01*
X89260567Y37850306D01*
X89267177Y37843093D01*
X89373033Y37701979D01*
X89378109Y37693613D01*
X89454398Y37534565D01*
X89457744Y37525371D01*
X89501541Y37354487D01*
X89503028Y37344825D01*
X89512644Y37168684D01*
X89512217Y37158906D01*
X89487286Y36984280D01*
X89484960Y36974772D01*
X89426440Y36808364D01*
X89422304Y36799493D01*
X89332445Y36647702D01*
X89326654Y36639804D01*
X89208910Y36508461D01*
X89201697Y36501851D01*
X89060583Y36395995D01*
X89052217Y36390919D01*
X88890959Y36313571D01*
X88886418Y36311661D01*
X87763424Y35902924D01*
X87758712Y35901467D01*
X87585462Y35857065D01*
X87575796Y35855577D01*
X87399656Y35845960D01*
X87399656Y33479727D01*
X87556649Y33471157D01*
X87566311Y33469670D01*
X87734828Y33426480D01*
X87739520Y33425029D01*
X88271521Y33231396D01*
X88275462Y33228296D01*
X88278417Y33203528D01*
X88081355Y32662105D01*
X87531997Y32862055D01*
X87449166Y32880418D01*
X87364404Y32876718D01*
X87283489Y32851205D01*
X87039476Y32737420D01*
X86967921Y32691834D01*
X86910603Y32629282D01*
X86878593Y32567791D01*
X86878593Y31862939D01*
X86903977Y31808503D01*
X86949563Y31736948D01*
X87012115Y31679630D01*
X87087371Y31640454D01*
X87636728Y31440504D01*
X87436992Y30891735D01*
X87433892Y30887794D01*
X87409124Y30884839D01*
X87409124Y10640803D01*
X88614598Y10783386D01*
X88614598Y30519494D01*
X88443351Y30528843D01*
X88433689Y30530330D01*
X88265172Y30573520D01*
X88260480Y30574971D01*
X87728479Y30768604D01*
X87724538Y30771704D01*
X87721583Y30796472D01*
X87918645Y31337895D01*
X88468003Y31137945D01*
X88550834Y31119582D01*
X88635596Y31123282D01*
X88716511Y31148795D01*
X88960524Y31262580D01*
X89032079Y31308166D01*
X89089397Y31370718D01*
X89121407Y31432209D01*
X89670657Y31232298D01*
X89681319Y31223910D01*
X89682155Y31220877D01*
X89681378Y31217805D01*
X89616092Y31081695D01*
X89611019Y31073336D01*
X89508103Y30936140D01*
X89501496Y30928930D01*
X89373799Y30814454D01*
X89365901Y30808663D01*
X89216206Y30720046D01*
X89211877Y30717762D01*
X88972306Y30606047D01*
X88967764Y30604195D01*
X88803658Y30546485D01*
X88794150Y30544159D01*
X88624376Y30519921D01*
X88614598Y30519494D01*
X88614598Y10783386D01*
X89995106Y10946673D01*
X89995106Y24000482D01*
X89809803Y24018733D01*
X89800206Y24020642D01*
X89622023Y24074692D01*
X89612979Y24078439D01*
X89448764Y24166213D01*
X89440632Y24171647D01*
X89296691Y24289776D01*
X89289776Y24296691D01*
X89171647Y24440632D01*
X89166213Y24448764D01*
X89078439Y24612979D01*
X89074692Y24622023D01*
X89020642Y24800206D01*
X89018733Y24809803D01*
X89000482Y24995106D01*
X89000482Y25004894D01*
X89018733Y25190197D01*
X89020642Y25199794D01*
X89074692Y25377977D01*
X89078439Y25387021D01*
X89166213Y25551236D01*
X89171647Y25559368D01*
X89289776Y25703309D01*
X89296691Y25710224D01*
X89440632Y25828353D01*
X89448764Y25833787D01*
X89612979Y25921561D01*
X89622023Y25925308D01*
X89800206Y25979358D01*
X89809803Y25981267D01*
X89927703Y25992879D01*
X89927703Y27354739D01*
X89915774Y27356188D01*
X89775385Y27390790D01*
X89764149Y27395051D01*
X89636113Y27462249D01*
X89626230Y27469072D01*
X89517994Y27564960D01*
X89510034Y27573945D01*
X89427888Y27692955D01*
X89422310Y27703583D01*
X89371031Y27838793D01*
X89368159Y27850446D01*
X89350729Y27993996D01*
X89350729Y28006004D01*
X89368159Y28149554D01*
X89371031Y28161207D01*
X89422310Y28296417D01*
X89427888Y28307045D01*
X89510034Y28426055D01*
X89517994Y28435040D01*
X89626230Y28530928D01*
X89636113Y28537751D01*
X89764149Y28604949D01*
X89775385Y28609210D01*
X89782048Y28610852D01*
X89782048Y31511687D01*
X89778915Y31512159D01*
X89224017Y31714126D01*
X89239021Y31781806D01*
X89235321Y31866568D01*
X89209808Y31947483D01*
X89096023Y32191497D01*
X89050437Y32263052D01*
X88987885Y32320370D01*
X88912629Y32359546D01*
X88363272Y32559496D01*
X88563008Y33108265D01*
X88566108Y33112206D01*
X88590876Y33115161D01*
X89115528Y32924203D01*
X89120056Y32922299D01*
X89276914Y32847061D01*
X89285264Y32841994D01*
X89422458Y32739079D01*
X89429676Y32732466D01*
X89544158Y32604761D01*
X89549934Y32596884D01*
X89638558Y32447179D01*
X89640846Y32442841D01*
X89752556Y32203279D01*
X89754406Y32198742D01*
X89812120Y32034626D01*
X89814445Y32025125D01*
X89838683Y31855348D01*
X89839110Y31845570D01*
X89829761Y31674323D01*
X89828274Y31664661D01*
X89792287Y31524250D01*
X89784983Y31512816D01*
X89782048Y31511687D01*
X89782048Y28610852D01*
X89915774Y28643812D01*
X89927703Y28645261D01*
X90072297Y28645261D01*
X90084226Y28643812D01*
X90224615Y28609210D01*
X90235851Y28604949D01*
X90363887Y28537751D01*
X90373770Y28530928D01*
X90482006Y28435040D01*
X90489966Y28426055D01*
X90572112Y28307045D01*
X90577690Y28296417D01*
X90628969Y28161207D01*
X90631841Y28149554D01*
X90649271Y28006004D01*
X90649271Y27993996D01*
X90631841Y27850446D01*
X90628969Y27838793D01*
X90577690Y27703583D01*
X90572112Y27692955D01*
X90489966Y27573945D01*
X90482006Y27564960D01*
X90373770Y27469072D01*
X90363887Y27462249D01*
X90235851Y27395051D01*
X90224615Y27390790D01*
X90084226Y27356188D01*
X90072297Y27354739D01*
X89927703Y27354739D01*
X89927703Y25992879D01*
X89995106Y25999518D01*
X90004894Y25999518D01*
X90190197Y25981267D01*
X90199794Y25979358D01*
X90377977Y25925308D01*
X90387021Y25921561D01*
X90551236Y25833787D01*
X90559368Y25828353D01*
X90703309Y25710224D01*
X90710224Y25703309D01*
X90828353Y25559368D01*
X90833787Y25551236D01*
X90921561Y25387021D01*
X90925308Y25377977D01*
X90979358Y25199794D01*
X90981267Y25190197D01*
X90999518Y25004894D01*
X90999518Y24995106D01*
X90981267Y24809803D01*
X90979358Y24800206D01*
X90925308Y24622023D01*
X90921561Y24612979D01*
X90833787Y24448764D01*
X90828353Y24440632D01*
X90710224Y24296691D01*
X90703309Y24289776D01*
X90559368Y24171647D01*
X90551236Y24166213D01*
X90387021Y24078439D01*
X90377977Y24074692D01*
X90199794Y24020642D01*
X90190197Y24018733D01*
X90004894Y24000482D01*
X89995106Y24000482D01*
X89995106Y10946673D01*
X92598479Y11254599D01*
X92655105Y11280933D01*
X92686665Y11357576D01*
X92557394Y14877443D01*
X92557383Y14877765D01*
X92557382Y14877765D01*
X92557289Y14880726D01*
X92454403Y18770645D01*
X92454337Y18773724D01*
X92454332Y18774010D01*
X92391396Y22664239D01*
X92391389Y22664753D01*
X92391358Y22667575D01*
X92391357Y22667764D01*
X92368361Y26558793D01*
X92368359Y26561608D01*
X92368360Y26562097D01*
X92385311Y30452959D01*
X92385312Y30453116D01*
X92385340Y30456088D01*
X92385341Y30456196D01*
X92442238Y34346787D01*
X92442247Y34347306D01*
X92442299Y34349954D01*
X92442300Y34349954D01*
X92442308Y34350342D01*
X92539139Y38239898D01*
X92539153Y38240396D01*
X92539152Y38240396D01*
X92539232Y38243061D01*
X92539246Y38243507D01*
X92541000Y38293364D01*
X92534596Y38332254D01*
X73606155Y88380335D01*
X73559076Y88433514D01*
X35296000Y108505948D01*
X35234405Y108516240D01*
X35178714Y108487982D01*
X35153395Y108444866D01*
X25289715Y73921986D01*
X25286420Y73913484D01*
X25243999Y73828104D01*
X25233172Y73813681D01*
X25166399Y73752218D01*
X25151139Y73742626D01*
X25066006Y73708785D01*
X25049985Y73705326D01*
X24973254Y73701724D01*
X24965850Y73701927D01*
X-23965244Y78694895D01*
X-23997527Y78692932D01*
X-25179929Y78424591D01*
X-25182940Y78423859D01*
X-26413996Y78104060D01*
X-26416983Y78103234D01*
X-27637483Y77745459D01*
X-27640443Y77744541D01*
X-28849284Y77349112D01*
X-28852214Y77348103D01*
X-30048166Y76915428D01*
X-30051064Y76914329D01*
X-31233089Y76444779D01*
X-31235951Y76443590D01*
X-32402851Y75937643D01*
X-32405674Y75936367D01*
X-33556350Y75394498D01*
X-33559133Y75393134D01*
X-34692434Y74815884D01*
X-34695174Y74814435D01*
X-35810066Y74202334D01*
X-35812759Y74200800D01*
X-36908129Y73554457D01*
X-36910773Y73552841D01*
X-37985603Y72872857D01*
X-37988196Y72871160D01*
X-39041444Y72158194D01*
X-39043983Y72156417D01*
X-40074601Y71411180D01*
X-40077084Y71409326D01*
X-41084177Y70632463D01*
X-41086601Y70630532D01*
X-42069088Y69822874D01*
X-42071451Y69820869D01*
X-43028431Y68983165D01*
X-43030731Y68981088D01*
X-43961314Y68114112D01*
X-43963549Y68111965D01*
X-44866847Y67216542D01*
X-44869013Y67214326D01*
X-45744072Y66291407D01*
X-45746170Y66289126D01*
X-46592265Y65339474D01*
X-46594290Y65337128D01*
X-47410514Y64361756D01*
X-47412466Y64359349D01*
X-48198108Y63359113D01*
X-48199984Y63356646D01*
X-48954211Y62332604D01*
X-48956010Y62330081D01*
X-49678187Y61283094D01*
X-49679907Y61280516D01*
X-50369272Y60211693D01*
X-50370911Y60209063D01*
X-51026817Y59119404D01*
X-51028374Y59116724D01*
X-51650224Y58007219D01*
X-51651697Y58004493D01*
X-52238850Y56876288D01*
X-52240238Y56873517D01*
X-52792162Y55727634D01*
X-52793463Y55724821D01*
X-53309595Y54562429D01*
X-53310809Y54559578D01*
X-53790691Y53381714D01*
X-53791816Y53378826D01*
X-54234975Y52186639D01*
X-54236009Y52183718D01*
X-54641991Y50978434D01*
X-54642935Y50975482D01*
X-55011391Y49758145D01*
X-55012243Y49755166D01*
X-55342797Y48527010D01*
X-55343556Y48524005D01*
X-55635901Y47286164D01*
X-55636566Y47283137D01*
X-55890404Y46036878D01*
X-55890975Y46033832D01*
X-56106067Y44780350D01*
X-56106544Y44777288D01*
X-56282706Y43517632D01*
X-56283088Y43514557D01*
X-56420126Y42250132D01*
X-56420412Y42247046D01*
X-56518206Y40978919D01*
X-56518396Y40975826D01*
X-56576845Y39705334D01*
X-56576940Y39702236D01*
X-56595993Y38430523D01*
G37*
G36*
X90000000Y63099999D02*
X90019500Y63040672D01*
X90099999Y63000000D01*
X98900001Y63000000D01*
X98959328Y63019500D01*
X99000000Y63099999D01*
X99000000Y71900001D01*
X98980500Y71959328D01*
X98900001Y72000000D01*
X90099999Y72000000D01*
X90040672Y71980500D01*
X90000000Y71900001D01*
X90000000Y63099999D01*
G37*
G04 #@! TO.N,N3*
G36*
X30002048Y48041690D02*
X30028200Y47969225D01*
X30290249Y47683249D01*
X30293058Y47679901D01*
X30553270Y47340787D01*
X30555768Y47337219D01*
X30785427Y46976726D01*
X30787620Y46972927D01*
X30984987Y46593791D01*
X30986829Y46589840D01*
X31150405Y46194932D01*
X31151897Y46190831D01*
X31280434Y45783165D01*
X31281560Y45778967D01*
X31374078Y45361642D01*
X31374834Y45357355D01*
X31430628Y44933558D01*
X31431007Y44929220D01*
X31449652Y44502176D01*
X31449652Y44497824D01*
X31431007Y44070780D01*
X31430628Y44066442D01*
X31374834Y43642645D01*
X31374078Y43638358D01*
X31281560Y43221033D01*
X31280434Y43216835D01*
X31151897Y42809169D01*
X31150405Y42805068D01*
X30986829Y42410160D01*
X30984987Y42406209D01*
X30787620Y42027073D01*
X30785427Y42023274D01*
X30555768Y41662781D01*
X30553270Y41659213D01*
X30293058Y41320099D01*
X30290249Y41316751D01*
X30038378Y41041882D01*
X30012674Y40984968D01*
X30016323Y40945589D01*
X31793014Y35023286D01*
X31828739Y34972065D01*
X31888796Y34952022D01*
X32232734Y34952022D01*
X32234791Y34951980D01*
X32257541Y34951038D01*
X32259565Y34950912D01*
X32723421Y34912476D01*
X32725533Y34912257D01*
X32748083Y34909446D01*
X32750095Y34909153D01*
X33209221Y34832539D01*
X33211269Y34832154D01*
X33233513Y34827490D01*
X33235519Y34827026D01*
X33686769Y34712754D01*
X33688710Y34712220D01*
X33710541Y34705720D01*
X33712477Y34705100D01*
X34152758Y34553951D01*
X34154666Y34553252D01*
X34175893Y34544969D01*
X34177756Y34544197D01*
X34604023Y34357219D01*
X34605896Y34356351D01*
X34626348Y34346352D01*
X34628167Y34345415D01*
X35037514Y34123888D01*
X35039330Y34122856D01*
X35058888Y34111203D01*
X35060584Y34110144D01*
X35450269Y33855550D01*
X35452006Y33854364D01*
X35470494Y33841164D01*
X35472145Y33839933D01*
X35839472Y33554030D01*
X35841074Y33552729D01*
X35858416Y33538040D01*
X35859965Y33536673D01*
X36199817Y33223816D01*
X36205930Y33217059D01*
X36262819Y33141272D01*
X36271132Y33124039D01*
X36298339Y33019705D01*
X36299892Y33009577D01*
X36317936Y32642273D01*
X36318898Y32632507D01*
X36370730Y32283088D01*
X36372645Y32273463D01*
X36458472Y31930825D01*
X36461320Y31921435D01*
X36580325Y31588835D01*
X36584081Y31579768D01*
X36735113Y31260438D01*
X36739739Y31251783D01*
X36861530Y31048589D01*
X36908756Y31007727D01*
X36947302Y31000000D01*
X37900001Y31000000D01*
X37959328Y31019500D01*
X38000000Y31099999D01*
X38000000Y47997536D01*
X37999880Y48002443D01*
X37980980Y48387164D01*
X37980018Y48396930D01*
X37923861Y48775506D01*
X37921946Y48785131D01*
X37828954Y49156376D01*
X37826106Y49165766D01*
X37697175Y49526106D01*
X37693419Y49535173D01*
X37529786Y49881144D01*
X37525160Y49889799D01*
X37328402Y50218070D01*
X37322950Y50226229D01*
X37094967Y50533629D01*
X37088741Y50541215D01*
X36831726Y50824787D01*
X36824787Y50831726D01*
X36541215Y51088741D01*
X36533629Y51094967D01*
X36226229Y51322950D01*
X36218070Y51328402D01*
X35889799Y51525160D01*
X35881144Y51529786D01*
X35535173Y51693419D01*
X35526106Y51697175D01*
X35165766Y51826106D01*
X35156376Y51828954D01*
X34785131Y51921946D01*
X34775506Y51923861D01*
X34396930Y51980018D01*
X34387164Y51980980D01*
X34004907Y51999759D01*
X33995093Y51999759D01*
X33612836Y51980980D01*
X33603070Y51980018D01*
X33224494Y51923861D01*
X33214869Y51921946D01*
X32843624Y51828954D01*
X32834234Y51826106D01*
X32473894Y51697175D01*
X32464827Y51693419D01*
X32118856Y51529786D01*
X32110201Y51525160D01*
X31781930Y51328402D01*
X31773771Y51322950D01*
X31466371Y51094967D01*
X31458785Y51088741D01*
X31175213Y50831726D01*
X31168274Y50824787D01*
X30911259Y50541215D01*
X30905033Y50533629D01*
X30677050Y50226229D01*
X30671598Y50218070D01*
X30474840Y49889799D01*
X30470214Y49881144D01*
X30306581Y49535173D01*
X30302825Y49526106D01*
X30173894Y49165766D01*
X30171046Y49156376D01*
X30078054Y48785131D01*
X30076139Y48775506D01*
X30019982Y48396930D01*
X30019020Y48387164D01*
X30002048Y48041690D01*
G37*
G04 --- BOARD END --- *
G04 #@! TF.MD5,cd71bb2c5df8baa13340bd31e9b1767f*
M02*
