M48
; #@! TF.GenerationSoftware,LibrePCB,LibrePCB,2.1.1
; #@! TF.CreationDate,2026-06-30T21:45:21
; #@! TF.ProjectId,test_project,7c04f9d5-7366-4c4b-9e17-852ed57b3966,v1
; #@! TF.Part,Single
; #@! TF.SameCoordinates
; #@! TF.FileFunction,NonPlated,1,2,NPTH
FMAT,2
METRIC,TZ
; #@! TA.AperFunction,MechanicalDrill
T1C1.0
; #@! TA.AperFunction,MechanicalDrill
T2C1.6
; #@! TA.AperFunction,MechanicalDrill
T3C2.0
; #@! TA.AperFunction,MechanicalDrill
T4C3.0
%
G90
G05
M71
T1
X92.0Y70.0
T2
G00X-22.308026Y16.641974
M15
G03X-21.0Y18.438026A1.571104
G01X-20.0Y20.0
G02X-19.0Y23.0A2.236068
M16
G05
G00X-12.241974Y21.0
M15
G02X-12.109133Y19.064775A1.266101
G02X-14.038026Y19.27A1.266101
M16
G05
G00X-15.561974Y22.0
M15
G01X-17.358026Y18.341974
M16
G05
G00X-16.758026Y44.0
M15
G02X-16.890867Y45.935225A1.266101
G02X-14.961974Y45.73A1.266101
M16
G05
G00X3.561974Y44.0
M15
G01X5.358026Y47.658026
M16
G05
G00X-13.691974Y60.358026
M15
G03X-15.0Y58.561974A1.571104
G01X-16.0Y57.0
G02X-17.0Y54.0A2.236068
M16
G05
G00X72.290556Y30.424946
M15
G03X74.032931Y31.277516A1.266101
G03X72.890754Y32.845373A1.266101
M16
G05
G00X62.130556Y48.022582
M15
G01X64.400473Y51.407022
M16
G05
G00X84.923996Y41.259238
M15
G02X84.022582Y39.228428A1.571104
G01X83.169873Y37.581416
G03X81.071797Y35.21539A2.236068
M16
G05
T3
X56.0Y73.0
X-20.0Y44.0
X48.0Y20.0
T4
X-15.86Y28.98
X4.46Y59.46
X58.833841Y23.692659
X75.070295Y56.530295
T0
M30
