G04 --- HEADER BEGIN --- *
G04 #@! TF.GenerationSoftware,LibrePCB,LibrePCB,2.1.1*
G04 #@! TF.CreationDate,2026-06-30T21:45:21*
G04 #@! TF.ProjectId,test_project,7c04f9d5-7366-4c4b-9e17-852ed57b3966,v1*
G04 #@! TF.Part,Single*
G04 #@! TF.SameCoordinates*
G04 #@! TF.FileFunction,Copper,L2,Bot*
G04 #@! TF.FilePolarity,Positive*
%FSLAX66Y66*%
%MOMM*%
G01*
G75*
G04 --- HEADER END --- *
G04 --- APERTURE LIST BEGIN --- *
G04 #@! TA.AperFunction,ComponentPad*
%AMOUTLINE10*4,1,23,-0.746681,-0.498916,-0.829667,-0.34366,-0.88077,-0.175196,-0.898026,0.0,-0.88077,0.175196,-0.829667,0.34366,-0.746681,0.498916,-0.635,0.635,0.635,0.635,0.786965,0.616548,0.930099,0.562265,1.056083,0.475304,1.157595,0.360721,1.228735,0.225174,1.26537,0.076541,1.26537,-0.076541,1.228735,-0.225174,1.157595,-0.360721,1.056083,-0.475304,0.930099,-0.562265,0.786965,-0.616548,0.635,-0.635,-0.635,-0.635,-0.746681,-0.498916,100.0*%
%ADD10OUTLINE10*%
G04 #@! TA.AperFunction,FiducialPad,Local*
%AMROTATEDRECT11*20,1,1.27,-1.27,0.0,1.27,0.0,120.0*%
%ADD11ROTATEDRECT11*%
G04 #@! TA.AperFunction,FiducialPad,Global*
%AMROTATEDOCTAGON12*4,1,8,1.0,0.207107,0.707107,0.5,-0.707107,0.5,-1.0,0.207107,-1.0,-0.207107,-0.707107,-0.5,0.707107,-0.5,1.0,-0.207107,1.0,0.207107,100.0*%
%ADD12ROTATEDOCTAGON12*%
G04 #@! TA.AperFunction,SMDPad,CuDef*
%AMROUNDEDRECT13*20,1,1.0,-0.75,0.0,0.75,0.0,120.0*20,1,0.5,-1.0,0.0,1.0,0.0,120.0*1,1,0.5,0.158494,-0.774519*1,1,0.5,-0.591506,0.524519*1,1,0.5,-0.158494,0.774519*1,1,0.5,0.591506,-0.524519*%
%ADD13ROUNDEDRECT13*%
G04 #@! TA.AperFunction,ComponentPad*
%AMROTATEDOBROUND14*1,1,1.27,0.3175,-0.549926*1,1,1.27,-0.3175,0.549926*20,1,1.27,0.3175,-0.549926,-0.3175,0.549926,0*%
%ADD14ROTATEDOBROUND14*%
%AMROTATEDOCTAGON15*4,1,8,1.5,0.414214,0.914214,1.0,-0.914214,1.0,-1.5,0.414214,-1.5,-0.414214,-0.914214,-1.0,0.914214,-1.0,1.5,-0.414214,1.5,0.414214,50.0*%
%ADD15ROTATEDOCTAGON15*%
G04 #@! TA.AperFunction,SMDPad,CuDef*
%AMROTATEDOBROUND16*1,1,1.0,-0.433013,-0.25*1,1,1.0,0.433013,0.25*20,1,1.0,-0.433013,-0.25,0.433013,0.25,0*%
%ADD16ROTATEDOBROUND16*%
G04 #@! TA.AperFunction,Conductor*
%ADD17C,0.2*%
G04 #@! TA.AperFunction,NonConductor*
%ADD18C,0.2*%
G04 #@! TA.AperFunction,ComponentPad*
%AMOUTLINE19*4,1,23,0.746681,-0.498916,0.829667,-0.34366,0.88077,-0.175196,0.898026,0.0,0.88077,0.175196,0.829667,0.34366,0.746681,0.498916,0.635,0.635,-0.635,0.635,-0.786965,0.616548,-0.930099,0.562265,-1.056083,0.475304,-1.157595,0.360721,-1.228735,0.225174,-1.26537,0.076541,-1.26537,-0.076541,-1.228735,-0.225174,-1.157595,-0.360721,-1.056083,-0.475304,-0.930099,-0.562265,-0.786965,-0.616548,-0.635,-0.635,0.635,-0.635,0.746681,-0.498916,200.0*%
%ADD19OUTLINE19*%
G04 #@! TA.AperFunction,FiducialPad,Local*
%ADD20R,2.54X1.27*%
G04 #@! TA.AperFunction,SMDPad,CuDef*
%AMROTATEDOCTAGON21*4,1,8,1.0,0.207107,0.707107,0.5,-0.707107,0.5,-1.0,0.207107,-1.0,-0.207107,-0.707107,-0.5,0.707107,-0.5,1.0,-0.207107,1.0,0.207107,20.0*%
%ADD21ROTATEDOCTAGON21*%
G04 #@! TA.AperFunction,ComponentPad*
%ADD22O,2.54X1.27*%
%AMROTATEDOCTAGON23*4,1,8,1.5,0.414214,0.914214,1.0,-0.914214,1.0,-1.5,0.414214,-1.5,-0.414214,-0.914214,-1.0,0.914214,-1.0,1.5,-0.414214,1.5,0.414214,70.0*%
%ADD23ROTATEDOCTAGON23*%
G04 #@! TA.AperFunction,Conductor*
%ADD24C,0.01*%
G04 #@! TA.AperFunction,ViaPad*
%ADD25C,1.485*%
G04 #@! TA.AperFunction,ComponentPad*
%AMROTATEDOBROUND26*1,1,1.3,-0.563816,-0.205212*1,1,1.3,0.563816,0.205212*20,1,1.3,-0.563816,-0.205212,0.563816,0.205212,0*%
%ADD26ROTATEDOBROUND26*%
G04 #@! TA.AperFunction,SMDPad,CuDef*
%AMROUNDEDRECT27*20,1,0.7,-0.575,0.0,0.575,0.0,20.0*20,1,0.35,-0.75,0.0,0.75,0.0,20.0*1,1,0.35,-0.600177,-0.032215*1,1,0.35,0.48047,0.361108*1,1,0.35,0.600177,0.032215*1,1,0.35,-0.48047,-0.361108*%
%ADD27ROUNDEDRECT27*%
G04 #@! TA.AperFunction,ViaPad*
%ADD28C,0.7*%
%ADD29C,2.0*%
%ADD30C,0.8*%
G04 #@! TA.AperFunction,Conductor*
%ADD31C,0.5*%
G04 #@! TA.AperFunction,ComponentPad*
%AMROUNDEDOCTAGON32*4,1,16,1.25,0.134619,1.15481,0.364429,0.964429,0.55481,0.734619,0.65,-0.734619,0.65,-0.964429,0.55481,-1.15481,0.364429,-1.25,0.134619,-1.25,-0.134619,-1.15481,-0.364429,-0.964429,-0.55481,-0.734619,-0.65,0.734619,-0.65,0.964429,-0.55481,1.15481,-0.364429,1.25,-0.134619,1.25,0.134619,160.0*1,1,0.65,-0.801473,-0.054146*1,1,0.65,0.57916,-0.556655*1,1,0.65,0.823173,-0.442869*1,1,0.65,0.915258,-0.189868*1,1,0.65,0.801473,0.054146*1,1,0.65,-0.57916,0.556655*1,1,0.65,-0.823173,0.442869*1,1,0.65,-0.915258,0.189868*%
%ADD32ROUNDEDOCTAGON32*%
G04 #@! TD*
G04 --- APERTURE LIST END --- *
G04 --- BOARD BEGIN --- *
D10*
G04 #@! TO.N,N/C*
G04 #@! TO.C,D2*
G04 #@! TO.P,D2,4,4*
X60012659Y41970886D03*
D11*
G04 #@! TO.N,N3*
G04 #@! TO.P,D2,2,2*
X55613250Y39430886D03*
D12*
G04 #@! TO.N,Special*
G04 #@! TO.P,D2,7,6*
X62892955Y31902068D03*
D13*
G04 #@! TO.N,N/C*
G04 #@! TO.P,D2,5,5*
X58493546Y29362068D03*
D14*
G04 #@! TO.N,N3*
G04 #@! TO.P,D2,1,1*
X53413546Y38160886D03*
D15*
G04 #@! TO.N,GND*
G04 #@! TO.P,D2,3,3*
X57812955Y40700886D03*
D16*
G04 #@! TO.N,Special*
G04 #@! TO.P,D2,6,6*
X60693250Y30632068D03*
D17*
G04 #@! TD.P*
G04 #@! TO.N,*
X54683546Y35961182D02*
X57223546Y31561773D01*
X58153250Y35031477D01*
X54683546Y35961182D01*
D18*
X63131520Y35615525D02*
X63298186Y35326850D01*
X62844967Y35065184D02*
X63710992Y35565184D01*
X63472658Y35977990D01*
X62311633Y35988945D02*
X62400232Y35931043D01*
X62465498Y35913555D01*
X62571178Y35919400D01*
X62819439Y36062733D01*
X62877341Y36151332D01*
X62894829Y36216598D01*
X62888984Y36322278D01*
X62817317Y36446408D01*
X62728162Y36505273D01*
X62662896Y36522761D01*
X62557772Y36515953D01*
X62309511Y36372619D01*
X62251054Y36284983D01*
X62233566Y36219718D01*
X62239967Y36113075D01*
X62311633Y35988945D01*
X61849967Y36788574D02*
X61938566Y36730673D01*
X62003832Y36713185D01*
X62109511Y36719030D01*
X62357772Y36862363D01*
X62415674Y36950962D01*
X62433162Y37016228D01*
X62427317Y37121908D01*
X62355651Y37246038D01*
X62266496Y37304903D01*
X62201230Y37322391D01*
X62096106Y37315583D01*
X61847845Y37172249D01*
X61789387Y37084613D01*
X61771899Y37019347D01*
X61778300Y36912704D01*
X61849967Y36788574D01*
X61769853Y37974001D02*
X61657772Y38074799D01*
X61593062Y38091324D01*
X61486419Y38084923D01*
X61362289Y38013256D01*
X61304388Y37924657D01*
X61286344Y37860354D01*
X61292745Y37753711D01*
X61483300Y37423659D01*
X62349325Y37923659D01*
X62182659Y38212334D01*
X62093504Y38271199D01*
X62028238Y38288687D01*
X61923114Y38281879D01*
X61840360Y38234101D01*
X61780940Y38145910D01*
X61763452Y38080644D01*
X61769853Y37974001D01*
X61936520Y37685326D01*
X60759411Y38677472D02*
X61212631Y38939138D01*
X61319274Y38945539D01*
X61408429Y38886675D01*
X61503429Y38722130D01*
X61509829Y38615488D01*
X60800788Y38701361D02*
X60807189Y38594718D01*
X60926078Y38388796D01*
X61015233Y38329932D01*
X61121875Y38336333D01*
X61203666Y38383555D01*
X61262530Y38472710D01*
X61256130Y38579352D01*
X61137241Y38785274D01*
X61130840Y38891916D01*
X60559411Y39023882D02*
X61136762Y39357216D01*
X60972217Y39262216D02*
X61030119Y39350815D01*
X61047607Y39416081D01*
X61041762Y39521760D01*
X60993984Y39604514D01*
D19*
G04 #@! TO.N,N3*
G04 #@! TO.C,D1*
G04 #@! TO.P,D1,4,4*
X-620000Y39140000D03*
D20*
G04 #@! TO.N,N/C*
G04 #@! TO.P,D1,2,2*
X-620000Y34060000D03*
D21*
G04 #@! TO.N,Special*
G04 #@! TO.P,D1,8,!8*
X-10780000Y39140000D03*
D22*
G04 #@! TO.N,FOO*
G04 #@! TO.P,D1,1,1*
X-620000Y31520000D03*
D23*
G04 #@! TO.N,VCC*
G04 #@! TO.P,D1,3,3*
X-620000Y36600000D03*
D24*
G04 #@! TD.P*
G04 #@! TA.AperFunction,Conductor*
G04 #@! TO.N,*
G36*
X-3160000Y36600000D02*
X-8240000Y36600000D01*
X-5700000Y34060000D01*
X-3160000Y36600000D01*
G37*
D25*
G04 #@! TD.AperFunction*
G04 #@! TD.C*
G04 #@! TO.N,Special*
X20000000Y42000000D03*
D26*
G04 #@! TO.N,N/C*
X88000000Y37000000D03*
D27*
G04 #@! TO.N,FOO*
X85000000Y26000000D03*
D28*
G04 #@! TO.N,Special*
X12000000Y42000000D03*
D29*
G04 #@! TO.N,GND*
X16000000Y46000000D03*
D30*
G04 #@! TO.N,Special*
X16000000Y42000000D03*
D28*
G04 #@! TO.N,GND*
X10000000Y44000000D03*
G04 #@! TO.N,N/C*
X18000000Y32000000D03*
D29*
G04 #@! TO.N,GND*
X20000000Y46000000D03*
D31*
X57812955Y47187045D02*
X49000000Y56000000D01*
X57812955Y40700886D02*
X57812955Y47187045D01*
X20000000Y46000000D02*
X20000000Y51000000D01*
X20000000Y51000000D02*
X25000000Y56000000D01*
X25000000Y56000000D02*
X49000000Y56000000D01*
D32*
G04 #@! TO.N,FOO*
X88000000Y32000000D03*
D30*
G04 #@! TO.N,GND*
X14000000Y44000000D03*
D29*
X12000000Y46000000D03*
D28*
X18000000Y44000000D03*
G04 #@! TO.N,N/C*
X14000000Y32000000D03*
X10000000Y32000000D03*
D31*
X11000000Y34000000D02*
X13000000Y34000000D01*
X10000000Y32000000D02*
X10000000Y33000000D01*
X14000000Y32000000D02*
X14000000Y33000000D01*
X13000000Y34000000D02*
X14000000Y33000000D01*
X11000000Y34000000D02*
X10000000Y33000000D01*
D24*
G04 #@! TA.AperFunction,Conductor*
G04 #@! TO.N,FOO*
G36*
X-23994967Y12153518D02*
X-23977422Y12093584D01*
X-23927740Y12055746D01*
X-23857576Y12057518D01*
X-22335153Y12672342D01*
X-22335153Y15542726D01*
X-22344346Y15542991D01*
X-22536677Y15566427D01*
X-22545669Y15568378D01*
X-22730416Y15626755D01*
X-22738896Y15630325D01*
X-22909762Y15721650D01*
X-22917454Y15726726D01*
X-23068627Y15847890D01*
X-23075253Y15854291D01*
X-23201594Y16001176D01*
X-23206924Y16008675D01*
X-23304122Y16176273D01*
X-23307989Y16184634D01*
X-23372735Y16367238D01*
X-23374998Y16376161D01*
X-23405090Y16567562D01*
X-23405674Y16576740D01*
X-23400085Y16770401D01*
X-23398970Y16779551D01*
X-23357890Y16968884D01*
X-23355116Y16977665D01*
X-23279945Y17156230D01*
X-23275606Y17164348D01*
X-23168898Y17326070D01*
X-23163148Y17333244D01*
X-23028542Y17472602D01*
X-23021564Y17478605D01*
X-22863646Y17590853D01*
X-22855683Y17595471D01*
X-22679832Y17676791D01*
X-22671153Y17679869D01*
X-22480730Y17728156D01*
X-22477018Y17729174D01*
X-22373541Y17759697D01*
X-22349680Y17770288D01*
X-22267212Y17820696D01*
X-22246906Y17837101D01*
X-22180296Y17907134D01*
X-22164929Y17928235D01*
X-22118714Y18013121D01*
X-22109330Y18037483D01*
X-22086661Y18131437D01*
X-22083903Y18157395D01*
X-22086605Y18265270D01*
X-22086776Y18269116D01*
X-22092580Y18360335D01*
X-22092677Y18361711D01*
X-22099518Y18449988D01*
X-22099341Y18461725D01*
X-22099345Y18461915D01*
X-22099334Y18462452D01*
X-22099323Y18462607D01*
X-22098985Y18474344D01*
X-22088256Y18562390D01*
X-22088099Y18563761D01*
X-22078599Y18651822D01*
X-22076266Y18663341D01*
X-22076239Y18663506D01*
X-22076130Y18664024D01*
X-22076088Y18664187D01*
X-22073597Y18675671D01*
X-22046874Y18760239D01*
X-22046468Y18761557D01*
X-22020950Y18846368D01*
X-22016541Y18857260D01*
X-22016480Y18857429D01*
X-22016281Y18857912D01*
X-22016213Y18858057D01*
X-22011649Y18868898D01*
X-21969841Y18947119D01*
X-21969199Y18948339D01*
X-21927462Y19029086D01*
X-21925165Y19033068D01*
X-21244486Y20096270D01*
X-21230735Y20170236D01*
X-21298335Y20500582D01*
X-21299115Y20505762D01*
X-21332471Y20848096D01*
X-21332705Y20853316D01*
X-21330094Y21197269D01*
X-21329781Y21202475D01*
X-21291231Y21544273D01*
X-21290374Y21549429D01*
X-21216309Y21885319D01*
X-21214917Y21890360D01*
X-21106153Y22216655D01*
X-21104237Y22221534D01*
X-20961959Y22534678D01*
X-20959549Y22539321D01*
X-20785313Y22835885D01*
X-20782432Y22840247D01*
X-20578152Y23116971D01*
X-20574837Y23121002D01*
X-20342750Y23374860D01*
X-20339021Y23378533D01*
X-20081662Y23606747D01*
X-20077596Y23609988D01*
X-19797787Y23810053D01*
X-19793390Y23812861D01*
X-19495085Y23982082D01*
X-19488561Y23985182D01*
X-19307079Y24055834D01*
X-19298231Y24058367D01*
X-19107842Y24094281D01*
X-19098680Y24095146D01*
X-18904932Y24095465D01*
X-18895764Y24094631D01*
X-18705268Y24059345D01*
X-18696398Y24056838D01*
X-18515626Y23987149D01*
X-18507377Y23983058D01*
X-18342487Y23881339D01*
X-18335125Y23875798D01*
X-18191731Y23745509D01*
X-18185524Y23738723D01*
X-18068508Y23584299D01*
X-18063651Y23576484D01*
X-17977003Y23403188D01*
X-17973665Y23394611D01*
X-17920338Y23208356D01*
X-17918629Y23199299D01*
X-17900435Y23006419D01*
X-17900421Y22997203D01*
X-17917979Y22804260D01*
X-17919654Y22795215D01*
X-17972371Y22608769D01*
X-17975679Y22600186D01*
X-18061755Y22426607D01*
X-18066589Y22418771D01*
X-18183088Y22263971D01*
X-18189280Y22257155D01*
X-18332244Y22126394D01*
X-18339582Y22120834D01*
X-18508065Y22016129D01*
X-18669340Y21917047D01*
X-18683340Y21906663D01*
X-18818415Y21786886D01*
X-18830400Y21774228D01*
X-18942624Y21632814D01*
X-18952228Y21618267D01*
X-19038192Y21459511D01*
X-19045124Y21443518D01*
X-19102211Y21272255D01*
X-19106261Y21255301D01*
X-19132742Y21076725D01*
X-19133787Y21059326D01*
X-19128856Y20878857D01*
X-19126863Y20861540D01*
X-19090669Y20684671D01*
X-19085699Y20667964D01*
X-19016129Y20491935D01*
X-19016125Y20491925D01*
X-18995711Y20439486D01*
X-18992701Y20432544D01*
X-18970411Y20386036D01*
X-18967213Y20377398D01*
X-18959034Y20346914D01*
X-18955637Y20336550D01*
X-18944167Y20307087D01*
X-18941631Y20298228D01*
X-18932056Y20247468D01*
X-18930373Y20240089D01*
X-18917008Y20190280D01*
X-18915451Y20181193D01*
X-18913014Y20149737D01*
X-18911580Y20138925D01*
X-18905717Y20107843D01*
X-18904852Y20098680D01*
X-18904767Y20047012D01*
X-18904468Y20039452D01*
X-18900485Y19988042D01*
X-18900623Y19978827D01*
X-18904008Y19947456D01*
X-18904585Y19936563D01*
X-18904533Y19904932D01*
X-18905367Y19895766D01*
X-18914777Y19844967D01*
X-18915873Y19837478D01*
X-18921404Y19786202D01*
X-18923231Y19777184D01*
X-18932328Y19746947D01*
X-18934895Y19736350D01*
X-18940653Y19705267D01*
X-18943159Y19696402D01*
X-18961742Y19648199D01*
X-18964195Y19641039D01*
X-18979055Y19591649D01*
X-18982509Y19583119D01*
X-18997005Y19555072D01*
X-19001477Y19545126D01*
X-19012850Y19515624D01*
X-19016942Y19507372D01*
X-19044058Y19463417D01*
X-19047785Y19456830D01*
X-19072534Y19408947D01*
X-19074834Y19404960D01*
X-19871347Y18160827D01*
X-19887096Y18109439D01*
X-19890666Y17968361D01*
X-19891184Y17962338D01*
X-19937272Y17649204D01*
X-19938506Y17643312D01*
X-20022005Y17338002D01*
X-20023943Y17332295D01*
X-20143632Y17039282D01*
X-20146244Y17033851D01*
X-20300382Y16757396D01*
X-20303626Y16752325D01*
X-20489961Y16496467D01*
X-20493798Y16491817D01*
X-20709611Y16260290D01*
X-20713984Y16256133D01*
X-20956132Y16052307D01*
X-20960970Y16048711D01*
X-21225917Y15875560D01*
X-21231161Y15872568D01*
X-21515048Y15732616D01*
X-21520607Y15730281D01*
X-21819294Y15625569D01*
X-21825100Y15623919D01*
X-22133449Y15556144D01*
X-22141000Y15555080D01*
X-22335153Y15542726D01*
X-22335153Y12672342D01*
X-17356487Y14682957D01*
X-17356487Y17242393D01*
X-17549499Y17259191D01*
X-17558561Y17260832D01*
X-17745209Y17312813D01*
X-17753802Y17316087D01*
X-17927722Y17401480D01*
X-17935573Y17406281D01*
X-18090834Y17522173D01*
X-18097671Y17528336D01*
X-18228998Y17670788D01*
X-18234583Y17678098D01*
X-18337496Y17842253D01*
X-18341648Y17850477D01*
X-18412640Y18030733D01*
X-18415213Y18039588D01*
X-18451875Y18229826D01*
X-18452776Y18238987D01*
X-18453858Y18432728D01*
X-18453060Y18441900D01*
X-18418524Y18632535D01*
X-18416052Y18641413D01*
X-18346248Y18824629D01*
X-18344414Y18828845D01*
X-16550393Y22482734D01*
X-16548176Y22486769D01*
X-16445892Y22654043D01*
X-16440387Y22661418D01*
X-16310662Y22805324D01*
X-16303897Y22811561D01*
X-16149942Y22929180D01*
X-16142134Y22934075D01*
X-15969186Y23021402D01*
X-15960627Y23024773D01*
X-15774574Y23078834D01*
X-15765534Y23080576D01*
X-15572719Y23099531D01*
X-15563514Y23099582D01*
X-15370505Y23082783D01*
X-15361435Y23081140D01*
X-15174797Y23029163D01*
X-15166196Y23025886D01*
X-14992279Y22940495D01*
X-14984428Y22935694D01*
X-14829173Y22819808D01*
X-14822322Y22813632D01*
X-14691004Y22671188D01*
X-14685418Y22663876D01*
X-14582504Y22499721D01*
X-14578356Y22491505D01*
X-14507361Y22311243D01*
X-14504788Y22302388D01*
X-14468126Y22112150D01*
X-14467225Y22102989D01*
X-14466143Y21909248D01*
X-14466941Y21900075D01*
X-14501477Y21709437D01*
X-14503946Y21700568D01*
X-14573752Y21517345D01*
X-14575586Y21513129D01*
X-16369607Y17859240D01*
X-16371824Y17855205D01*
X-16474108Y17687931D01*
X-16479613Y17680556D01*
X-16609338Y17536650D01*
X-16616102Y17530413D01*
X-16770058Y17412795D01*
X-16777867Y17407899D01*
X-16950814Y17320573D01*
X-16959373Y17317202D01*
X-17145426Y17263140D01*
X-17154466Y17261398D01*
X-17347282Y17242444D01*
X-17356487Y17242393D01*
X-17356487Y14682957D01*
X-12859196Y16499170D01*
X-12859196Y17614239D01*
X-13158407Y17616942D01*
X-13164850Y17617417D01*
X-13461204Y17658672D01*
X-13467531Y17659974D01*
X-13756105Y17739094D01*
X-13762192Y17741195D01*
X-14038150Y17856856D01*
X-14043940Y17859736D01*
X-14302685Y18010010D01*
X-14308040Y18013603D01*
X-14545249Y18195979D01*
X-14550102Y18200236D01*
X-14761830Y18411683D01*
X-14766079Y18416513D01*
X-14948351Y18652939D01*
X-14952637Y18659505D01*
X-15045808Y18830160D01*
X-15049458Y18838618D01*
X-15109470Y19022830D01*
X-15111502Y19031815D01*
X-15136643Y19223911D01*
X-15136991Y19233119D01*
X-15126406Y19426572D01*
X-15125057Y19435679D01*
X-15079103Y19623895D01*
X-15076103Y19632601D01*
X-14996350Y19809165D01*
X-14991800Y19817173D01*
X-14880960Y19976079D01*
X-14875020Y19983110D01*
X-14736866Y20118946D01*
X-14729735Y20124766D01*
X-14568972Y20232902D01*
X-14560894Y20237312D01*
X-14383004Y20314066D01*
X-14374243Y20316920D01*
X-14185279Y20359679D01*
X-14176154Y20360873D01*
X-13982545Y20368184D01*
X-13973352Y20367681D01*
X-13781693Y20339290D01*
X-13772761Y20337109D01*
X-13589585Y20273984D01*
X-13581187Y20270191D01*
X-13412739Y20174489D01*
X-13405184Y20169219D01*
X-13257185Y20044192D01*
X-13250727Y20037624D01*
X-13129281Y19888826D01*
X-13120737Y19879607D01*
X-13089268Y19849668D01*
X-13052193Y19827326D01*
X-13026064Y19818546D01*
X-12983019Y19813966D01*
X-12955631Y19817051D01*
X-12914680Y19831094D01*
X-12891160Y19845467D01*
X-12859989Y19875492D01*
X-12844746Y19898456D01*
X-12829179Y19938852D01*
X-12825070Y19966108D01*
X-12828035Y20009295D01*
X-12835830Y20035733D01*
X-12856768Y20073619D01*
X-12885507Y20106186D01*
X-12894398Y20115068D01*
X-13038550Y20242009D01*
X-13044863Y20248699D01*
X-13164267Y20401287D01*
X-13169243Y20409021D01*
X-13258574Y20580946D01*
X-13262047Y20589472D01*
X-13318266Y20774885D01*
X-13320113Y20783900D01*
X-13341305Y20976484D01*
X-13341464Y20985689D01*
X-13326909Y21178882D01*
X-13325372Y21187965D01*
X-13275568Y21375188D01*
X-13272385Y21383842D01*
X-13189025Y21558730D01*
X-13184315Y21566637D01*
X-13070234Y21723234D01*
X-13064146Y21730147D01*
X-12923237Y21863113D01*
X-12915989Y21868785D01*
X-12753035Y21973602D01*
X-12744872Y21977843D01*
X-12565442Y22050928D01*
X-12556629Y22053601D01*
X-12366819Y22092474D01*
X-12357675Y22093479D01*
X-12163964Y22096811D01*
X-12154772Y22096119D01*
X-11963743Y22063801D01*
X-11954854Y22061436D01*
X-11773010Y21994563D01*
X-11764701Y21990602D01*
X-11597654Y21891105D01*
X-11591248Y21886573D01*
X-11361831Y21695587D01*
X-11357147Y21691146D01*
X-11153777Y21471646D01*
X-11149717Y21466652D01*
X-10976340Y21222763D01*
X-10972957Y21217286D01*
X-10832474Y20953087D01*
X-10829820Y20947208D01*
X-10773298Y20796781D01*
X-10773298Y21701606D01*
X-10791324Y21701745D01*
X-10881634Y21719168D01*
X-10896381Y21724537D01*
X-10956763Y21758140D01*
X-10962388Y21761786D01*
X-13496037Y23657035D01*
X-13502799Y23663132D01*
X-13567494Y23733174D01*
X-13577115Y23748421D01*
X-13610782Y23832697D01*
X-13614315Y23850377D01*
X-13615623Y23941123D01*
X-13612602Y23958891D01*
X-13581376Y24044106D01*
X-13572199Y24059623D01*
X-13513895Y24126516D01*
X-13496279Y24139389D01*
X-13369521Y24194219D01*
X-13356966Y24197786D01*
X-13065042Y24240547D01*
X-13053653Y24242898D01*
X-12784785Y24314942D01*
X-12773747Y24318600D01*
X-12515070Y24421364D01*
X-12504530Y24426279D01*
X-12259549Y24558372D01*
X-12249652Y24564477D01*
X-12021647Y24724128D01*
X-12012525Y24731340D01*
X-11804600Y24916377D01*
X-11796377Y24924600D01*
X-11611340Y25132525D01*
X-11604128Y25141647D01*
X-11444477Y25369652D01*
X-11438372Y25379549D01*
X-11306279Y25624530D01*
X-11301364Y25635070D01*
X-11198600Y25893747D01*
X-11194942Y25904785D01*
X-11122898Y26173653D01*
X-11120547Y26185042D01*
X-11077495Y26478952D01*
X-11075356Y26487813D01*
X-11044617Y26578066D01*
X-11035801Y26593787D01*
X-10977521Y26663837D01*
X-10964282Y26675019D01*
X-10888674Y26718899D01*
X-10881089Y26722487D01*
X-10529889Y26853751D01*
X-10527453Y26854591D01*
X-10500548Y26863102D01*
X-10498090Y26863810D01*
X-10132452Y26959130D01*
X-10129939Y26959716D01*
X-10102310Y26965423D01*
X-10099790Y26965876D01*
X-9726280Y27023225D01*
X-9723769Y27023545D01*
X-9695695Y27026391D01*
X-9693114Y27026586D01*
X-9315703Y27045353D01*
X-9313180Y27045414D01*
X-9284941Y27045367D01*
X-9282378Y27045297D01*
X-8905041Y27025286D01*
X-8902478Y27025083D01*
X-8874444Y27022148D01*
X-8871857Y27021810D01*
X-8498574Y26963235D01*
X-8496067Y26962776D01*
X-8468455Y26956978D01*
X-8465935Y26956381D01*
X-8100613Y26859857D01*
X-8098165Y26859142D01*
X-8071292Y26850544D01*
X-8068849Y26849692D01*
X-7715358Y26716241D01*
X-7712967Y26715268D01*
X-7687136Y26703970D01*
X-7684779Y26702867D01*
X-7346829Y26533891D01*
X-7344560Y26532683D01*
X-7319973Y26518769D01*
X-7317825Y26517480D01*
X-6998919Y26314725D01*
X-6996812Y26313308D01*
X-6973794Y26296958D01*
X-6971738Y26295417D01*
X-6675314Y26061066D01*
X-6673365Y26059441D01*
X-6652147Y26040819D01*
X-6650249Y26039065D01*
X-6379433Y25775595D01*
X-6377628Y25773747D01*
X-6358436Y25753056D01*
X-6356756Y25751149D01*
X-6114318Y25461253D01*
X-6112754Y25459282D01*
X-6095773Y25436717D01*
X-6094281Y25434626D01*
X-5882859Y25121452D01*
X-5881489Y25119307D01*
X-5866897Y25095101D01*
X-5865651Y25092907D01*
X-5687427Y24759695D01*
X-5686277Y24757407D01*
X-5674267Y24731883D01*
X-5673220Y24729501D01*
X-5530110Y24379841D01*
X-5529182Y24377398D01*
X-5519858Y24350799D01*
X-5519066Y24348339D01*
X-5413461Y23988971D01*
X-5411701Y23980034D01*
X-5401898Y23885191D01*
X-5403336Y23867223D01*
X-5426901Y23779580D01*
X-5434668Y23763314D01*
X-5487744Y23690261D01*
X-5501561Y23677373D01*
X-5590642Y23621676D01*
X-5599617Y23617248D01*
X-10670620Y21720612D01*
X-10679410Y21718213D01*
X-10773298Y21701606D01*
X-10773298Y20796781D01*
X-10724578Y20667119D01*
X-10722696Y20660920D01*
X-10654444Y20369611D01*
X-10653379Y20363236D01*
X-10623252Y20065532D01*
X-10623019Y20059103D01*
X-10631523Y19759989D01*
X-10632122Y19753571D01*
X-10679119Y19458059D01*
X-10680540Y19451775D01*
X-10765240Y19164790D01*
X-10767464Y19158729D01*
X-10888457Y18885063D01*
X-10891439Y18879348D01*
X-11046703Y18623565D01*
X-11050403Y18618273D01*
X-11237349Y18384639D01*
X-11241695Y18379876D01*
X-11457201Y18172294D01*
X-11462125Y18168130D01*
X-11702606Y17990057D01*
X-11708014Y17986570D01*
X-11969435Y17840993D01*
X-11975270Y17838221D01*
X-12253273Y17727564D01*
X-12259405Y17725572D01*
X-12549360Y17651679D01*
X-12555704Y17650492D01*
X-12852769Y17614597D01*
X-12859196Y17614239D01*
X-12859196Y16499170D01*
X15509402Y27955720D01*
X15557111Y27996017D01*
X15571609Y28056760D01*
X15547242Y28114260D01*
X15480387Y28148086D01*
X9808336Y28628029D01*
X1286536Y29349104D01*
X1281401Y29349808D01*
X1085797Y29387021D01*
X1076078Y29389919D01*
X898471Y29463265D01*
X893958Y29465399D01*
X827709Y29500878D01*
X824999Y29502440D01*
X723888Y29564985D01*
X717378Y29569783D01*
X573553Y29694991D01*
X566731Y29702248D01*
X451242Y29852786D01*
X445996Y29861259D01*
X361626Y30034009D01*
X359670Y30038581D01*
X339885Y30092070D01*
X338180Y30097671D01*
X285150Y30317406D01*
X283769Y30328136D01*
X280120Y30517401D01*
X280923Y30527330D01*
X315492Y30716441D01*
X316636Y30721307D01*
X332845Y30777498D01*
X333739Y30780285D01*
X371034Y30885858D01*
X374256Y30893093D01*
X466645Y31062869D01*
X469239Y31067117D01*
X558277Y31197711D01*
X565750Y31210655D01*
X600244Y31282282D01*
X605704Y31296195D01*
X629137Y31372163D01*
X632463Y31386734D01*
X644311Y31465341D01*
X645428Y31480245D01*
X645428Y31559755D01*
X644311Y31574659D01*
X632463Y31653266D01*
X629137Y31667837D01*
X605704Y31743805D01*
X600244Y31757718D01*
X565752Y31829341D01*
X558279Y31842285D01*
X469166Y31972989D01*
X469103Y31972946D01*
X465937Y31978040D01*
X386325Y32119109D01*
X381756Y32129299D01*
X379468Y32135049D01*
X376043Y32142557D01*
X351955Y32217018D01*
X351437Y32218577D01*
X321079Y32307408D01*
X317677Y32321986D01*
X317566Y32321960D01*
X316755Y32326041D01*
X315813Y32329541D01*
X297961Y32412331D01*
X297216Y32416729D01*
X276190Y32586380D01*
X275919Y32595797D01*
X288415Y32785399D01*
X290060Y32795225D01*
X339916Y32978292D01*
X344103Y32989218D01*
X347123Y33051595D01*
X312548Y33103600D01*
X250725Y33125000D01*
X-1500402Y33125000D01*
X-1559729Y33105500D01*
X-1595918Y33054605D01*
X-1594887Y32992252D01*
X-1543331Y32843506D01*
X-1541103Y32834363D01*
X-1513735Y32646335D01*
X-1513292Y32636379D01*
X-1523826Y32446930D01*
X-1525369Y32437095D01*
X-1573978Y32251104D01*
X-1575484Y32246330D01*
X-1595933Y32191283D01*
X-1597031Y32188574D01*
X-1604976Y32170517D01*
X-1609049Y32159566D01*
X-1609861Y32156918D01*
X-1613722Y32147728D01*
X-1618471Y32138988D01*
X-1622137Y32131517D01*
X-1642016Y32086338D01*
X-1645768Y32079368D01*
X-1675951Y32032602D01*
X-1679798Y32026117D01*
X-1705500Y31978814D01*
X-1709086Y31972935D01*
X-1709166Y31972989D01*
X-1798279Y31842285D01*
X-1805752Y31829341D01*
X-1840244Y31757718D01*
X-1845704Y31743805D01*
X-1869137Y31667837D01*
X-1872463Y31653266D01*
X-1884311Y31574659D01*
X-1885428Y31559755D01*
X-1885428Y31480245D01*
X-1884311Y31465341D01*
X-1872463Y31386735D01*
X-1869137Y31372163D01*
X-1845699Y31296181D01*
X-1840245Y31282281D01*
X-1839646Y31281036D01*
X-1837558Y31276022D01*
X-1767966Y31079540D01*
X-1765540Y31069461D01*
X-1740273Y30879091D01*
X-1739864Y30874111D01*
X-1737414Y30797357D01*
X-1737419Y30793990D01*
X-1741929Y30665859D01*
X-1742918Y30657566D01*
X-1781207Y30470901D01*
X-1784172Y30461393D01*
X-1858481Y30286804D01*
X-1863274Y30278081D01*
X-1972221Y30119677D01*
X-1975248Y30115716D01*
X-2012090Y30072199D01*
X-2016131Y30067958D01*
X-2181401Y29913746D01*
X-2190056Y29907275D01*
X-2353081Y29811035D01*
X-2362117Y29806856D01*
X-2543783Y29743981D01*
X-2548593Y29742581D01*
X-2605469Y29729075D01*
X-2608367Y29728476D01*
X-2718640Y29709045D01*
X-2726522Y29708294D01*
X-2919775Y29705274D01*
X-2924770Y29705446D01*
X-11396477Y30422282D01*
X-14898077Y30718571D01*
X-14958837Y30704142D01*
X-14999188Y30656480D01*
X-15003394Y30594172D01*
X-14954433Y30531161D01*
X-14889977Y30495965D01*
X-14883988Y30492116D01*
X-14684110Y30342490D01*
X-14678727Y30337825D01*
X-14502175Y30161273D01*
X-14497510Y30155890D01*
X-14347884Y29956012D01*
X-14344035Y29950023D01*
X-14224371Y29730877D01*
X-14221415Y29724404D01*
X-14134160Y29490462D01*
X-14132155Y29483636D01*
X-14079080Y29239656D01*
X-14078066Y29232601D01*
X-14060255Y28983565D01*
X-14060255Y28976435D01*
X-14078066Y28727399D01*
X-14079080Y28720344D01*
X-14132155Y28476364D01*
X-14134160Y28469538D01*
X-14221415Y28235596D01*
X-14224371Y28229123D01*
X-14344035Y28009977D01*
X-14347884Y28003988D01*
X-14497510Y27804110D01*
X-14502175Y27798727D01*
X-14678727Y27622175D01*
X-14684110Y27617510D01*
X-14883988Y27467884D01*
X-14889977Y27464035D01*
X-15109123Y27344371D01*
X-15115596Y27341415D01*
X-15349538Y27254160D01*
X-15356364Y27252155D01*
X-15600344Y27199080D01*
X-15607399Y27198066D01*
X-15856435Y27180255D01*
X-15863565Y27180255D01*
X-16112601Y27198066D01*
X-16119656Y27199080D01*
X-16363636Y27252155D01*
X-16370462Y27254160D01*
X-16604404Y27341415D01*
X-16610877Y27344371D01*
X-16830023Y27464035D01*
X-16836012Y27467884D01*
X-17035890Y27617510D01*
X-17041273Y27622175D01*
X-17217825Y27798727D01*
X-17222490Y27804110D01*
X-17372116Y28003988D01*
X-17375965Y28009977D01*
X-17495629Y28229123D01*
X-17498585Y28235596D01*
X-17585840Y28469538D01*
X-17587845Y28476364D01*
X-17640920Y28720344D01*
X-17641934Y28727399D01*
X-17659745Y28976435D01*
X-17659745Y28983565D01*
X-17641934Y29232601D01*
X-17640920Y29239656D01*
X-17587845Y29483636D01*
X-17585840Y29490462D01*
X-17498585Y29724404D01*
X-17495629Y29730877D01*
X-17375965Y29950023D01*
X-17372116Y29956012D01*
X-17222490Y30155890D01*
X-17217825Y30161273D01*
X-17041273Y30337825D01*
X-17035890Y30342490D01*
X-16836012Y30492116D01*
X-16830023Y30495965D01*
X-16610877Y30615629D01*
X-16604404Y30618585D01*
X-16487981Y30662008D01*
X-16439209Y30701011D01*
X-16423087Y30761344D01*
X-16445903Y30819476D01*
X-16514496Y30855345D01*
X-20087879Y31157708D01*
X-23257868Y31425938D01*
X-23318628Y31411509D01*
X-23358979Y31363847D01*
X-23366244Y31329572D01*
X-23994967Y12153518D01*
G37*
G04 #@! TO.N,GND*
G36*
X-30993816Y50888690D02*
X-30004820Y33086769D01*
X-29982059Y33028615D01*
X-29913406Y32992673D01*
X-20003565Y32154147D01*
X-20003565Y42200255D01*
X-20252601Y42218066D01*
X-20259656Y42219080D01*
X-20503636Y42272155D01*
X-20510462Y42274160D01*
X-20744404Y42361415D01*
X-20750877Y42364371D01*
X-20970023Y42484035D01*
X-20976012Y42487884D01*
X-21175890Y42637510D01*
X-21181273Y42642175D01*
X-21357825Y42818727D01*
X-21362490Y42824110D01*
X-21512116Y43023988D01*
X-21515965Y43029977D01*
X-21635629Y43249123D01*
X-21638585Y43255596D01*
X-21725840Y43489538D01*
X-21727845Y43496364D01*
X-21780920Y43740344D01*
X-21781934Y43747399D01*
X-21799745Y43996435D01*
X-21799745Y44003565D01*
X-21781934Y44252601D01*
X-21780920Y44259656D01*
X-21727845Y44503636D01*
X-21725840Y44510462D01*
X-21638585Y44744404D01*
X-21635629Y44750877D01*
X-21515965Y44970023D01*
X-21512116Y44976012D01*
X-21362490Y45175890D01*
X-21357825Y45181273D01*
X-21181273Y45357825D01*
X-21175890Y45362490D01*
X-20976012Y45512116D01*
X-20970023Y45515965D01*
X-20750877Y45635629D01*
X-20744404Y45638585D01*
X-20510462Y45725840D01*
X-20503636Y45727845D01*
X-20259656Y45780920D01*
X-20252601Y45781934D01*
X-20003565Y45799745D01*
X-19996435Y45799745D01*
X-19747399Y45781934D01*
X-19740344Y45780920D01*
X-19496364Y45727845D01*
X-19489538Y45725840D01*
X-19255596Y45638585D01*
X-19249123Y45635629D01*
X-19029977Y45515965D01*
X-19023988Y45512116D01*
X-18984700Y45482705D01*
X-18925521Y45462762D01*
X-18866049Y45481818D01*
X-18826119Y45546414D01*
X-18808542Y45652511D01*
X-18807258Y45658193D01*
X-18716592Y45972864D01*
X-18714661Y45978345D01*
X-18588079Y46280360D01*
X-18585520Y46285589D01*
X-18424728Y46570874D01*
X-18421589Y46575756D01*
X-18228765Y46840443D01*
X-18225071Y46844939D01*
X-18002823Y47085452D01*
X-17998643Y47089479D01*
X-17749977Y47302562D01*
X-17745340Y47306089D01*
X-17473625Y47488858D01*
X-17468620Y47491818D01*
X-17177508Y47641816D01*
X-17172205Y47644169D01*
X-16865659Y47759353D01*
X-16860092Y47761082D01*
X-16542267Y47839894D01*
X-16536525Y47840968D01*
X-16211692Y47882350D01*
X-16205892Y47882748D01*
X-15878431Y47886141D01*
X-15872626Y47885863D01*
X-15546991Y47851216D01*
X-15541249Y47850265D01*
X-15221838Y47778049D01*
X-15216261Y47776443D01*
X-14907380Y47667629D01*
X-14902024Y47665384D01*
X-14607883Y47521456D01*
X-14602811Y47518598D01*
X-14327347Y47341483D01*
X-14322675Y47338079D01*
X-14069629Y47130178D01*
X-14065368Y47126240D01*
X-13838188Y46890386D01*
X-13834398Y46885964D01*
X-13636436Y46625726D01*
X-13632698Y46620044D01*
X-13512953Y46407762D01*
X-13509649Y46400653D01*
X-13424768Y46172742D01*
X-13422616Y46165200D01*
X-13374431Y45926809D01*
X-13373488Y45919041D01*
X-13363190Y45676050D01*
X-13363473Y45668214D01*
X-13391314Y45426599D01*
X-13392817Y45418920D01*
X-13458112Y45184635D01*
X-13460803Y45177272D01*
X-13561939Y44956096D01*
X-13565750Y44949243D01*
X-13700244Y44746607D01*
X-13705076Y44740439D01*
X-13869616Y44561334D01*
X-13875351Y44556000D01*
X-14065880Y44404843D01*
X-14072381Y44400470D01*
X-14284221Y44280973D01*
X-14291317Y44277676D01*
X-14519233Y44192793D01*
X-14526775Y44190641D01*
X-14765166Y44142456D01*
X-14772934Y44141513D01*
X-15015925Y44131215D01*
X-15023762Y44131498D01*
X-15049157Y44134424D01*
X-15110326Y44121843D01*
X-15152103Y44075425D01*
X-15160304Y44027362D01*
X-15158330Y44001868D01*
X-15158340Y43994043D01*
X-15177733Y43751598D01*
X-15178968Y43743869D01*
X-15236044Y43507458D01*
X-15238479Y43499994D01*
X-15331835Y43275426D01*
X-15335404Y43268443D01*
X-15462744Y43061238D01*
X-15467355Y43054909D01*
X-15625545Y42870170D01*
X-15631092Y42864637D01*
X-15816235Y42706919D01*
X-15822577Y42702324D01*
X-16030111Y42575511D01*
X-16037093Y42571965D01*
X-16261914Y42479177D01*
X-16269361Y42476767D01*
X-16505927Y42420292D01*
X-16513666Y42419077D01*
X-16756156Y42400304D01*
X-16763983Y42400314D01*
X-17006428Y42419707D01*
X-17014157Y42420942D01*
X-17250568Y42478018D01*
X-17258032Y42480453D01*
X-17482600Y42573809D01*
X-17489583Y42577378D01*
X-17697219Y42704983D01*
X-17702779Y42708948D01*
X-17955416Y42916513D01*
X-17959675Y42920449D01*
X-18186858Y43156306D01*
X-18190654Y43160736D01*
X-18226463Y43207810D01*
X-18277901Y43243223D01*
X-18340318Y43241213D01*
X-18393819Y43195193D01*
X-18484035Y43029977D01*
X-18487884Y43023988D01*
X-18637510Y42824110D01*
X-18642175Y42818727D01*
X-18818727Y42642175D01*
X-18824110Y42637510D01*
X-19023988Y42487884D01*
X-19029977Y42484035D01*
X-19249123Y42364371D01*
X-19255596Y42361415D01*
X-19489538Y42274160D01*
X-19496364Y42272155D01*
X-19740344Y42219080D01*
X-19747399Y42218066D01*
X-19996435Y42200255D01*
X-20003565Y42200255D01*
X-20003565Y32154147D01*
X-11312163Y31418721D01*
X-11312163Y37429528D01*
X-11321940Y37429955D01*
X-11506273Y37456272D01*
X-11515777Y37458598D01*
X-11693760Y37521188D01*
X-11698297Y37523038D01*
X-12069253Y37696018D01*
X-12073588Y37698305D01*
X-12235933Y37794412D01*
X-12243831Y37800203D01*
X-12382476Y37924493D01*
X-12389083Y37931703D01*
X-12500821Y38080660D01*
X-12505894Y38089019D01*
X-12587483Y38259119D01*
X-12589393Y38263660D01*
X-12729376Y38648257D01*
X-12730833Y38652970D01*
X-12777669Y38835714D01*
X-12779157Y38845381D01*
X-12789307Y39031306D01*
X-12788880Y39041084D01*
X-12762564Y39225417D01*
X-12760239Y39234918D01*
X-12697648Y39412903D01*
X-12695798Y39417440D01*
X-12522818Y39788397D01*
X-12520531Y39792732D01*
X-12424424Y39955077D01*
X-12418633Y39962975D01*
X-12294343Y40101620D01*
X-12287133Y40108227D01*
X-12138176Y40219965D01*
X-12129817Y40225038D01*
X-11959717Y40306627D01*
X-11955176Y40308537D01*
X-10630887Y40790540D01*
X-10626174Y40791997D01*
X-10443429Y40838833D01*
X-10433764Y40840321D01*
X-10247837Y40850472D01*
X-10238060Y40850045D01*
X-10053727Y40823728D01*
X-10044223Y40821402D01*
X-9866240Y40758812D01*
X-9861703Y40756962D01*
X-9490747Y40583982D01*
X-9486412Y40581695D01*
X-9324067Y40485588D01*
X-9316169Y40479797D01*
X-9177524Y40355507D01*
X-9170917Y40348297D01*
X-9059179Y40199340D01*
X-9054106Y40190981D01*
X-8972517Y40020881D01*
X-8970607Y40016340D01*
X-8830624Y39631743D01*
X-8829167Y39627030D01*
X-8782331Y39444286D01*
X-8780843Y39434619D01*
X-8770693Y39248694D01*
X-8771120Y39238916D01*
X-8797436Y39054583D01*
X-8799761Y39045082D01*
X-8862352Y38867097D01*
X-8864202Y38862560D01*
X-9037182Y38491603D01*
X-9039469Y38487268D01*
X-9135576Y38324923D01*
X-9141367Y38317025D01*
X-9265657Y38178380D01*
X-9272867Y38171773D01*
X-9421824Y38060035D01*
X-9430183Y38054962D01*
X-9600283Y37973373D01*
X-9604824Y37971463D01*
X-10929113Y37489460D01*
X-10933826Y37488003D01*
X-11116571Y37441167D01*
X-11126236Y37439679D01*
X-11312163Y37429528D01*
X-11312163Y31418721D01*
X-2837962Y30701674D01*
X-2777202Y30716103D01*
X-2736851Y30763765D01*
X-2739435Y30844704D01*
X-2775356Y30919295D01*
X-2778081Y30926240D01*
X-2847904Y31152603D01*
X-2849564Y31159876D01*
X-2884871Y31394119D01*
X-2885428Y31401554D01*
X-2885428Y31638446D01*
X-2884871Y31645881D01*
X-2849564Y31880124D01*
X-2847904Y31887397D01*
X-2778081Y32113760D01*
X-2775358Y32120699D01*
X-2672572Y32334136D01*
X-2668849Y32340584D01*
X-2535404Y32536311D01*
X-2533770Y32538360D01*
X-2533486Y32539124D01*
X-2533294Y32539406D01*
X-2533364Y32539454D01*
X-2512024Y32596901D01*
X-2548512Y32678013D01*
X-2593311Y32714778D01*
X-2600224Y32721691D01*
X-2718353Y32865632D01*
X-2723787Y32873764D01*
X-2811561Y33037979D01*
X-2815308Y33047023D01*
X-2869358Y33225206D01*
X-2871267Y33234803D01*
X-2889759Y33422557D01*
X-2890000Y33427450D01*
X-2890000Y34692550D01*
X-2889759Y34697443D01*
X-2871267Y34885197D01*
X-2869358Y34894794D01*
X-2815308Y35072977D01*
X-2811561Y35082021D01*
X-2723787Y35246235D01*
X-2718355Y35254365D01*
X-2676040Y35305926D01*
X-2653478Y35364157D01*
X-2662711Y35411625D01*
X-2688680Y35467317D01*
X-2731425Y35512845D01*
X-2792846Y35524135D01*
X-2850020Y35495766D01*
X-4991387Y33354399D01*
X-4994522Y33351520D01*
X-5119345Y33246322D01*
X-5126925Y33241050D01*
X-5292360Y33147391D01*
X-5301474Y33143374D01*
X-5481879Y33084578D01*
X-5491602Y33082454D01*
X-5680092Y33060686D01*
X-5690054Y33060538D01*
X-5879104Y33076665D01*
X-5888895Y33078499D01*
X-6070970Y33131880D01*
X-6080200Y33135622D01*
X-6248035Y33224127D01*
X-6256338Y33229631D01*
X-6405174Y33351313D01*
X-6408873Y33354659D01*
X-8945740Y35891526D01*
X-8948364Y35894362D01*
X-9045063Y36007375D01*
X-9050205Y36014595D01*
X-9146420Y36178778D01*
X-9150572Y36187832D01*
X-9212053Y36367326D01*
X-9214326Y36377036D01*
X-9238906Y36565170D01*
X-9239203Y36575124D01*
X-9225900Y36764395D01*
X-9224211Y36774221D01*
X-9173557Y36957064D01*
X-9169951Y36966354D01*
X-9083965Y37135488D01*
X-9078584Y37143875D01*
X-8960699Y37292544D01*
X-8953761Y37299693D01*
X-8808677Y37421968D01*
X-8800454Y37427596D01*
X-8633965Y37518595D01*
X-8624792Y37522475D01*
X-8443531Y37578571D01*
X-8433771Y37580550D01*
X-8242491Y37599750D01*
X-8237497Y37600000D01*
X-3161945Y37600000D01*
X-3158063Y37599849D01*
X-3009777Y37588314D01*
X-3001043Y37586846D01*
X-2816922Y37538787D01*
X-2807574Y37535318D01*
X-2637176Y37451869D01*
X-2628708Y37446613D01*
X-2589659Y37416588D01*
X-2530741Y37395884D01*
X-2471029Y37414172D01*
X-2434737Y37461660D01*
X-2219188Y38053875D01*
X-2227666Y38139954D01*
X-2288094Y38239537D01*
X-2290441Y38243870D01*
X-2364443Y38398150D01*
X-2366353Y38402691D01*
X-2431717Y38582274D01*
X-2433174Y38586986D01*
X-2475653Y38752734D01*
X-2476641Y38757565D01*
X-2505711Y38946437D01*
X-2506221Y38951339D01*
X-2515550Y39122213D01*
X-2515576Y39127099D01*
X-2507239Y39318055D01*
X-2506785Y39322937D01*
X-2482598Y39492353D01*
X-2481669Y39497162D01*
X-2436244Y39682803D01*
X-2434843Y39687514D01*
X-2378429Y39847931D01*
X-2375620Y39854413D01*
X-2249697Y40096396D01*
X-2242911Y40106301D01*
X-2118273Y40247974D01*
X-2110974Y40254763D01*
X-1959837Y40369465D01*
X-1951337Y40374666D01*
X-1778175Y40458122D01*
X-1773545Y40460075D01*
X-583907Y40893067D01*
X-581066Y40894005D01*
X-468171Y40927529D01*
X-465282Y40928293D01*
X-320561Y40961909D01*
X-314628Y40962914D01*
X-80950Y40988109D01*
X-74919Y40988392D01*
X72108Y40986418D01*
X78112Y40985974D01*
X311039Y40954513D01*
X316956Y40953347D01*
X459229Y40916247D01*
X464983Y40914368D01*
X683577Y40828093D01*
X689061Y40825536D01*
X818320Y40755466D01*
X823442Y40752275D01*
X1015056Y40616179D01*
X1019761Y40612390D01*
X1128500Y40513418D01*
X1132709Y40509094D01*
X1286179Y40331102D01*
X1289836Y40326304D01*
X1371736Y40204177D01*
X1374783Y40198979D01*
X1481198Y39989434D01*
X1483610Y39983877D01*
X1533894Y39845723D01*
X1535614Y39839931D01*
X1588793Y39610990D01*
X1589798Y39605057D01*
X1605561Y39458861D01*
X1605844Y39452830D01*
X1602689Y39217823D01*
X1602245Y39211819D01*
X1582563Y39066098D01*
X1581397Y39060181D01*
X1522093Y38832760D01*
X1520214Y38827006D01*
X1466241Y38690255D01*
X1463684Y38684771D01*
X1351682Y38478159D01*
X1348491Y38473037D01*
X1263352Y38353167D01*
X1259561Y38348459D01*
X1239557Y38326480D01*
X1214046Y38269479D01*
X1222882Y38216910D01*
X1537643Y37541903D01*
X1539493Y37537366D01*
X1602083Y37359383D01*
X1604409Y37349879D01*
X1630726Y37165546D01*
X1631153Y37155769D01*
X1621002Y36969843D01*
X1619514Y36960178D01*
X1572678Y36777433D01*
X1571221Y36772720D01*
X1161499Y35647020D01*
X1159532Y35584601D01*
X1199913Y35529671D01*
X1209364Y35523356D01*
X1353309Y35405224D01*
X1360224Y35398309D01*
X1478353Y35254368D01*
X1483787Y35246236D01*
X1571561Y35082021D01*
X1575308Y35072977D01*
X1629358Y34894794D01*
X1631267Y34885197D01*
X1649759Y34697443D01*
X1650000Y34692550D01*
X1650000Y33427450D01*
X1649759Y33422557D01*
X1631267Y33234803D01*
X1629358Y33225206D01*
X1575308Y33047023D01*
X1571561Y33037979D01*
X1483787Y32873764D01*
X1478353Y32865632D01*
X1360224Y32721691D01*
X1353311Y32714778D01*
X1308512Y32678013D01*
X1275022Y32625303D01*
X1293512Y32539555D01*
X1293294Y32539406D01*
X1293660Y32538869D01*
X1293770Y32538360D01*
X1295404Y32536311D01*
X1428849Y32340584D01*
X1432572Y32334136D01*
X1535358Y32120699D01*
X1538081Y32113760D01*
X1607904Y31887397D01*
X1609564Y31880124D01*
X1644871Y31645881D01*
X1645428Y31638446D01*
X1645428Y31401554D01*
X1644871Y31394119D01*
X1609564Y31159876D01*
X1607904Y31152603D01*
X1538081Y30926240D01*
X1535358Y30919301D01*
X1432572Y30705864D01*
X1428849Y30699416D01*
X1294073Y30501737D01*
X1276764Y30441734D01*
X1298429Y30383162D01*
X1368265Y30345762D01*
X9892650Y29624468D01*
X9892650Y30654611D01*
X9884441Y30655291D01*
X9672672Y30690630D01*
X9664687Y30692652D01*
X9461618Y30762365D01*
X9454080Y30765671D01*
X9265258Y30867856D01*
X9258354Y30872367D01*
X9088933Y31004234D01*
X9082872Y31009812D01*
X8937462Y31167769D01*
X8932395Y31174280D01*
X8814968Y31354015D01*
X8811053Y31361249D01*
X8724805Y31557876D01*
X8722133Y31565659D01*
X8669428Y31773783D01*
X8668070Y31781926D01*
X8650342Y31995873D01*
X8650342Y32004127D01*
X8668070Y32218074D01*
X8669428Y32226217D01*
X8722131Y32434330D01*
X8724812Y32442139D01*
X8741577Y32480360D01*
X8750000Y32520529D01*
X8750000Y32997805D01*
X8750192Y33002192D01*
X8754377Y33050030D01*
X8754758Y33058745D01*
X8754758Y33104575D01*
X8755517Y33113250D01*
X8763475Y33158384D01*
X8764613Y33167032D01*
X8768610Y33212713D01*
X8770118Y33221272D01*
X8781989Y33265574D01*
X8783877Y33274090D01*
X8791836Y33319227D01*
X8794088Y33327632D01*
X8809764Y33370701D01*
X8812388Y33379021D01*
X8824255Y33423310D01*
X8827230Y33431482D01*
X8846611Y33473045D01*
X8849949Y33481106D01*
X8865624Y33524172D01*
X8869299Y33532054D01*
X8892216Y33571747D01*
X8896245Y33579486D01*
X8915624Y33621045D01*
X8919973Y33628578D01*
X8946271Y33666137D01*
X8950957Y33673493D01*
X8973875Y33713187D01*
X8978866Y33720315D01*
X9008334Y33755433D01*
X9013646Y33762356D01*
X9039943Y33799912D01*
X9045529Y33806570D01*
X9077952Y33838993D01*
X9083846Y33845425D01*
X9114721Y33882220D01*
X9117654Y33885421D01*
X10114579Y34882346D01*
X10117780Y34885279D01*
X10154575Y34916154D01*
X10161007Y34922048D01*
X10193429Y34954470D01*
X10200092Y34960061D01*
X10237657Y34986364D01*
X10244580Y34991676D01*
X10279689Y35021136D01*
X10286804Y35026118D01*
X10326502Y35049037D01*
X10333862Y35053726D01*
X10371424Y35080028D01*
X10378965Y35084382D01*
X10420516Y35103758D01*
X10428252Y35107785D01*
X10467945Y35130701D01*
X10475826Y35134376D01*
X10518901Y35150054D01*
X10526960Y35153392D01*
X10568524Y35172774D01*
X10576694Y35175748D01*
X10620987Y35187616D01*
X10629306Y35190239D01*
X10672370Y35205913D01*
X10680773Y35208165D01*
X10725913Y35216124D01*
X10734431Y35218012D01*
X10778723Y35229880D01*
X10787295Y35231391D01*
X10832956Y35235386D01*
X10841604Y35236524D01*
X10886751Y35244484D01*
X10895425Y35245243D01*
X10941266Y35245243D01*
X10949981Y35245624D01*
X10997808Y35249808D01*
X11002195Y35250000D01*
X11892650Y35250000D01*
X11892650Y40654611D01*
X11884441Y40655291D01*
X11672672Y40690630D01*
X11664687Y40692652D01*
X11461618Y40762365D01*
X11454080Y40765671D01*
X11265258Y40867856D01*
X11258354Y40872367D01*
X11088933Y41004234D01*
X11082872Y41009812D01*
X10937462Y41167769D01*
X10932395Y41174280D01*
X10814968Y41354015D01*
X10811053Y41361249D01*
X10724805Y41557876D01*
X10722133Y41565659D01*
X10669428Y41773783D01*
X10668070Y41781926D01*
X10650342Y41995873D01*
X10650342Y42004127D01*
X10668070Y42218074D01*
X10669428Y42226217D01*
X10722133Y42434341D01*
X10724805Y42442124D01*
X10811053Y42638751D01*
X10814968Y42645985D01*
X10932395Y42825720D01*
X10937462Y42832231D01*
X11082872Y42990188D01*
X11088933Y42995766D01*
X11258354Y43127633D01*
X11265258Y43132144D01*
X11454080Y43234329D01*
X11461618Y43237635D01*
X11664687Y43307348D01*
X11672672Y43309370D01*
X11884441Y43344709D01*
X11892650Y43345389D01*
X12107350Y43345389D01*
X12115559Y43344709D01*
X12327328Y43309370D01*
X12335313Y43307348D01*
X12538382Y43237635D01*
X12545920Y43234329D01*
X12734742Y43132144D01*
X12741646Y43127633D01*
X12911067Y42995766D01*
X12917128Y42990188D01*
X13062538Y42832231D01*
X13067605Y42825720D01*
X13185032Y42645985D01*
X13188947Y42638751D01*
X13275195Y42442124D01*
X13277867Y42434341D01*
X13330572Y42226217D01*
X13331930Y42218074D01*
X13349658Y42004127D01*
X13349658Y41995873D01*
X13331930Y41781926D01*
X13330572Y41773783D01*
X13277867Y41565659D01*
X13275195Y41557876D01*
X13188947Y41361249D01*
X13185032Y41354015D01*
X13067605Y41174280D01*
X13062538Y41167769D01*
X12917128Y41009812D01*
X12911067Y41004234D01*
X12741646Y40872367D01*
X12734742Y40867856D01*
X12545920Y40765671D01*
X12538382Y40762365D01*
X12335313Y40692652D01*
X12327328Y40690630D01*
X12115559Y40655291D01*
X12107350Y40654611D01*
X11892650Y40654611D01*
X11892650Y35250000D01*
X12997805Y35250000D01*
X13002192Y35249808D01*
X13050007Y35245625D01*
X13058722Y35245244D01*
X13104575Y35245244D01*
X13113250Y35244485D01*
X13158406Y35236523D01*
X13167054Y35235385D01*
X13212713Y35231390D01*
X13221272Y35229881D01*
X13265552Y35218017D01*
X13274068Y35216129D01*
X13319224Y35208166D01*
X13327632Y35205913D01*
X13370707Y35190235D01*
X13379027Y35187611D01*
X13423317Y35175744D01*
X13431472Y35172775D01*
X13473026Y35153398D01*
X13481086Y35150060D01*
X13524175Y35134377D01*
X13532056Y35130702D01*
X13571763Y35107778D01*
X13579499Y35103751D01*
X13621035Y35084382D01*
X13628584Y35080024D01*
X13666125Y35053736D01*
X13673485Y35049046D01*
X13713194Y35026121D01*
X13720319Y35021133D01*
X13755436Y34991665D01*
X13762359Y34986353D01*
X13799908Y34960062D01*
X13806571Y34954470D01*
X13838991Y34922050D01*
X13845422Y34916157D01*
X13882206Y34885291D01*
X13885433Y34882334D01*
X14882346Y33885421D01*
X14885279Y33882220D01*
X14916154Y33845425D01*
X14922048Y33838993D01*
X14954470Y33806571D01*
X14960061Y33799908D01*
X14986364Y33762343D01*
X14991676Y33755420D01*
X15021137Y33720311D01*
X15026122Y33713191D01*
X15049046Y33673486D01*
X15053733Y33666128D01*
X15080035Y33628565D01*
X15084374Y33621051D01*
X15103755Y33579488D01*
X15107783Y33571751D01*
X15130703Y33532052D01*
X15134377Y33524171D01*
X15150052Y33481105D01*
X15153390Y33473044D01*
X15172772Y33431480D01*
X15175749Y33423300D01*
X15187616Y33379013D01*
X15190239Y33370694D01*
X15205914Y33327626D01*
X15208164Y33319231D01*
X15216126Y33274079D01*
X15218014Y33265563D01*
X15229882Y33221272D01*
X15231390Y33212713D01*
X15235386Y33167043D01*
X15236524Y33158395D01*
X15244484Y33113250D01*
X15245243Y33104575D01*
X15245243Y33058734D01*
X15245624Y33050019D01*
X15249808Y33002192D01*
X15250000Y32997805D01*
X15250000Y32520529D01*
X15258423Y32480360D01*
X15275188Y32442139D01*
X15277869Y32434330D01*
X15330572Y32226217D01*
X15331930Y32218074D01*
X15349658Y32004127D01*
X15349658Y31995873D01*
X15331930Y31781926D01*
X15330572Y31773783D01*
X15277867Y31565659D01*
X15275195Y31557876D01*
X15188947Y31361249D01*
X15185032Y31354015D01*
X15067605Y31174280D01*
X15062538Y31167769D01*
X14917128Y31009812D01*
X14911067Y31004234D01*
X14741646Y30872367D01*
X14734742Y30867856D01*
X14545920Y30765671D01*
X14538382Y30762365D01*
X14335313Y30692652D01*
X14327328Y30690630D01*
X14115559Y30655291D01*
X14107350Y30654611D01*
X13892650Y30654611D01*
X13884441Y30655291D01*
X13672672Y30690630D01*
X13664687Y30692652D01*
X13461618Y30762365D01*
X13454080Y30765671D01*
X13265258Y30867856D01*
X13258354Y30872367D01*
X13088933Y31004234D01*
X13082872Y31009812D01*
X12937462Y31167769D01*
X12932395Y31174280D01*
X12814968Y31354015D01*
X12811053Y31361249D01*
X12724805Y31557876D01*
X12722133Y31565659D01*
X12669428Y31773783D01*
X12668070Y31781926D01*
X12650342Y31995873D01*
X12650342Y32004127D01*
X12668070Y32218074D01*
X12669428Y32226217D01*
X12723147Y32438344D01*
X12721309Y32438809D01*
X12722060Y32494099D01*
X12697356Y32534877D01*
X12511522Y32720711D01*
X12440812Y32750000D01*
X11559188Y32750000D01*
X11488478Y32720711D01*
X11302644Y32534877D01*
X11274482Y32479138D01*
X11278152Y32438673D01*
X11276853Y32438344D01*
X11330572Y32226217D01*
X11331930Y32218074D01*
X11349658Y32004127D01*
X11349658Y31995873D01*
X11331930Y31781926D01*
X11330572Y31773783D01*
X11277867Y31565659D01*
X11275195Y31557876D01*
X11188947Y31361249D01*
X11185032Y31354015D01*
X11067605Y31174280D01*
X11062538Y31167769D01*
X10917128Y31009812D01*
X10911067Y31004234D01*
X10741646Y30872367D01*
X10734742Y30867856D01*
X10545920Y30765671D01*
X10538382Y30762365D01*
X10335313Y30692652D01*
X10327328Y30690630D01*
X10115559Y30655291D01*
X10107350Y30654611D01*
X9892650Y30654611D01*
X9892650Y29624468D01*
X15888521Y29117125D01*
X15888521Y40604782D01*
X15880312Y40605462D01*
X15660397Y40642160D01*
X15652412Y40644182D01*
X15441538Y40716574D01*
X15433988Y40719886D01*
X15237911Y40825998D01*
X15231009Y40830508D01*
X15055069Y40967448D01*
X15049005Y40973029D01*
X14898010Y41137052D01*
X14892936Y41143571D01*
X14771001Y41330208D01*
X14767073Y41337468D01*
X14677518Y41541633D01*
X14674841Y41549430D01*
X14620108Y41765563D01*
X14618753Y41773688D01*
X14600342Y41995873D01*
X14600342Y42004127D01*
X14618753Y42226312D01*
X14620108Y42234437D01*
X14674841Y42450570D01*
X14677518Y42458367D01*
X14767073Y42662532D01*
X14771001Y42669792D01*
X14892936Y42856429D01*
X14898010Y42862948D01*
X15049005Y43026971D01*
X15055069Y43032552D01*
X15231009Y43169492D01*
X15237911Y43174002D01*
X15433988Y43280114D01*
X15441538Y43283426D01*
X15652412Y43355818D01*
X15660397Y43357840D01*
X15880312Y43394538D01*
X15888521Y43395218D01*
X16111479Y43395218D01*
X16119688Y43394538D01*
X16339603Y43357840D01*
X16347588Y43355818D01*
X16558462Y43283426D01*
X16566012Y43280114D01*
X16762089Y43174002D01*
X16768991Y43169492D01*
X16944931Y43032552D01*
X16950995Y43026971D01*
X17101990Y42862948D01*
X17107064Y42856429D01*
X17228999Y42669792D01*
X17232927Y42662532D01*
X17322482Y42458367D01*
X17325159Y42450570D01*
X17379892Y42234437D01*
X17381247Y42226312D01*
X17399658Y42004127D01*
X17399658Y41995873D01*
X17381247Y41773688D01*
X17379892Y41765563D01*
X17325159Y41549430D01*
X17322482Y41541633D01*
X17232927Y41337468D01*
X17228999Y41330208D01*
X17107064Y41143571D01*
X17101990Y41137052D01*
X16950995Y40973029D01*
X16944931Y40967448D01*
X16768991Y40830508D01*
X16762089Y40825998D01*
X16566012Y40719886D01*
X16558462Y40716574D01*
X16347588Y40644182D01*
X16339603Y40642160D01*
X16119688Y40605462D01*
X16111479Y40604782D01*
X15888521Y40604782D01*
X15888521Y29117125D01*
X17892650Y28947545D01*
X17892650Y30654611D01*
X17884441Y30655291D01*
X17672672Y30690630D01*
X17664687Y30692652D01*
X17461618Y30762365D01*
X17454080Y30765671D01*
X17265258Y30867856D01*
X17258354Y30872367D01*
X17088933Y31004234D01*
X17082872Y31009812D01*
X16937462Y31167769D01*
X16932395Y31174280D01*
X16814968Y31354015D01*
X16811053Y31361249D01*
X16724805Y31557876D01*
X16722133Y31565659D01*
X16669428Y31773783D01*
X16668070Y31781926D01*
X16650342Y31995873D01*
X16650342Y32004127D01*
X16668070Y32218074D01*
X16669428Y32226217D01*
X16722133Y32434341D01*
X16724805Y32442124D01*
X16811053Y32638751D01*
X16814968Y32645985D01*
X16932395Y32825720D01*
X16937462Y32832231D01*
X17082872Y32990188D01*
X17088933Y32995766D01*
X17258354Y33127633D01*
X17265258Y33132144D01*
X17454080Y33234329D01*
X17461618Y33237635D01*
X17664687Y33307348D01*
X17672672Y33309370D01*
X17884441Y33344709D01*
X17892650Y33345389D01*
X18107350Y33345389D01*
X18115559Y33344709D01*
X18327328Y33309370D01*
X18335313Y33307348D01*
X18538382Y33237635D01*
X18545920Y33234329D01*
X18734742Y33132144D01*
X18741646Y33127633D01*
X18911067Y32995766D01*
X18917128Y32990188D01*
X19062538Y32832231D01*
X19067605Y32825720D01*
X19185032Y32645985D01*
X19188947Y32638751D01*
X19275195Y32442124D01*
X19277867Y32434341D01*
X19330572Y32226217D01*
X19331930Y32218074D01*
X19349658Y32004127D01*
X19349658Y31995873D01*
X19331930Y31781926D01*
X19330572Y31773783D01*
X19277867Y31565659D01*
X19275195Y31557876D01*
X19188947Y31361249D01*
X19185032Y31354015D01*
X19067605Y31174280D01*
X19062538Y31167769D01*
X18917128Y31009812D01*
X18911067Y31004234D01*
X18741646Y30872367D01*
X18734742Y30867856D01*
X18545920Y30765671D01*
X18538382Y30762365D01*
X18335313Y30692652D01*
X18327328Y30690630D01*
X18115559Y30655291D01*
X18107350Y30654611D01*
X17892650Y30654611D01*
X17892650Y28947545D01*
X19873521Y28779932D01*
X19873521Y40262372D01*
X19866086Y40262929D01*
X19615955Y40300631D01*
X19608682Y40302291D01*
X19366966Y40376850D01*
X19360027Y40379573D01*
X19132124Y40489326D01*
X19125655Y40493061D01*
X18916664Y40635549D01*
X18910828Y40640203D01*
X18725399Y40812255D01*
X18720320Y40817729D01*
X18562613Y41015488D01*
X18558409Y41021654D01*
X18431933Y41240717D01*
X18428694Y41247445D01*
X18336281Y41482905D01*
X18334082Y41490034D01*
X18277795Y41736643D01*
X18276682Y41744032D01*
X18257780Y41996264D01*
X18257780Y42003736D01*
X18276682Y42255968D01*
X18277795Y42263357D01*
X18334082Y42509966D01*
X18336281Y42517095D01*
X18428694Y42752555D01*
X18431933Y42759283D01*
X18558409Y42978346D01*
X18562613Y42984512D01*
X18720320Y43182271D01*
X18725399Y43187745D01*
X18910828Y43359797D01*
X18916664Y43364451D01*
X19125655Y43506939D01*
X19132124Y43510674D01*
X19360027Y43620427D01*
X19366966Y43623150D01*
X19608682Y43697709D01*
X19615955Y43699369D01*
X19866086Y43737071D01*
X19873521Y43737628D01*
X20126479Y43737628D01*
X20133914Y43737071D01*
X20384045Y43699369D01*
X20391318Y43697709D01*
X20633034Y43623150D01*
X20639973Y43620427D01*
X20867876Y43510674D01*
X20874345Y43506939D01*
X21083336Y43364451D01*
X21089172Y43359797D01*
X21274601Y43187745D01*
X21279680Y43182271D01*
X21437387Y42984512D01*
X21441591Y42978346D01*
X21568067Y42759283D01*
X21571306Y42752555D01*
X21663719Y42517095D01*
X21665918Y42509966D01*
X21722205Y42263357D01*
X21723318Y42255968D01*
X21742220Y42003736D01*
X21742220Y41996264D01*
X21723318Y41744032D01*
X21722205Y41736643D01*
X21665918Y41490034D01*
X21663719Y41482905D01*
X21571306Y41247445D01*
X21568067Y41240717D01*
X21441591Y41021654D01*
X21437387Y41015488D01*
X21279680Y40817729D01*
X21274601Y40812255D01*
X21089172Y40640203D01*
X21083336Y40635549D01*
X20874345Y40493061D01*
X20867876Y40489326D01*
X20639973Y40379573D01*
X20633034Y40376850D01*
X20391318Y40302291D01*
X20384045Y40300631D01*
X20133914Y40262929D01*
X20126479Y40262372D01*
X19873521Y40262372D01*
X19873521Y28779932D01*
X26991570Y28177637D01*
X27052330Y28192066D01*
X27092681Y28239728D01*
X27100000Y28277280D01*
X27100000Y32997357D01*
X27100279Y33002633D01*
X27119389Y33183173D01*
X27121585Y33193433D01*
X27177252Y33363475D01*
X27181548Y33373048D01*
X27271687Y33527851D01*
X27277612Y33536003D01*
X27388823Y33660336D01*
X27392240Y33663801D01*
X27733647Y33978089D01*
X27735234Y33979490D01*
X27790391Y34026207D01*
X27792010Y34027521D01*
X28159325Y34313415D01*
X28160985Y34314653D01*
X28219837Y34356672D01*
X28221545Y34357839D01*
X28611247Y34612444D01*
X28612943Y34613503D01*
X28675101Y34650540D01*
X28676917Y34651572D01*
X29086265Y34873100D01*
X29088091Y34874040D01*
X29153066Y34905805D01*
X29154971Y34906688D01*
X29581205Y35093651D01*
X29583133Y35094450D01*
X29650495Y35120734D01*
X29652420Y35121440D01*
X30092703Y35272590D01*
X30094639Y35273210D01*
X30163999Y35293860D01*
X30165940Y35294394D01*
X30617175Y35408662D01*
X30619207Y35409132D01*
X30689979Y35423972D01*
X30692023Y35424356D01*
X31151120Y35500965D01*
X31153192Y35501267D01*
X31224954Y35510213D01*
X31226995Y35510424D01*
X31690893Y35548864D01*
X31692908Y35548989D01*
X31765207Y35551980D01*
X31767266Y35552022D01*
X32232734Y35552022D01*
X32234793Y35551980D01*
X32307092Y35548989D01*
X32309107Y35548864D01*
X32773005Y35510424D01*
X32775046Y35510213D01*
X32846808Y35501267D01*
X32848880Y35500965D01*
X33307977Y35424356D01*
X33310021Y35423972D01*
X33380793Y35409132D01*
X33382825Y35408662D01*
X33834060Y35294394D01*
X33836001Y35293860D01*
X33905361Y35273210D01*
X33907297Y35272590D01*
X34347580Y35121440D01*
X34349505Y35120734D01*
X34416867Y35094450D01*
X34418795Y35093651D01*
X34845029Y34906688D01*
X34846934Y34905805D01*
X34911909Y34874040D01*
X34913735Y34873100D01*
X35323083Y34651572D01*
X35324899Y34650540D01*
X35387057Y34613503D01*
X35388753Y34612444D01*
X35778455Y34357839D01*
X35780163Y34356672D01*
X35839015Y34314653D01*
X35840675Y34313415D01*
X36207990Y34027521D01*
X36209609Y34026207D01*
X36264766Y33979490D01*
X36266353Y33978089D01*
X36607608Y33663941D01*
X36611299Y33660165D01*
X36731184Y33523829D01*
X36737249Y33515259D01*
X36824650Y33359139D01*
X36828784Y33349493D01*
X36881805Y33177750D01*
X36883659Y33169075D01*
X36898697Y33045953D01*
X36899004Y33042369D01*
X36915766Y32701159D01*
X36916728Y32691393D01*
X36959911Y32400284D01*
X36961826Y32390659D01*
X37033330Y32105197D01*
X37036179Y32095806D01*
X37135321Y31818723D01*
X37139076Y31809657D01*
X37264901Y31543623D01*
X37269527Y31534968D01*
X37420821Y31282549D01*
X37426273Y31274390D01*
X37601582Y31038013D01*
X37607808Y31030427D01*
X37805438Y30812377D01*
X37812377Y30805438D01*
X38030427Y30607808D01*
X38038013Y30601582D01*
X38274390Y30426273D01*
X38282549Y30420821D01*
X38534968Y30269527D01*
X38543623Y30264901D01*
X38809657Y30139076D01*
X38818723Y30135321D01*
X39095806Y30036179D01*
X39105197Y30033330D01*
X39390659Y29961826D01*
X39400284Y29959911D01*
X39691393Y29916728D01*
X39701159Y29915766D01*
X40041524Y29899046D01*
X40046776Y29898509D01*
X40226162Y29870562D01*
X40236302Y29867865D01*
X40403405Y29803922D01*
X40412762Y29799159D01*
X40562767Y29701654D01*
X40570925Y29695033D01*
X40697198Y29568281D01*
X40703781Y29560108D01*
X40800716Y29409733D01*
X40805448Y29400352D01*
X40868554Y29233541D01*
X40871367Y29222283D01*
X40899592Y29003169D01*
X40900000Y28996801D01*
X40900000Y27092664D01*
X40919500Y27033337D01*
X40991568Y26993021D01*
X48922400Y26321951D01*
X48983160Y26336380D01*
X49023511Y26384042D01*
X49029460Y26438087D01*
X48467195Y29800426D01*
X48466599Y29805670D01*
X48455670Y29986898D01*
X48456144Y29997385D01*
X48483003Y30174275D01*
X48485662Y30184428D01*
X48548958Y30351775D01*
X48553685Y30361150D01*
X48650608Y30511529D01*
X48657198Y30519713D01*
X48783462Y30646475D01*
X48791608Y30653087D01*
X48941383Y30750456D01*
X48951251Y30755412D01*
X49139699Y30825140D01*
X49145285Y30826843D01*
X49510921Y30915460D01*
X49513416Y30915998D01*
X49601668Y30932645D01*
X49604181Y30933053D01*
X49978612Y30983954D01*
X49981174Y30984235D01*
X50070642Y30991749D01*
X50073197Y30991898D01*
X50450836Y31004157D01*
X50453448Y31004174D01*
X50543216Y31002479D01*
X50545747Y31002366D01*
X50922689Y30975855D01*
X50925274Y30975606D01*
X51014372Y30964722D01*
X51016934Y30964342D01*
X51389151Y30899343D01*
X51391660Y30898838D01*
X51479228Y30878868D01*
X51481667Y30878246D01*
X51845324Y30775424D01*
X51847734Y30774676D01*
X51932814Y30745829D01*
X51935175Y30744960D01*
X52286367Y30605415D01*
X52288696Y30604420D01*
X52370363Y30567011D01*
X52372644Y30565894D01*
X52707686Y30391091D01*
X52709877Y30389876D01*
X52787291Y30344287D01*
X52789455Y30342936D01*
X53104761Y30134754D01*
X53106903Y30133260D01*
X53179179Y30080020D01*
X53181213Y30078439D01*
X53473545Y29839021D01*
X53475481Y29837351D01*
X53541942Y29776963D01*
X53543794Y29775191D01*
X53810040Y29507084D01*
X53811825Y29505191D01*
X53871724Y29438336D01*
X53873393Y29436375D01*
X54110763Y29142388D01*
X54112334Y29140336D01*
X54165062Y29067701D01*
X54166544Y29065546D01*
X54372518Y28748805D01*
X54373877Y28746593D01*
X54418880Y28668942D01*
X54420132Y28666647D01*
X54592565Y28330456D01*
X54593688Y28328119D01*
X54630507Y28246241D01*
X54631488Y28243902D01*
X54768578Y27891759D01*
X54769452Y27889331D01*
X54797679Y27804128D01*
X54798435Y27801634D01*
X54898699Y27437342D01*
X54899321Y27434827D01*
X54918670Y27347173D01*
X54919159Y27344651D01*
X54981342Y26973314D01*
X54981938Y26968065D01*
X54992907Y26786855D01*
X54992434Y26776359D01*
X54965617Y26599467D01*
X54962960Y26589312D01*
X54899702Y26421953D01*
X54894977Y26412577D01*
X54798169Y26262301D01*
X54791362Y26253901D01*
X54654342Y26118070D01*
X54650152Y26114356D01*
X54531894Y26020850D01*
X54497451Y25968757D01*
X54500631Y25906388D01*
X54540192Y25858068D01*
X54585486Y25842766D01*
X57510916Y25595230D01*
X57574903Y25611727D01*
X57681107Y25682690D01*
X57686788Y25685970D01*
X57950723Y25816129D01*
X57956780Y25818638D01*
X58235459Y25913236D01*
X58241761Y25914925D01*
X58530425Y25972344D01*
X58536896Y25973196D01*
X58647685Y25980457D01*
X58647685Y27337930D01*
X58439335Y27356158D01*
X58430763Y27357669D01*
X58228723Y27411805D01*
X58220564Y27414775D01*
X58030995Y27503173D01*
X58023468Y27507518D01*
X57852128Y27627491D01*
X57845469Y27633079D01*
X57697570Y27780978D01*
X57691982Y27787637D01*
X57570754Y27960770D01*
X57568422Y27964429D01*
X56820589Y29259714D01*
X56818591Y29263553D01*
X56729266Y29455111D01*
X56726296Y29463270D01*
X56672160Y29665310D01*
X56670649Y29673882D01*
X56652421Y29882230D01*
X56652421Y29890942D01*
X56670649Y30099292D01*
X56672160Y30107864D01*
X56726296Y30309904D01*
X56729267Y30318063D01*
X56788092Y30444216D01*
X56795492Y30506226D01*
X56764659Y30560533D01*
X56736440Y30578567D01*
X56707404Y30590857D01*
X56699289Y30595215D01*
X56687696Y30602897D01*
X56675646Y30609731D01*
X56663110Y30615734D01*
X56655208Y30620459D01*
X56599316Y30661331D01*
X56595525Y30663971D01*
X56537788Y30702229D01*
X56530611Y30708004D01*
X56520628Y30717685D01*
X56510039Y30726617D01*
X56498819Y30734821D01*
X56491918Y30740920D01*
X56444487Y30791366D01*
X56441247Y30794656D01*
X56391519Y30842876D01*
X56385535Y30849862D01*
X56377495Y30861219D01*
X56368731Y30871939D01*
X56359211Y30882064D01*
X56353545Y30889332D01*
X56316198Y30947625D01*
X56313616Y30951458D01*
X56272251Y31009891D01*
X56269762Y31013775D01*
X53732072Y35409185D01*
X53729956Y35413275D01*
X53700045Y35478288D01*
X53698017Y35482440D01*
X53666192Y35543960D01*
X53662732Y35552499D01*
X53658722Y35565810D01*
X53653818Y35578765D01*
X53648009Y35591390D01*
X53644950Y35600072D01*
X53628063Y35667215D01*
X53626833Y35671668D01*
X53606849Y35738004D01*
X53605019Y35747026D01*
X53603522Y35760857D01*
X53601082Y35774491D01*
X53597692Y35787971D01*
X53596280Y35797065D01*
X53592019Y35866161D01*
X53591628Y35870765D01*
X53587965Y35904612D01*
X53562195Y35961497D01*
X53496023Y35993572D01*
X53491097Y35993941D01*
X53483713Y35995054D01*
X53252766Y36047766D01*
X53245637Y36049965D01*
X53025132Y36136508D01*
X53018404Y36139748D01*
X52813256Y36258189D01*
X52807090Y36262393D01*
X52621894Y36410083D01*
X52616416Y36415165D01*
X52455294Y36588813D01*
X52450644Y36594645D01*
X52316152Y36791908D01*
X52314160Y36795077D01*
X51681030Y37891692D01*
X51679279Y37895004D01*
X51575688Y38110114D01*
X51572965Y38117053D01*
X51503141Y38343415D01*
X51501481Y38350688D01*
X51466174Y38584932D01*
X51465617Y38592367D01*
X51465617Y38829258D01*
X51466174Y38836693D01*
X51501482Y39070936D01*
X51503142Y39078209D01*
X51572965Y39304572D01*
X51575688Y39311511D01*
X51678469Y39524938D01*
X51682204Y39531407D01*
X51815644Y39727127D01*
X51820294Y39732959D01*
X51981416Y39906607D01*
X51986893Y39911689D01*
X52172092Y40059380D01*
X52178253Y40063581D01*
X52383413Y40182030D01*
X52390126Y40185263D01*
X52610637Y40271807D01*
X52617766Y40274006D01*
X52848711Y40326718D01*
X52856100Y40327831D01*
X53092310Y40345532D01*
X53099782Y40345532D01*
X53335997Y40327831D01*
X53338597Y40327439D01*
X53339402Y40327576D01*
X53339730Y40327551D01*
X53339736Y40327632D01*
X53400167Y40337883D01*
X53452158Y40410033D01*
X53461597Y40467207D01*
X53464128Y40476654D01*
X53529722Y40650933D01*
X53534046Y40659700D01*
X53632373Y40817824D01*
X53638331Y40825588D01*
X53765620Y40961493D01*
X53772971Y40967939D01*
X53926334Y41077838D01*
X53930440Y41080486D01*
X55026052Y41713037D01*
X55030420Y41715281D01*
X55202258Y41793140D01*
X55211522Y41796285D01*
X55392866Y41838567D01*
X55402563Y41839844D01*
X55588664Y41845936D01*
X55598431Y41845296D01*
X55782144Y41814965D01*
X55791592Y41812434D01*
X55965871Y41746840D01*
X55974638Y41742516D01*
X56132762Y41644189D01*
X56140526Y41638231D01*
X56276431Y41510942D01*
X56282877Y41503591D01*
X56392776Y41350228D01*
X56395424Y41346122D01*
X56537194Y41100569D01*
X56583745Y41058941D01*
X56645916Y41053047D01*
X56700400Y41086291D01*
X56895731Y41319078D01*
X56899994Y41321721D01*
X56924277Y41316028D01*
X56982628Y41267065D01*
X56459265Y40643345D01*
X56531467Y39818071D01*
X57166080Y39285568D01*
X57991354Y39357770D01*
X58514718Y39981491D01*
X58579056Y39927504D01*
X58581699Y39923242D01*
X58576006Y39898959D01*
X58071118Y39297257D01*
X58064122Y39290413D01*
X58045211Y39275235D01*
X58028074Y39266313D01*
X58004783Y39259524D01*
X57995175Y39257722D01*
X57769866Y39238010D01*
X57712464Y39213414D01*
X57680848Y39159559D01*
X57687496Y39097121D01*
X57743079Y38974448D01*
X57746223Y38965188D01*
X57788505Y38783844D01*
X57789782Y38774147D01*
X57795874Y38588046D01*
X57795234Y38578279D01*
X57764903Y38394566D01*
X57762372Y38385118D01*
X57696778Y38210839D01*
X57692454Y38202072D01*
X57594127Y38043948D01*
X57588169Y38036184D01*
X57460880Y37900279D01*
X57453529Y37893833D01*
X57300166Y37783934D01*
X57296060Y37781286D01*
X56200448Y37148735D01*
X56196080Y37146491D01*
X56024242Y37068632D01*
X56014978Y37065487D01*
X55833634Y37023205D01*
X55823937Y37021928D01*
X55741079Y37019216D01*
X55682422Y36997786D01*
X55647917Y36945734D01*
X55651022Y36883362D01*
X55718469Y36822679D01*
X58435720Y36094593D01*
X58440112Y36093196D01*
X58481320Y36077957D01*
X58490123Y36075157D01*
X58530307Y36064390D01*
X58538945Y36061196D01*
X58576470Y36043226D01*
X58584977Y36039625D01*
X58624009Y36025191D01*
X58632310Y36021217D01*
X58668022Y35999858D01*
X58676161Y35995487D01*
X58713692Y35977515D01*
X58721591Y35972791D01*
X58755176Y35948231D01*
X58762876Y35943128D01*
X58798588Y35921770D01*
X58806016Y35916339D01*
X58837191Y35888785D01*
X58844389Y35882993D01*
X58877976Y35858433D01*
X58884880Y35852330D01*
X58913380Y35822018D01*
X58920011Y35815587D01*
X58951187Y35788033D01*
X58957496Y35781324D01*
X58983073Y35748517D01*
X58989082Y35741503D01*
X59017591Y35711181D01*
X59023252Y35703920D01*
X59045705Y35668876D01*
X59051040Y35661339D01*
X59076615Y35628534D01*
X59081584Y35620779D01*
X59100698Y35583829D01*
X59105317Y35575829D01*
X59127768Y35540787D01*
X59132000Y35532607D01*
X59147631Y35494033D01*
X59151492Y35485643D01*
X59170601Y35448704D01*
X59174062Y35440162D01*
X59186059Y35400338D01*
X59189129Y35391625D01*
X59204762Y35353048D01*
X59207417Y35344234D01*
X59215695Y35303439D01*
X59217948Y35294483D01*
X59229946Y35254653D01*
X59231776Y35245632D01*
X59236252Y35204278D01*
X59237668Y35195152D01*
X59245945Y35154360D01*
X59246936Y35145199D01*
X59247577Y35103588D01*
X59248145Y35094369D01*
X59252621Y35053005D01*
X59252764Y35043808D01*
X59249563Y35002325D01*
X59249279Y34993093D01*
X59249920Y34951490D01*
X59249210Y34942293D01*
X59242196Y34901288D01*
X59241060Y34892120D01*
X59237860Y34850638D01*
X59236307Y34841560D01*
X59225540Y34801376D01*
X59223564Y34792354D01*
X59216156Y34749042D01*
X59215173Y34744554D01*
X58346704Y31503379D01*
X58350185Y31441026D01*
X58389979Y31392897D01*
X58434581Y31377878D01*
X58547768Y31367976D01*
X58556329Y31366467D01*
X58758369Y31312331D01*
X58766528Y31309361D01*
X58929733Y31233257D01*
X58991742Y31225857D01*
X59051329Y31263012D01*
X59143124Y31382642D01*
X59148371Y31388469D01*
X59313409Y31545085D01*
X59319492Y31550011D01*
X59508623Y31679997D01*
X59511934Y31682086D01*
X60374571Y32180129D01*
X60378022Y32181945D01*
X60585173Y32280752D01*
X60592473Y32283553D01*
X60810628Y32348173D01*
X60818292Y32349802D01*
X61043857Y32379498D01*
X61051689Y32379909D01*
X61179446Y32376564D01*
X61239263Y32394505D01*
X61276772Y32444435D01*
X61281771Y32484157D01*
X61278376Y32528529D01*
X61278590Y32538298D01*
X61300878Y32723166D01*
X61302997Y32732721D01*
X61360925Y32909690D01*
X61364860Y32918632D01*
X61457410Y33083051D01*
X61460018Y33087195D01*
X61694782Y33422473D01*
X61697793Y33426354D01*
X61820636Y33569550D01*
X61827696Y33576309D01*
X61974178Y33691268D01*
X61982432Y33696526D01*
X62148526Y33780699D01*
X62157638Y33784243D01*
X62339334Y33835059D01*
X62344118Y33836147D01*
X62427203Y33850797D01*
X62482242Y33880303D01*
X62509044Y33936709D01*
X62497155Y33998017D01*
X62440153Y34044570D01*
X62420605Y34050789D01*
X62412137Y34054372D01*
X62241431Y34146039D01*
X62233767Y34151118D01*
X62082821Y34272584D01*
X62076213Y34278992D01*
X61950155Y34426127D01*
X61944840Y34433634D01*
X61847968Y34601423D01*
X61844117Y34609795D01*
X61779726Y34792522D01*
X61777482Y34801441D01*
X61747762Y34992898D01*
X61747576Y34995922D01*
X61747182Y34996639D01*
X61747053Y34997468D01*
X61746752Y34997421D01*
X61708684Y35066659D01*
X61709863Y35068144D01*
X61670659Y35099283D01*
X61663701Y35104338D01*
X61625868Y35129408D01*
X61618694Y35135180D01*
X61591571Y35161481D01*
X61584154Y35167995D01*
X61554535Y35191521D01*
X61547882Y35197891D01*
X61518108Y35232200D01*
X61512196Y35238448D01*
X61479605Y35270051D01*
X61473616Y35277041D01*
X61451774Y35307896D01*
X61445680Y35315661D01*
X61420898Y35344218D01*
X61415536Y35351692D01*
X61392581Y35390874D01*
X61387916Y35398103D01*
X61360343Y35437054D01*
X61357851Y35440944D01*
X61288496Y35561071D01*
X61286377Y35565167D01*
X61267599Y35605983D01*
X61263437Y35614043D01*
X61242207Y35650955D01*
X61238371Y35659330D01*
X61224937Y35697655D01*
X61221412Y35706374D01*
X61204427Y35743290D01*
X61201368Y35751971D01*
X61190976Y35793291D01*
X61188366Y35801981D01*
X61174279Y35842169D01*
X61172047Y35851104D01*
X61165881Y35891256D01*
X61164022Y35900460D01*
X61161796Y35909314D01*
X61134423Y35956727D01*
X61129891Y35961121D01*
X61122480Y35967629D01*
X61092870Y35991149D01*
X61086226Y35997510D01*
X61056454Y36031816D01*
X61050541Y36038065D01*
X61017942Y36069675D01*
X61011951Y36076668D01*
X60990110Y36107520D01*
X60984017Y36115284D01*
X60959237Y36143838D01*
X60953872Y36151316D01*
X60930915Y36190502D01*
X60926251Y36197731D01*
X60898674Y36236688D01*
X60896190Y36240564D01*
X60826827Y36360703D01*
X60824706Y36364806D01*
X60805933Y36405609D01*
X60801772Y36413670D01*
X60780537Y36450591D01*
X60776702Y36458962D01*
X60763268Y36497285D01*
X60759745Y36506000D01*
X60742762Y36542913D01*
X60739703Y36551594D01*
X60729310Y36592918D01*
X60726700Y36601607D01*
X60720054Y36620567D01*
X60701624Y36652550D01*
X60687466Y36669075D01*
X60681139Y36675804D01*
X60651273Y36704764D01*
X60645284Y36711754D01*
X60621246Y36745711D01*
X60615567Y36752995D01*
X60588487Y36784602D01*
X60583175Y36792106D01*
X60562364Y36828152D01*
X60557381Y36835929D01*
X60532002Y36871781D01*
X60529518Y36875657D01*
X60341268Y37201717D01*
X60339155Y37205801D01*
X60320370Y37246631D01*
X60316208Y37254691D01*
X60294984Y37291593D01*
X60291147Y37299969D01*
X60277715Y37338287D01*
X60274192Y37347002D01*
X60257203Y37383929D01*
X60254148Y37392598D01*
X60243752Y37433934D01*
X60241142Y37442623D01*
X60227057Y37482805D01*
X60224825Y37491739D01*
X60221029Y37516458D01*
X60184753Y37579289D01*
X60165244Y37594935D01*
X60158628Y37601329D01*
X60130848Y37633645D01*
X60124629Y37640248D01*
X60094052Y37669897D01*
X60088064Y37676887D01*
X60064595Y37710040D01*
X60058808Y37717450D01*
X60032327Y37748255D01*
X60026994Y37755762D01*
X60005631Y37792623D01*
X60000730Y37800259D01*
X59974782Y37836914D01*
X59972293Y37840798D01*
X59855712Y38042723D01*
X59853599Y38046807D01*
X59835224Y38086746D01*
X59830980Y38094949D01*
X59762411Y38213715D01*
X59758562Y38222080D01*
X59733008Y38294600D01*
X59714632Y38326428D01*
X59664605Y38384819D01*
X59659282Y38392338D01*
X59562413Y38560121D01*
X59558562Y38568493D01*
X59494171Y38751220D01*
X59491927Y38760139D01*
X59462206Y38951606D01*
X59461640Y38960779D01*
X59467607Y39154441D01*
X59468738Y39163575D01*
X59510186Y39352832D01*
X59512979Y39361610D01*
X59588500Y39540035D01*
X59592848Y39548133D01*
X59699870Y39709646D01*
X59705643Y39716820D01*
X59840514Y39855909D01*
X59847508Y39861902D01*
X59903160Y39901296D01*
X59940317Y39951489D01*
X59940449Y40013938D01*
X59903506Y40064289D01*
X59857354Y40082195D01*
X59701026Y40101044D01*
X59696191Y40101869D01*
X59509591Y40143238D01*
X59504868Y40144531D01*
X59342229Y40197768D01*
X59337638Y40199525D01*
X59162717Y40276492D01*
X59158311Y40278694D01*
X59051541Y40338794D01*
X58990277Y40350902D01*
X58925886Y40315930D01*
X58730178Y40082694D01*
X58725915Y40080051D01*
X58701632Y40085744D01*
X58643281Y40134706D01*
X59166645Y40758427D01*
X59094443Y41583701D01*
X58459830Y42116204D01*
X57634556Y42044002D01*
X57111192Y41420281D01*
X57046854Y41474267D01*
X57044211Y41478530D01*
X57049904Y41502813D01*
X57554792Y42104515D01*
X57561788Y42111359D01*
X57580699Y42126537D01*
X57597836Y42135459D01*
X57621127Y42142248D01*
X57630734Y42144050D01*
X58202689Y42194090D01*
X58260090Y42218686D01*
X58291706Y42272541D01*
X58292412Y42309301D01*
X58292711Y42309344D01*
X58292061Y42313814D01*
X58278653Y42430792D01*
X58278399Y42433812D01*
X58270426Y42582137D01*
X58270467Y42588171D01*
X58286232Y42822668D01*
X58287000Y42828654D01*
X58314475Y42973109D01*
X58315955Y42978943D01*
X58387384Y43202864D01*
X58389564Y43208498D01*
X58450805Y43342165D01*
X58453647Y43347493D01*
X58576588Y43547812D01*
X58580035Y43552735D01*
X58671497Y43667877D01*
X58675527Y43672366D01*
X58842838Y43837445D01*
X58847376Y43841410D01*
X58963730Y43931314D01*
X58968715Y43934706D01*
X59170663Y44054943D01*
X59176017Y44057707D01*
X59310500Y44117150D01*
X59316156Y44119253D01*
X59541024Y44187673D01*
X59546870Y44189072D01*
X59691679Y44214605D01*
X59697681Y44215293D01*
X59932368Y44227909D01*
X59938402Y44227868D01*
X60085108Y44218005D01*
X60091094Y44217237D01*
X60321978Y44173323D01*
X60327823Y44171840D01*
X60467912Y44127154D01*
X60473530Y44124980D01*
X60687213Y44027080D01*
X60692533Y44024242D01*
X60817862Y43947323D01*
X60822785Y43943876D01*
X61006823Y43797687D01*
X61011312Y43793657D01*
X61114585Y43688987D01*
X61118552Y43684449D01*
X61262257Y43498465D01*
X61265658Y43493466D01*
X61340878Y43367128D01*
X61343642Y43361774D01*
X61438659Y43146814D01*
X61440761Y43141155D01*
X61484000Y42999044D01*
X61484795Y42996120D01*
X61512201Y42881625D01*
X61512816Y42878664D01*
X61732652Y41631910D01*
X61733272Y41626956D01*
X61747580Y41435240D01*
X61747325Y41425286D01*
X61723558Y41237043D01*
X61721329Y41227331D01*
X61660957Y41048556D01*
X61655770Y41037724D01*
X61509173Y40807687D01*
X61504955Y40802000D01*
X61452840Y40741251D01*
X61429012Y40683526D01*
X61444077Y40622921D01*
X61489759Y40584052D01*
X61510130Y40575429D01*
X61518234Y40571078D01*
X61679747Y40464056D01*
X61686921Y40458283D01*
X61826010Y40323412D01*
X61831999Y40316422D01*
X61945281Y40156394D01*
X61947765Y40152518D01*
X61993232Y40073765D01*
X61995356Y40069660D01*
X62015300Y40026311D01*
X62019228Y40018660D01*
X62031116Y39997764D01*
X62036409Y39989442D01*
X62036888Y39988765D01*
X62133761Y39820976D01*
X62137612Y39812606D01*
X62187237Y39671781D01*
X62211937Y39633226D01*
X62240460Y39605568D01*
X62246444Y39598583D01*
X62269912Y39565431D01*
X62275699Y39558021D01*
X62302182Y39527213D01*
X62307506Y39519719D01*
X62328870Y39482857D01*
X62333768Y39475225D01*
X62359728Y39438551D01*
X62362209Y39434678D01*
X62413198Y39346362D01*
X62469642Y39301018D01*
X62516189Y39286295D01*
X62524677Y39282718D01*
X62537807Y39275696D01*
X62550283Y39270084D01*
X62564256Y39264917D01*
X62572566Y39260937D01*
X62631174Y39225885D01*
X62635339Y39223528D01*
X62697542Y39190258D01*
X62701535Y39187879D01*
X62786813Y39131574D01*
X62790550Y39128851D01*
X62825574Y39100762D01*
X62832902Y39095412D01*
X62868427Y39071872D01*
X62875591Y39066108D01*
X62904775Y39037809D01*
X62911824Y39031590D01*
X62943499Y39006187D01*
X62950114Y38999794D01*
X62977875Y38967499D01*
X62984096Y38960894D01*
X63014683Y38931235D01*
X63020681Y38924234D01*
X63044150Y38891081D01*
X63049935Y38883672D01*
X63076414Y38852868D01*
X63081741Y38845368D01*
X63103095Y38808522D01*
X63107996Y38800886D01*
X63133957Y38764212D01*
X63136441Y38760336D01*
X63300801Y38475653D01*
X63302917Y38471563D01*
X63321282Y38431645D01*
X63325527Y38423440D01*
X63346320Y38387427D01*
X63350172Y38379052D01*
X63363991Y38339838D01*
X63367459Y38331279D01*
X63384864Y38293448D01*
X63387922Y38284768D01*
X63398077Y38244394D01*
X63400741Y38235552D01*
X63414563Y38196328D01*
X63416808Y38187401D01*
X63423188Y38146297D01*
X63425025Y38137245D01*
X63435179Y38096872D01*
X63436592Y38087769D01*
X63439154Y38046234D01*
X63440147Y38037053D01*
X63446529Y37995937D01*
X63447095Y37986763D01*
X63445813Y37945172D01*
X63445956Y37935935D01*
X63448518Y37894403D01*
X63448234Y37885186D01*
X63443121Y37843889D01*
X63442410Y37834683D01*
X63441128Y37793101D01*
X63439997Y37783969D01*
X63431098Y37743335D01*
X63429541Y37734229D01*
X63424426Y37692918D01*
X63422456Y37683922D01*
X63416103Y37663954D01*
X63424479Y37584184D01*
X63427242Y37579328D01*
X63431037Y37570941D01*
X63443380Y37535189D01*
X63447059Y37526027D01*
X63462856Y37491693D01*
X63465913Y37483017D01*
X63476989Y37438981D01*
X63479444Y37430737D01*
X63494269Y37387798D01*
X63496456Y37378865D01*
X63502019Y37341458D01*
X63503952Y37331773D01*
X63505491Y37325655D01*
X63532861Y37278255D01*
X63539425Y37271891D01*
X63546468Y37265677D01*
X63578148Y37240269D01*
X63584779Y37233860D01*
X63612529Y37201578D01*
X63618749Y37194973D01*
X63649341Y37165309D01*
X63655330Y37158320D01*
X63678807Y37125154D01*
X63684594Y37117744D01*
X63711067Y37086947D01*
X63716401Y37079439D01*
X63716585Y37079121D01*
X63716671Y37079058D01*
X63719078Y37075670D01*
X63720210Y37076474D01*
X63781715Y37031573D01*
X63801607Y37027217D01*
X63810385Y37024424D01*
X63988810Y36948903D01*
X63996908Y36944555D01*
X64158422Y36837533D01*
X64165596Y36831760D01*
X64304682Y36696892D01*
X64310678Y36689893D01*
X64423948Y36529880D01*
X64426442Y36525988D01*
X64662461Y36117190D01*
X64664589Y36113077D01*
X64682947Y36073175D01*
X64687190Y36064972D01*
X64707990Y36028945D01*
X64711839Y36020578D01*
X64725663Y35981350D01*
X64729131Y35972791D01*
X64746532Y35934969D01*
X64749587Y35926297D01*
X64759741Y35885924D01*
X64762406Y35877077D01*
X64776231Y35837847D01*
X64778476Y35828922D01*
X64784856Y35787817D01*
X64786694Y35778763D01*
X64796845Y35738405D01*
X64798258Y35729302D01*
X64800820Y35687760D01*
X64801813Y35678577D01*
X64808195Y35637462D01*
X64808762Y35628282D01*
X64807480Y35586688D01*
X64807623Y35577452D01*
X64810184Y35535932D01*
X64809900Y35526716D01*
X64804788Y35485429D01*
X64804077Y35476221D01*
X64802795Y35434627D01*
X64801664Y35425489D01*
X64792763Y35384846D01*
X64791206Y35375743D01*
X64786093Y35334452D01*
X64784121Y35325448D01*
X64771509Y35285803D01*
X64769118Y35276881D01*
X64760215Y35236227D01*
X64757427Y35227463D01*
X64741208Y35189147D01*
X64738003Y35180481D01*
X64725388Y35140823D01*
X64721800Y35132346D01*
X64702111Y35095681D01*
X64698121Y35087350D01*
X64681902Y35049031D01*
X64677552Y35040929D01*
X64654569Y35006244D01*
X64649829Y34998319D01*
X64630140Y34961655D01*
X64625056Y34953983D01*
X64598964Y34921558D01*
X64593512Y34914102D01*
X64570535Y34879426D01*
X64564759Y34872248D01*
X64535798Y34842381D01*
X64529682Y34835461D01*
X64503593Y34803040D01*
X64497186Y34796433D01*
X64465583Y34769357D01*
X64458853Y34763030D01*
X64429883Y34733154D01*
X64422895Y34727167D01*
X64388936Y34703126D01*
X64381655Y34697450D01*
X64350055Y34670378D01*
X64342539Y34665058D01*
X64306515Y34644260D01*
X64298736Y34639276D01*
X64262888Y34613899D01*
X64258979Y34611394D01*
X63396962Y34113709D01*
X63392878Y34111596D01*
X63249436Y34045602D01*
X63203690Y34003090D01*
X63192085Y33941728D01*
X63219148Y33885447D01*
X63260124Y33859719D01*
X63321346Y33839679D01*
X63330291Y33835743D01*
X63494710Y33743193D01*
X63498854Y33740585D01*
X63834132Y33505821D01*
X63838013Y33502810D01*
X63981209Y33379967D01*
X63987968Y33372907D01*
X64102927Y33226425D01*
X64108185Y33218171D01*
X64192358Y33052077D01*
X64195902Y33042965D01*
X64246718Y32861269D01*
X64247806Y32856486D01*
X64492529Y31468585D01*
X64493141Y31463738D01*
X64507534Y31275607D01*
X64507320Y31265838D01*
X64485032Y31080970D01*
X64482913Y31071415D01*
X64424985Y30894446D01*
X64421050Y30885504D01*
X64328500Y30721085D01*
X64325892Y30716941D01*
X64091128Y30381663D01*
X64088117Y30377782D01*
X63965274Y30234586D01*
X63958214Y30227827D01*
X63811732Y30112868D01*
X63803478Y30107610D01*
X63637384Y30023437D01*
X63628272Y30019893D01*
X63446576Y29969077D01*
X63441793Y29967989D01*
X63038700Y29896914D01*
X63033853Y29896302D01*
X62845722Y29881909D01*
X62835953Y29882123D01*
X62651085Y29904411D01*
X62641530Y29906530D01*
X62464561Y29964458D01*
X62455619Y29968393D01*
X62429548Y29983068D01*
X62368284Y29995177D01*
X62301162Y29956802D01*
X62243372Y29881490D01*
X62238132Y29875669D01*
X62073091Y29719051D01*
X62067008Y29714125D01*
X61877877Y29584139D01*
X61874566Y29582050D01*
X61011929Y29084007D01*
X61008478Y29082191D01*
X60801327Y28983384D01*
X60794027Y28980583D01*
X60575872Y28915963D01*
X60568207Y28914334D01*
X60418702Y28894651D01*
X60362427Y28867575D01*
X60332135Y28804223D01*
X60316441Y28624833D01*
X60314932Y28616272D01*
X60260796Y28414232D01*
X60257826Y28406073D01*
X60169428Y28216504D01*
X60165083Y28208977D01*
X60045110Y28037637D01*
X60039522Y28030978D01*
X59891623Y27883079D01*
X59884964Y27877491D01*
X59711831Y27756263D01*
X59708172Y27753931D01*
X59278913Y27506098D01*
X59275074Y27504100D01*
X59083516Y27414775D01*
X59075357Y27411805D01*
X58873317Y27357669D01*
X58864745Y27356158D01*
X58656395Y27337930D01*
X58647685Y27337930D01*
X58647685Y25980457D01*
X58830576Y25992445D01*
X58837106Y25992445D01*
X59130786Y25973196D01*
X59137257Y25972344D01*
X59425921Y25914925D01*
X59432223Y25913236D01*
X59710902Y25818638D01*
X59716959Y25816129D01*
X59980894Y25685970D01*
X59986575Y25682690D01*
X60231263Y25519195D01*
X60236458Y25515209D01*
X60401797Y25370212D01*
X60459300Y25345752D01*
X72938140Y24289849D01*
X72938140Y28719450D01*
X72610677Y28722842D01*
X72604881Y28723240D01*
X72280030Y28764625D01*
X72274318Y28765694D01*
X71956479Y28844509D01*
X71950912Y28846238D01*
X71644848Y28961240D01*
X71638637Y28964072D01*
X71424303Y29080092D01*
X71417725Y29084352D01*
X71224593Y29232157D01*
X71218754Y29237400D01*
X71051116Y29413603D01*
X71046181Y29419682D01*
X70908170Y29619939D01*
X70904243Y29626721D01*
X70799254Y29846113D01*
X70796442Y29853410D01*
X70727064Y30086532D01*
X70725429Y30094176D01*
X70693374Y30335279D01*
X70692955Y30343092D01*
X70699010Y30586229D01*
X70699819Y30594025D01*
X70743838Y30833228D01*
X70745851Y30840780D01*
X70826748Y31070159D01*
X70829920Y31077308D01*
X70945701Y31291200D01*
X70949961Y31297778D01*
X71097766Y31490910D01*
X71103009Y31496749D01*
X71279212Y31664387D01*
X71285291Y31669322D01*
X71485548Y31807333D01*
X71492336Y31811264D01*
X71515393Y31822298D01*
X71560490Y31865497D01*
X71571164Y31927028D01*
X71552534Y31972085D01*
X71537303Y31992613D01*
X71533143Y31999252D01*
X71420563Y32214843D01*
X71417496Y32222044D01*
X71340029Y32452586D01*
X71338121Y32460200D01*
X71297676Y32700009D01*
X71296983Y32707818D01*
X71294549Y32951015D01*
X71295086Y32958835D01*
X71330727Y33199415D01*
X71332480Y33207053D01*
X71405316Y33439094D01*
X71408247Y33446374D01*
X71516484Y33664159D01*
X71520513Y33670884D01*
X71661495Y33869069D01*
X71666518Y33875071D01*
X71836767Y34048761D01*
X71842675Y34053909D01*
X72037996Y34198825D01*
X72044633Y34202984D01*
X72260224Y34315564D01*
X72267425Y34318631D01*
X72497967Y34396098D01*
X72505581Y34398006D01*
X72745391Y34438451D01*
X72753199Y34439144D01*
X72996902Y34441582D01*
X73003725Y34441183D01*
X73328066Y34399863D01*
X73333778Y34398794D01*
X73651617Y34319979D01*
X73657184Y34318250D01*
X73963730Y34203067D01*
X73969033Y34200714D01*
X74260145Y34050716D01*
X74265150Y34047756D01*
X74536864Y33864987D01*
X74541502Y33861460D01*
X74790168Y33648377D01*
X74794348Y33644350D01*
X75016596Y33403837D01*
X75020290Y33399341D01*
X75213114Y33134653D01*
X75216253Y33129771D01*
X75377045Y32844487D01*
X75379604Y32839258D01*
X75506186Y32537243D01*
X75508117Y32531762D01*
X75598784Y32217085D01*
X75600066Y32211414D01*
X75653587Y31888346D01*
X75654202Y31882570D01*
X75669856Y31555467D01*
X75669795Y31549644D01*
X75647369Y31222945D01*
X75646636Y31217183D01*
X75586429Y30895274D01*
X75585035Y30889652D01*
X75487865Y30576908D01*
X75485825Y30571481D01*
X75353007Y30272136D01*
X75350348Y30266975D01*
X75183677Y29985078D01*
X75180440Y29980265D01*
X74982173Y29719626D01*
X74978383Y29715204D01*
X74751203Y29479350D01*
X74746942Y29475412D01*
X74493896Y29267511D01*
X74489224Y29264107D01*
X74213760Y29086992D01*
X74208688Y29084134D01*
X73914547Y28940206D01*
X73909191Y28937961D01*
X73600310Y28829147D01*
X73594733Y28827541D01*
X73275322Y28755325D01*
X73269580Y28754374D01*
X72943945Y28719728D01*
X72938140Y28719450D01*
X72938140Y24289849D01*
X81163744Y23593836D01*
X81163744Y33618338D01*
X80920557Y33622859D01*
X80912774Y33623618D01*
X80673304Y33666123D01*
X80665716Y33668094D01*
X80435845Y33747537D01*
X80428668Y33750668D01*
X80214055Y33865092D01*
X80207456Y33869307D01*
X80013381Y34015898D01*
X80007520Y34021095D01*
X79838772Y34196237D01*
X79833794Y34202289D01*
X79694522Y34401671D01*
X79690553Y34408427D01*
X79584186Y34627141D01*
X79581321Y34634439D01*
X79510476Y34867105D01*
X79508790Y34874753D01*
X79475113Y35116358D01*
X79474637Y35122719D01*
X79470609Y35493500D01*
X79470796Y35498405D01*
X79503194Y35868525D01*
X79503862Y35873391D01*
X79572385Y36238571D01*
X79573520Y36243320D01*
X79677509Y36600030D01*
X79679110Y36604663D01*
X79817556Y36949448D01*
X79819603Y36953901D01*
X79991179Y37283461D01*
X79993649Y37287685D01*
X80196707Y37598848D01*
X80199581Y37602813D01*
X80432150Y37892562D01*
X80435408Y37896236D01*
X80695262Y38161797D01*
X80698852Y38165123D01*
X80983490Y38403941D01*
X80987389Y38406899D01*
X81294058Y38616664D01*
X81298247Y38619236D01*
X81623979Y38797920D01*
X81628407Y38800074D01*
X81970098Y38945976D01*
X81974694Y38947677D01*
X82055540Y38973163D01*
X82114277Y39022559D01*
X82600811Y39962303D01*
X82602757Y39965725D01*
X82641150Y40027473D01*
X82644163Y40032660D01*
X82677849Y40094870D01*
X82682109Y40101446D01*
X82705965Y40132609D01*
X82711484Y40140594D01*
X82732207Y40173924D01*
X82736860Y40180242D01*
X82783155Y40233738D01*
X82786943Y40238390D01*
X82829946Y40294565D01*
X82835181Y40300391D01*
X82863622Y40327442D01*
X82870324Y40334467D01*
X82896010Y40364150D01*
X82901585Y40369653D01*
X82955668Y40415241D01*
X82960135Y40419241D01*
X83011418Y40468017D01*
X83017487Y40472942D01*
X83049824Y40495221D01*
X83057540Y40501109D01*
X83087543Y40526399D01*
X83093907Y40530960D01*
X83154463Y40567530D01*
X83159502Y40570784D01*
X83217772Y40610929D01*
X83224557Y40614857D01*
X83259962Y40631794D01*
X83268502Y40636401D01*
X83302107Y40656695D01*
X83309109Y40660205D01*
X83340081Y40672800D01*
X83387693Y40713211D01*
X83398262Y40793943D01*
X83360457Y40921039D01*
X83358823Y40928684D01*
X83326802Y41169796D01*
X83326383Y41177611D01*
X83332474Y41420748D01*
X83333283Y41428535D01*
X83377333Y41667728D01*
X83379353Y41675301D01*
X83460277Y41904650D01*
X83463456Y41911812D01*
X83579268Y42125688D01*
X83583519Y42132252D01*
X83731360Y42325375D01*
X83736601Y42331208D01*
X83912825Y42498820D01*
X83918905Y42503755D01*
X84119188Y42641741D01*
X84125969Y42645666D01*
X84345376Y42750624D01*
X84352669Y42753433D01*
X84585798Y42822777D01*
X84593453Y42824413D01*
X84834554Y42856432D01*
X84842369Y42856851D01*
X85085506Y42850760D01*
X85093303Y42849950D01*
X85332486Y42805901D01*
X85340059Y42803881D01*
X85569408Y42722957D01*
X85576570Y42719778D01*
X85790446Y42603966D01*
X85797010Y42599715D01*
X85990133Y42451874D01*
X85995966Y42446633D01*
X86163578Y42270409D01*
X86168513Y42264329D01*
X86306499Y42064046D01*
X86310424Y42057265D01*
X86415621Y41837357D01*
X86418105Y41831118D01*
X86525218Y41498512D01*
X86526639Y41493068D01*
X86595947Y41150026D01*
X86596750Y41144456D01*
X86627214Y40795810D01*
X86627389Y40790193D01*
X86618624Y40440304D01*
X86618171Y40434729D01*
X86570285Y40088011D01*
X86569210Y40082521D01*
X86482804Y39743342D01*
X86481126Y39738022D01*
X86357284Y39410642D01*
X86355014Y39405529D01*
X86195305Y39094090D01*
X86192481Y39089267D01*
X85998891Y38797648D01*
X85995555Y38793187D01*
X85770535Y38525080D01*
X85766706Y38521005D01*
X85513091Y38279786D01*
X85508828Y38276165D01*
X85234812Y38068653D01*
X85206380Y38034910D01*
X84591639Y36847533D01*
X84589699Y36844122D01*
X84554200Y36787027D01*
X84550882Y36781274D01*
X84520173Y36723678D01*
X84515952Y36717069D01*
X84488991Y36681373D01*
X84483866Y36673906D01*
X84460246Y36635919D01*
X84455594Y36629602D01*
X84412887Y36580252D01*
X84408708Y36575086D01*
X84369361Y36522993D01*
X84364176Y36517146D01*
X84331948Y36486095D01*
X84325714Y36479518D01*
X84296445Y36445695D01*
X84290870Y36440192D01*
X84240969Y36398130D01*
X84236034Y36393682D01*
X84189020Y36348384D01*
X84182980Y36343417D01*
X84146295Y36317791D01*
X84139111Y36312272D01*
X84104908Y36283442D01*
X84098541Y36278879D01*
X84042663Y36245134D01*
X84037093Y36241512D01*
X83983597Y36204144D01*
X83976828Y36200166D01*
X83936598Y36180601D01*
X83928639Y36176274D01*
X83890347Y36153150D01*
X83883347Y36149640D01*
X83822882Y36125053D01*
X83816816Y36122349D01*
X83758113Y36093801D01*
X83750829Y36090941D01*
X83708028Y36077908D01*
X83699490Y36074879D01*
X83658040Y36058025D01*
X83650592Y36055658D01*
X83587024Y36040833D01*
X83580607Y36039109D01*
X83518164Y36020095D01*
X83510520Y36018410D01*
X83466189Y36012231D01*
X83457280Y36010574D01*
X83413737Y36000418D01*
X83405980Y35999241D01*
X83340888Y35994543D01*
X83334282Y35993845D01*
X83267424Y35984526D01*
X83264099Y35984005D01*
X83136510Y35961821D01*
X83115016Y35955539D01*
X83004420Y35909228D01*
X82984864Y35898321D01*
X82887347Y35828563D01*
X82870708Y35813578D01*
X82791158Y35723869D01*
X82778270Y35705556D01*
X82720678Y35600397D01*
X82712188Y35579675D01*
X82679440Y35464333D01*
X82675774Y35442244D01*
X82669011Y35312930D01*
X82668892Y35309566D01*
X82664329Y35064149D01*
X82663570Y35056366D01*
X82621065Y34816896D01*
X82619094Y34809308D01*
X82539651Y34579437D01*
X82536520Y34572260D01*
X82422096Y34357647D01*
X82417881Y34351048D01*
X82271290Y34156973D01*
X82266093Y34151112D01*
X82090951Y33982364D01*
X82084899Y33977386D01*
X81885517Y33838114D01*
X81878761Y33834145D01*
X81660047Y33727778D01*
X81652749Y33724913D01*
X81420084Y33654069D01*
X81412441Y33652383D01*
X81171544Y33618806D01*
X81163744Y33618338D01*
X81163744Y23593836D01*
X84515175Y23310254D01*
X84515175Y24464273D01*
X84319849Y24481362D01*
X84311274Y24482873D01*
X84121865Y24533626D01*
X84113705Y24536596D01*
X83935990Y24619466D01*
X83928449Y24623820D01*
X83767829Y24736287D01*
X83761169Y24741876D01*
X83622512Y24880533D01*
X83616923Y24887193D01*
X83504457Y25047812D01*
X83500103Y25055353D01*
X83416319Y25235029D01*
X83414639Y25239084D01*
X83296428Y25563866D01*
X83295123Y25568005D01*
X83243804Y25759529D01*
X83242293Y25768104D01*
X83225204Y25963430D01*
X83225204Y25972140D01*
X83242293Y26167465D01*
X83243804Y26176040D01*
X83294555Y26365444D01*
X83297528Y26373613D01*
X83380403Y26551336D01*
X83384746Y26558858D01*
X83497217Y26719485D01*
X83502806Y26726145D01*
X83641462Y26864801D01*
X83648120Y26870388D01*
X83808752Y26982863D01*
X83816279Y26987208D01*
X83995960Y27070995D01*
X84000015Y27072675D01*
X85076551Y27464503D01*
X85080690Y27465808D01*
X85272214Y27517127D01*
X85280789Y27518638D01*
X85476115Y27535727D01*
X85484825Y27535727D01*
X85680159Y27518637D01*
X85688718Y27517129D01*
X85878126Y27466377D01*
X85886302Y27463401D01*
X86064010Y27380535D01*
X86071551Y27376181D01*
X86232170Y27263715D01*
X86238830Y27258126D01*
X86377487Y27119469D01*
X86383076Y27112809D01*
X86495543Y26952189D01*
X86499897Y26944648D01*
X86583681Y26764971D01*
X86585361Y26760916D01*
X86703572Y26436134D01*
X86704877Y26431995D01*
X86756196Y26240471D01*
X86757707Y26231896D01*
X86774796Y26036570D01*
X86774796Y26027860D01*
X86757707Y25832535D01*
X86756196Y25823960D01*
X86705445Y25634556D01*
X86702472Y25626387D01*
X86619597Y25448664D01*
X86615254Y25441142D01*
X86502783Y25280515D01*
X86497194Y25273855D01*
X86358538Y25135199D01*
X86351880Y25129612D01*
X86191248Y25017137D01*
X86183721Y25012792D01*
X86004040Y24929005D01*
X85999985Y24927325D01*
X84923449Y24535497D01*
X84919310Y24534192D01*
X84727786Y24482873D01*
X84719211Y24481362D01*
X84523885Y24464273D01*
X84515175Y24464273D01*
X84515175Y23310254D01*
X88536842Y22969959D01*
X88536842Y30119324D01*
X88529013Y30119598D01*
X88330246Y30142245D01*
X88322548Y30143741D01*
X88127889Y30197724D01*
X88124125Y30198929D01*
X86747193Y30700091D01*
X86743567Y30701575D01*
X86559732Y30785354D01*
X86552879Y30789153D01*
X86386046Y30899576D01*
X86379886Y30904388D01*
X86232373Y31039560D01*
X86227043Y31045275D01*
X86102497Y31201851D01*
X86098120Y31208340D01*
X85998630Y31384188D01*
X85996844Y31387656D01*
X85884715Y31628119D01*
X85883196Y31631743D01*
X85812448Y31820965D01*
X85810287Y31828503D01*
X85770403Y32024539D01*
X85769448Y32032315D01*
X85760720Y32232186D01*
X85760994Y32240015D01*
X85783641Y32438782D01*
X85785137Y32446480D01*
X85839120Y32641139D01*
X85840325Y32644903D01*
X85931063Y32894204D01*
X85932547Y32897830D01*
X86016326Y33081665D01*
X86020124Y33088518D01*
X86130545Y33255345D01*
X86135368Y33261517D01*
X86270523Y33409013D01*
X86276254Y33414358D01*
X86432824Y33538899D01*
X86439313Y33543276D01*
X86615162Y33642766D01*
X86618624Y33644549D01*
X86859101Y33756686D01*
X86862706Y33758198D01*
X87051935Y33828948D01*
X87059479Y33831111D01*
X87255512Y33870994D01*
X87263287Y33871949D01*
X87463158Y33880676D01*
X87470987Y33880402D01*
X87514686Y33875423D01*
X87514686Y35146932D01*
X87275635Y35152894D01*
X87268218Y35153636D01*
X87032712Y35195162D01*
X87025495Y35196999D01*
X86798810Y35273162D01*
X86791940Y35276058D01*
X86579148Y35385150D01*
X86572778Y35389043D01*
X86378622Y35528631D01*
X86372907Y35533427D01*
X86201731Y35700388D01*
X86196780Y35705998D01*
X86052402Y35896603D01*
X86048352Y35902874D01*
X85933995Y36112869D01*
X85930917Y36119690D01*
X85849135Y36344384D01*
X85847114Y36351569D01*
X85799733Y36585947D01*
X85798803Y36593362D01*
X85786884Y36832188D01*
X85787071Y36839649D01*
X85810880Y37077589D01*
X85812174Y37084928D01*
X85871182Y37316664D01*
X85873559Y37323740D01*
X85966444Y37544090D01*
X85969848Y37550729D01*
X86094537Y37754774D01*
X86098889Y37760828D01*
X86252600Y37944013D01*
X86257812Y37949356D01*
X86437100Y38107579D01*
X86443052Y38112088D01*
X86643927Y38241827D01*
X86650472Y38245391D01*
X86870138Y38344508D01*
X86873621Y38345925D01*
X87997722Y38755064D01*
X88001287Y38756213D01*
X88233265Y38821482D01*
X88240591Y38822963D01*
X88477854Y38852695D01*
X88485314Y38853068D01*
X88724365Y38847106D01*
X88731782Y38846364D01*
X88967288Y38804838D01*
X88974505Y38803001D01*
X89201186Y38726840D01*
X89208067Y38723939D01*
X89420847Y38614854D01*
X89427225Y38610956D01*
X89621378Y38471370D01*
X89627093Y38466574D01*
X89798270Y38299613D01*
X89803221Y38294003D01*
X89947599Y38103398D01*
X89951649Y38097127D01*
X90066006Y37887132D01*
X90069084Y37880311D01*
X90150866Y37655617D01*
X90152887Y37648432D01*
X90200271Y37414042D01*
X90201197Y37406652D01*
X90213118Y37167813D01*
X90212931Y37160352D01*
X90189121Y36922415D01*
X90187826Y36915069D01*
X90128819Y36683331D01*
X90126446Y36676268D01*
X90033558Y36455911D01*
X90030154Y36449272D01*
X89905464Y36245226D01*
X89901112Y36239172D01*
X89747402Y36055987D01*
X89742190Y36050644D01*
X89562902Y35892421D01*
X89556950Y35887912D01*
X89356075Y35758173D01*
X89349530Y35754609D01*
X89129862Y35655492D01*
X89126379Y35654075D01*
X88002278Y35244936D01*
X87998713Y35243787D01*
X87766735Y35178518D01*
X87759409Y35177037D01*
X87522146Y35147305D01*
X87514686Y35146932D01*
X87514686Y33875423D01*
X87669754Y33857755D01*
X87677452Y33856259D01*
X87872111Y33802276D01*
X87875875Y33801071D01*
X89252807Y33299909D01*
X89256433Y33298425D01*
X89440268Y33214646D01*
X89447121Y33210847D01*
X89613954Y33100424D01*
X89620114Y33095612D01*
X89767627Y32960440D01*
X89772957Y32954725D01*
X89897503Y32798149D01*
X89901880Y32791660D01*
X90001370Y32615812D01*
X90003156Y32612344D01*
X90115285Y32371881D01*
X90116804Y32368257D01*
X90187552Y32179035D01*
X90189713Y32171497D01*
X90229597Y31975461D01*
X90230552Y31967685D01*
X90239280Y31767814D01*
X90239006Y31759985D01*
X90216359Y31561218D01*
X90214863Y31553520D01*
X90160880Y31358861D01*
X90159675Y31355097D01*
X90068937Y31105796D01*
X90067453Y31102170D01*
X89983674Y30918335D01*
X89979876Y30911482D01*
X89869455Y30744655D01*
X89864632Y30738483D01*
X89729477Y30590987D01*
X89723746Y30585642D01*
X89567176Y30461101D01*
X89560687Y30456724D01*
X89384838Y30357234D01*
X89381376Y30355451D01*
X89140899Y30243314D01*
X89137294Y30241802D01*
X88948065Y30171052D01*
X88940521Y30168889D01*
X88744488Y30129006D01*
X88736713Y30128051D01*
X88536842Y30119324D01*
X88536842Y22969959D01*
X91682113Y22703821D01*
X91742873Y22718250D01*
X91783224Y22765912D01*
X91790541Y22804055D01*
X91768373Y26555044D01*
X91768373Y26555171D01*
X91768372Y26555247D01*
X91768365Y26564216D01*
X91768366Y26564707D01*
X91785317Y30455573D01*
X91785318Y30455730D01*
X91785404Y30464861D01*
X91785405Y30464969D01*
X91842302Y34355557D01*
X91842311Y34356075D01*
X91842485Y34364890D01*
X91842486Y34364890D01*
X91842496Y34365349D01*
X91939332Y38255094D01*
X91939333Y38255152D01*
X91939601Y38264099D01*
X91939610Y38264387D01*
X92076379Y42153061D01*
X92076386Y42153262D01*
X92076748Y42162253D01*
X92076758Y42162495D01*
X92177031Y44368502D01*
X92160245Y44428654D01*
X92082431Y44472902D01*
X75847096Y45333867D01*
X75786819Y45317536D01*
X75747985Y45268629D01*
X75755198Y45184008D01*
X78282880Y40805934D01*
X78286568Y40788288D01*
X78284353Y40782174D01*
X75170302Y36065729D01*
X75163245Y36060142D01*
X75151806Y36069114D01*
X69639024Y45617534D01*
X69592473Y45659163D01*
X69557718Y45667394D01*
X50572383Y46674192D01*
X50512106Y46657861D01*
X50473272Y46608954D01*
X50471027Y46546544D01*
X50496377Y46503623D01*
X50988677Y46011323D01*
X50990939Y46006846D01*
X50983151Y45983151D01*
X49011323Y44011323D01*
X49006846Y44009061D01*
X48983151Y44016849D01*
X47011323Y45988677D01*
X47009061Y45993154D01*
X47016849Y46016849D01*
X47661459Y46661459D01*
X47689621Y46717198D01*
X47679223Y46778776D01*
X47634319Y46822177D01*
X47596045Y46832028D01*
X6507755Y49010953D01*
X6447478Y48994622D01*
X6408644Y48945715D01*
X6406399Y48883305D01*
X6438648Y48834100D01*
X6469476Y48808550D01*
X6475099Y48803091D01*
X6635771Y48620521D01*
X6640475Y48614244D01*
X6770607Y48408787D01*
X6774269Y48401856D01*
X6870662Y48178568D01*
X6873194Y48171149D01*
X6933469Y47935529D01*
X6934810Y47927807D01*
X6957484Y47685663D01*
X6957601Y47677822D01*
X6942116Y47435114D01*
X6941003Y47427344D01*
X6887741Y47190046D01*
X6885432Y47182563D01*
X6794972Y46954678D01*
X6793383Y46951094D01*
X4999062Y43296593D01*
X4997191Y43293134D01*
X4872205Y43082218D01*
X4867697Y43075815D01*
X4712505Y42888556D01*
X4707040Y42882928D01*
X4524471Y42722258D01*
X4518195Y42717554D01*
X4312731Y42587417D01*
X4305810Y42583760D01*
X4082507Y42487362D01*
X4075104Y42484835D01*
X3839479Y42424558D01*
X3831757Y42423217D01*
X3589612Y42400544D01*
X3581771Y42400427D01*
X3339063Y42415912D01*
X3331293Y42417025D01*
X3094003Y42470286D01*
X3086502Y42472600D01*
X2860462Y42562327D01*
X2853418Y42565786D01*
X2644192Y42689771D01*
X2637789Y42694279D01*
X2450530Y42849471D01*
X2444902Y42854936D01*
X2284232Y43037505D01*
X2279528Y43043781D01*
X2149391Y43249245D01*
X2145734Y43256166D01*
X2049336Y43479469D01*
X2046809Y43486872D01*
X1986532Y43722497D01*
X1985191Y43730219D01*
X1962518Y43972364D01*
X1962401Y43980205D01*
X1977886Y44222913D01*
X1978999Y44230683D01*
X2032260Y44467973D01*
X2034574Y44475474D01*
X2125024Y44703336D01*
X2126620Y44706939D01*
X3920938Y48361433D01*
X3922809Y48364892D01*
X4047795Y48575808D01*
X4052303Y48582211D01*
X4207495Y48769470D01*
X4212960Y48775098D01*
X4395530Y48935770D01*
X4401802Y48940470D01*
X4402345Y48940814D01*
X4402481Y48940979D01*
X4404943Y48942824D01*
X4404494Y48943424D01*
X4442037Y48989027D01*
X4445385Y49051387D01*
X4411084Y49103573D01*
X4354145Y49125159D01*
X1059784Y49299860D01*
X1054488Y49300000D01*
X-13303987Y49300000D01*
X-13312534Y49302809D01*
X-13311350Y49317299D01*
X-13016884Y49906233D01*
X-13007794Y49968018D01*
X-13037131Y50023147D01*
X-13101030Y50050813D01*
X-30888675Y50994096D01*
X-30948952Y50977765D01*
X-30987786Y50928858D01*
X-30993816Y50888690D01*
G37*
G04 --- BOARD END --- *
G04 #@! TF.MD5,a00e7ee58250b1f85defffbdf6d8d638*
M02*
